<?xml version="1.0" encoding="UTF-8"?>
<svg version="1.1" xmlns="http://www.w3.org/2000/svg" width="1536" height="1024" shape-rendering="geometricPrecision">
<path d="M0 0 C2.89684158 -0.10829314 5.78961019 -0.18743954 8.6875 -0.25 C9.50412109 -0.28351563 10.32074219 -0.31703125 11.16210938 -0.3515625 C15.08549264 -0.41509907 17.44925255 -0.29683614 20.95703125 1.59375 C23.51884488 4.61110602 24.15179422 6.88413905 25 10.75 C25.15605713 11.43465332 25.31211426 12.11930664 25.47290039 12.82470703 C26.00783101 15.2116422 26.50755332 17.6039434 27 20 C27.28593018 21.38880371 27.28593018 21.38880371 27.57763672 22.80566406 C27.98696675 24.79986983 28.39580864 26.79417585 28.80419922 28.78857422 C34.08448593 60.06708368 34.08448593 60.06708368 53 84 C58.51598456 86.81667297 65.21044169 87.01372386 71.17578125 85.41796875 C83.0426056 80.37168811 87.33994944 66.50286132 92.07128906 55.51123047 C104.25323245 27.23663294 104.25323245 27.23663294 117.625 21.1875 C126.60921759 18.0263864 135.28655538 17.88402348 144 22 C156.8298279 29.66922673 162.68106708 41.94409572 168.1953125 55.2578125 C168.57768066 56.1753833 168.96004883 57.0929541 169.35400391 58.03833008 C170.09704768 59.83705321 170.82676138 61.64136374 171.54052734 63.4519043 C175.20296716 72.38048091 180.69382262 81.13355574 189.75 85.25 C197.35033202 87.00392277 202.83981809 86.36333179 209.71484375 82.52734375 C219.60935846 75.91408691 223.41190919 63.79309023 226.45703125 52.79296875 C226.67173065 52.0180307 226.88643005 51.24309265 227.1076355 50.44467163 C229.7475884 40.60547353 231.37238139 30.58557383 233.05761719 20.54833984 C233.47974655 18.0539822 233.91508651 15.56219303 234.3515625 13.0703125 C234.47350983 12.31622101 234.59545715 11.56212952 234.72109985 10.78518677 C235.41829242 6.82898342 236.08800205 3.86353943 239 1 C241.70716242 0.09761253 243.23776768 -0.11851302 246.01171875 -0.09765625 C247.14770508 -0.09282227 247.14770508 -0.09282227 248.30664062 -0.08789062 C249.48516602 -0.07532227 249.48516602 -0.07532227 250.6875 -0.0625 C251.48478516 -0.05798828 252.28207031 -0.05347656 253.10351562 -0.04882812 C255.06904257 -0.0370585 257.03453085 -0.01912348 259 0 C260.20171877 4.3623326 259.74801786 7.75953821 258.9609375 12.1875 C258.83997208 12.87862381 258.71900665 13.56974762 258.59437561 14.28181458 C258.19829655 16.52321176 257.78774589 18.7616163 257.375 21 C257.23683868 21.76299408 257.09867737 22.52598816 256.95632935 23.31210327 C250.66109244 58.05982106 250.66109244 58.05982106 244 73 C243.62230469 73.86496094 243.24460937 74.72992187 242.85546875 75.62109375 C236.64677921 88.93136129 227.33946576 99.57729427 214 106 C208.46793711 107.6157136 203.44153048 108.38691448 197.6875 108.375 C196.94910889 108.37483887 196.21071777 108.37467773 195.44995117 108.37451172 C189.02179234 108.24133647 183.8572431 106.61465685 178 104 C176.9275 103.7525 175.855 103.505 174.75 103.25 C170.37928436 101.26331107 167.96936033 97.67795769 165 94 C164.00042371 92.9162757 163.00044196 91.8329252 162 90.75 C154.10459948 81.39795025 149.61874074 69.88397995 145.04418945 58.6809082 C144.29251061 56.84837772 143.53113013 55.01983624 142.76953125 53.19140625 C142.33229736 52.12092041 141.89506348 51.05043457 141.44458008 49.94750977 C139.93326231 46.86382895 138.34650558 44.50505706 136 42 C132.0472837 40.8288248 129.85948453 40.68047661 125.984375 42.12109375 C122.35974878 44.4030901 121.40689525 46.19569686 119.625 50.0625 C119.33882813 50.66884277 119.05265625 51.27518555 118.7578125 51.89990234 C116.76459122 56.16664164 114.90270893 60.49332121 113.01586914 64.80786133 C106.41475309 79.8646247 98.09974595 97.98533142 82 105 C69.03418723 109.7534571 55.95630183 109.94950776 43.1953125 104.1796875 C29.41424318 96.77420185 22.27101996 84.77232177 16 71 C15.01 71.495 15.01 71.495 14 72 C13.67 70.68 13.34 69.36 13 68 C13.66 68 14.32 68 15 68 C14.63648438 67.02546875 14.27296875 66.0509375 13.8984375 65.046875 C6.74565375 45.14681734 0 21.311415 0 0 Z " fill="#11151A" transform="translate(364,444)"/>
<path d="M0 0 C2.6875 1.625 2.6875 1.625 4.6875 3.625 C4.94921303 5.93258858 4.94921303 5.93258858 4.9659729 8.8767395 C4.97713638 9.99015717 4.98829987 11.10357483 4.99980164 12.25073242 C5.00196182 13.47783936 5.00412201 14.70494629 5.00634766 15.96923828 C5.01639328 17.25700165 5.0264389 18.54476501 5.03678894 19.87155151 C5.06415482 23.40849763 5.07925772 26.94540377 5.09221697 30.48242807 C5.10781882 34.17671719 5.13461835 37.87092432 5.1602478 41.56515503 C5.20708794 48.5632528 5.24380662 55.56136591 5.27692068 62.55954063 C5.31510517 70.52562867 5.36452489 78.49163449 5.41490483 86.45765328 C5.5183025 102.84670986 5.60753731 119.23581199 5.6875 135.625 C6.34556137 134.89669983 7.00362274 134.16839966 7.68162537 133.41802979 C14.41155818 126.00329334 21.33279746 118.81680631 28.41015625 111.734375 C29.48830427 110.65300235 30.56638205 109.57155966 31.64439392 108.49005127 C33.8753594 106.25317201 36.10830547 104.0182925 38.3425293 101.78466797 C41.20914158 98.91815871 44.06872795 96.04474353 46.92675114 93.16967392 C49.13745456 90.94789896 51.35264017 88.73063612 53.56915092 86.51465607 C54.62695371 85.45567265 55.683134 84.39506597 56.73765755 83.33281708 C58.19942032 81.86132144 59.66730284 80.3962194 61.13696289 78.93261719 C61.96982315 78.09833191 62.80268341 77.26404663 63.66078186 76.40447998 C65.6875 74.625 65.6875 74.625 67.6875 74.625 C67.6875 73.965 67.6875 73.305 67.6875 72.625 C74.85771411 65.04450115 82.91746531 59.07633565 93.4375 58.375 C98.00370918 58.44458033 102.71585398 59.29589468 106.6875 61.625 C107.44140625 63.734375 107.44140625 63.734375 107.6875 65.625 C107.0275 65.625 106.3675 65.625 105.6875 65.625 C105.45874176 66.17907532 105.22998352 66.73315063 104.99429321 67.30401611 C103.31477033 70.28700187 101.2066482 72.34486238 98.77880859 74.76074219 C98.28108444 75.25875839 97.78336029 75.7567746 97.27055359 76.2698822 C95.6303793 77.90866733 93.98324339 79.54026134 92.3359375 81.171875 C91.19492744 82.30915347 90.05435923 83.4468754 88.91421509 84.58502197 C85.91671238 87.57489979 82.91325149 90.55872191 79.9085083 93.5413208 C76.84163288 96.58771321 73.78043306 99.63979703 70.71875 102.69140625 C64.71387217 108.67485434 58.70268768 114.65191663 52.6875 120.625 C53.6264713 121.90286928 54.56907696 123.17806851 55.51318359 124.45214844 C56.03770111 125.16256287 56.56221863 125.87297729 57.10263062 126.60491943 C59.25315362 129.34598427 61.69501116 131.58199325 64.3125 133.875 C70.68965971 139.55098489 76.69188785 145.55107071 82.6875 151.625 C86.05188413 155.01209686 86.05188413 155.01209686 89.5 158.3125 C90.6875 159.625 90.6875 159.625 90.6875 161.625 C91.5228125 161.9653125 91.5228125 161.9653125 92.375 162.3125 C95.34909588 164.00050036 97.40758865 166.09176517 99.6875 168.625 C99.6875 169.285 99.6875 169.945 99.6875 170.625 C100.27772949 170.89070801 100.86795898 171.15641602 101.47607422 171.43017578 C103.74456043 172.65582951 105.24938232 173.92868752 107.0703125 175.7421875 C107.98490234 176.65291016 107.98490234 176.65291016 108.91796875 177.58203125 C109.54316406 178.21496094 110.16835938 178.84789062 110.8125 179.5 C111.44542969 180.12519531 112.07835937 180.75039063 112.73046875 181.39453125 C113.33761719 182.00425781 113.94476562 182.61398437 114.5703125 183.2421875 C115.12090332 183.79503418 115.67149414 184.34788086 116.23876953 184.91748047 C117.76631282 186.71789128 118.72125725 188.47864028 119.6875 190.625 C111.59681761 193.91223789 100.20889808 193.34688626 91.9375 190.3125 C82.53823797 185.321419 74.70668792 175.79874637 67.39453125 168.26953125 C65.77245647 166.54310956 65.77245647 166.54310956 63.6875 165.625 C63.6875 164.965 63.6875 164.305 63.6875 163.625 C63.0275 163.625 62.3675 163.625 61.6875 163.625 C61.6875 162.965 61.6875 162.305 61.6875 161.625 C61.13030273 161.39377441 60.57310547 161.16254883 59.99902344 160.92431641 C57.0713402 159.27865415 55.06364812 157.22524749 52.703125 154.8359375 C52.24266785 154.37265045 51.78221069 153.9093634 51.30780029 153.43203735 C49.84624922 151.95934102 48.39182832 150.47982597 46.9375 149 C45.94447389 147.99693678 44.95098911 146.99432743 43.95703125 145.9921875 C41.52852059 143.54169165 39.10635325 141.0850333 36.6875 138.625 C32.95934878 140.01549347 30.93809506 141.07328633 28.5 144.25 C27.01953125 146.1640625 27.01953125 146.1640625 25.6875 147.625 C25.0275 147.625 24.3675 147.625 23.6875 147.625 C23.31625 148.553125 23.31625 148.553125 22.9375 149.5 C21.48121361 151.97568687 20.30937494 152.57625002 17.6875 153.625 C17.6875 154.285 17.6875 154.945 17.6875 155.625 C16.04296875 157.2109375 16.04296875 157.2109375 13.875 159 C8.3593001 163.48637013 8.3593001 163.48637013 6.24609375 170.05078125 C6.20613281 171.33339844 6.16617188 172.61601563 6.125 173.9375 C5.70589018 186.49809422 5.70589018 186.49809422 1.87109375 190.5390625 C-2.06107795 192.4945969 -6.03245097 192.15220215 -10.3125 191.625 C-13.33536884 190.23951845 -14.98121425 188.95628575 -17.3125 186.625 C-19.13858417 175.65870075 -18.46659412 164.01802898 -18.44287109 152.93481445 C-18.43744187 149.90506138 -18.44288291 146.8754521 -18.44921875 143.84570312 C-18.44855908 141.91406217 -18.44728023 139.98242131 -18.4453125 138.05078125 C-18.44733673 137.14773758 -18.44936096 136.24469391 -18.45144653 135.31428528 C-18.44829437 134.47878647 -18.44514221 133.64328766 -18.44189453 132.7824707 C-18.44109894 132.04970413 -18.44030334 131.31693756 -18.43948364 130.56196594 C-18.3125 128.625 -18.3125 128.625 -17.3125 125.625 C-17.9725 125.295 -18.6325 124.965 -19.3125 124.625 C-19.126875 124.0475 -18.94125 123.47 -18.75 122.875 C-18.15109669 120.68566196 -18.15109669 120.68566196 -18.8125 118.8125 C-19.3125 116.625 -19.3125 116.625 -18.84765625 113.86987305 C-17.91635191 107.80103615 -18.21114429 101.64168721 -18.25 95.51953125 C-18.25441174 94.14906487 -18.2582267 92.77859646 -18.26147461 91.40812683 C-18.27284132 87.08455477 -18.29210086 82.76103763 -18.3125 78.4375 C-18.33613832 73.4140785 -18.35650074 68.39068782 -18.36843872 63.36722374 C-18.37490348 61.36197063 -18.38747869 59.35674024 -18.40014648 57.35151672 C-18.40344971 56.13312607 -18.40675293 54.91473541 -18.41015625 53.65942383 C-18.41539307 52.58799637 -18.42062988 51.51656891 -18.42602539 50.41267395 C-18.32660191 47.97127971 -18.02062565 45.95176421 -17.3125 43.625 C-17.9725 43.295 -18.6325 42.965 -19.3125 42.625 C-19.065 41.15740234 -19.065 41.15740234 -18.8125 39.66015625 C-18.210965 35.44199794 -18.24441161 31.3143438 -18.3125 27.0625 C-18.34350343 21.28513005 -18.3284386 15.52207652 -18.0625 9.75 C-17.99289062 8.11417969 -17.99289062 8.11417969 -17.921875 6.4453125 C-17.17728133 2.99918024 -16.05836298 1.77960051 -13.3125 -0.375 C-8.50002651 -1.97915783 -4.70210741 -1.95181817 0 0 Z " fill="#11151B" transform="translate(855.3125,359.375)"/>
<path d="M0 0 C0.495 1.485 0.495 1.485 1 3 C2.26972656 2.95359375 3.53945312 2.9071875 4.84765625 2.859375 C24.63566955 2.34946426 41.80322696 6.67124637 57 19.875 C66.6931339 29.29529013 75.51669504 42.2148612 76.5234375 55.96484375 C75.70735805 59.13780936 73.6196092 60.13784468 71 62 C68.23287964 63.21337891 68.23287964 63.21337891 65.19091797 64.2265625 C64.04557587 64.61376465 62.90023376 65.0009668 61.72018433 65.39990234 C60.48994537 65.80418457 59.25970642 66.2084668 57.9921875 66.625 C56.70257314 67.05715799 55.41328167 67.49028061 54.1242981 67.92431641 C50.7350837 69.06289718 47.34192754 70.18923197 43.94769287 71.31274414 C39.85598735 72.66945677 35.76887159 74.03991514 31.68126106 75.40890503 C28.49323108 76.4764095 25.30435426 77.54105936 22.11349487 78.60009766 C15.80877575 80.69688973 9.550151 82.86346214 3.34207153 85.23266602 C-0.46239787 86.47912609 -3.01127898 86.60844897 -7 86 C-10.2561101 84.10553594 -12.3487671 82.69599157 -13.73046875 79.09765625 C-14.46633604 75.30174679 -14.31980565 73.62677296 -12.51000977 70.07983398 C-9.23857036 66.06571005 -6.28185315 65.1072292 -1.45703125 63.5625 C-0.19423592 63.13046265 -0.19423592 63.13046265 1.09407043 62.68969727 C3.78573492 61.77357617 6.48588216 60.88628336 9.1875 60 C10.95312321 59.40557082 12.71810494 58.80923269 14.48242188 58.2109375 C17.95815169 57.0342029 21.43742899 55.86896012 24.91943359 54.7109375 C30.58877571 52.81604696 36.22011643 50.81734123 41.83866882 48.77709961 C46.78708388 47 46.78708388 47 49 47 C47.71711243 44.44496043 47.71711243 44.44496043 46 42 C45.01 42 44.02 42 43 42 C42.979375 41.29875 42.95875 40.5975 42.9375 39.875 C41.50682348 35.487592 38.81450711 33.47164492 35 31 C22.91179333 24.97205737 10.57782871 22.88018544 -2.625 26.5625 C-14.31324979 30.5997457 -22.91997545 36.85057596 -28.5 47.99609375 C-30.8212195 53.27818699 -32.68324691 58.19286009 -33 64 C-33.05027344 64.81855469 -33.10054687 65.63710938 -33.15234375 66.48046875 C-33.58716168 78.81190534 -29.79754893 89.53154772 -22 99 C-22 99.66 -22 100.32 -22 101 C-21.42121094 101.27070312 -20.84242187 101.54140625 -20.24609375 101.8203125 C-17.99579439 103.00220886 -16.10250374 104.36359608 -14.0625 105.875 C-2.66964855 113.44549412 10.04718851 114.33498789 23.26171875 112.5625 C33.74226455 110.37049042 43.97279513 105.0408073 50 96 C50 96.66 50 97.32 50 98 C51.02673828 98.13728516 51.02673828 98.13728516 52.07421875 98.27734375 C55.70056363 99.17303641 58.55047308 100.75026282 61.8125 102.5625 C62.40998047 102.89185547 63.00746094 103.22121094 63.62304688 103.56054688 C65.08533998 104.36773267 66.5431399 105.18304917 68 106 C63.92058976 116.95293709 53.88166548 123.60032555 43.734375 128.61328125 C31.55023223 133.80225663 20.6086028 135.16442095 7.5 135.0625 C6.39140625 135.05798828 5.2828125 135.05347656 4.140625 135.04882812 C1.42702601 135.03713158 -1.28645761 135.02074086 -4 135 C-4 134.34 -4 133.68 -4 133 C-4.886875 132.938125 -5.77375 132.87625 -6.6875 132.8125 C-16.20366751 131.41989012 -24.78937272 127.23579998 -32 121 C-32.64195312 120.51144531 -33.28390625 120.02289062 -33.9453125 119.51953125 C-42.67080268 112.59046552 -49.20667882 102.41719166 -53 92 C-53.28488281 91.25105469 -53.56976562 90.50210938 -53.86328125 89.73046875 C-59.43214756 74.23793547 -58.18333541 56.71738386 -51.38500977 41.82739258 C-47.64642084 34.13784625 -43.20510973 27.94745811 -37 22 C-36.33742188 21.30648438 -35.67484375 20.61296875 -34.9921875 19.8984375 C-26.89735936 11.92672462 -15.92839256 6.81015809 -5 4 C-5 3.34 -5 2.68 -5 2 C-3.35 2 -1.7 2 0 2 C0 1.34 0 0.68 0 0 Z " fill="#11151B" transform="translate(1045,417)"/>
<path d="M0 0 C0 6.93 0 13.86 0 21 C-3.08996474 22.02998825 -6.18204848 23.05564989 -9.296875 24.0078125 C-21.81505072 28.05781053 -30.56746886 34.366699 -37 46 C-40.85265833 54.7389567 -42.15427828 62.34521705 -42.0625 71.8125 C-42.05798828 72.69615234 -42.05347656 73.57980469 -42.04882812 74.49023438 C-42.03709866 76.66018559 -42.01916495 78.83010172 -42 81 C-41.34 81.33 -40.68 81.66 -40 82 C-39.32421875 83.78515625 -39.32421875 83.78515625 -38.6875 86.0625 C-35.16595193 97.11770811 -27.82130788 105.00455898 -17.78125 110.64453125 C-4.45805226 117.13771891 9.63566092 117.87466405 23.8984375 114.10546875 C37.96259015 109.09267883 46.63217647 100.11160357 53.00390625 86.921875 C57.88464744 74.56676204 56.58975514 60.91864631 51.7421875 48.875 C46.18131882 36.72009579 37.23135294 29.07821942 24.8125 24.25 C21.25102253 22.99584541 17.64151083 22.04043167 14 21 C14 14.4 14 7.8 14 1 C22.39855551 -1.7995185 33.72667314 2.8544596 41.3125 6.625 C59.18958039 15.95170228 70.2118099 30.41180529 77.1328125 49.05078125 C82.63256991 67.49899664 79.33440633 86.71693327 70.46484375 103.56640625 C60.62014355 119.92173485 45.34368912 131.03503968 27.07421875 136.0625 C12.49282954 139.66198844 -4.80766439 138.92206974 -19 134 C-19.83917969 133.72285156 -20.67835938 133.44570313 -21.54296875 133.16015625 C-28.13738954 130.77798564 -33.42293351 127.19417235 -39 123 C-40.13888672 122.18595703 -40.13888672 122.18595703 -41.30078125 121.35546875 C-54.20045806 112.04034564 -62.40647752 95.37749758 -65.125 80.00439453 C-68.17680412 61.01489824 -63.70514154 44.10411498 -53.16796875 28.2421875 C-51.53126637 26.06238072 -49.82517519 24.02328889 -48 22 C-47.49339844 21.401875 -46.98679687 20.80375 -46.46484375 20.1875 C-38.35369457 11.25925717 -27.05755907 6.25853101 -16 2 C-15.34 1.67 -14.68 1.34 -14 1 C-12.3802662 0.77143129 -10.75368213 0.58973587 -9.125 0.4375 C-7.82949219 0.31181641 -7.82949219 0.31181641 -6.5078125 0.18359375 C-4.34347077 0.02514506 -2.1701339 0 0 0 Z " fill="#111111" transform="translate(720,415)"/>
<path d="M0 0 C1.66245039 0.35376204 3.32826966 0.69306912 5 1 C5 1.66 5 2.32 5 3 C5.84949219 3.23847656 6.69898438 3.47695313 7.57421875 3.72265625 C11.38876414 5.14495539 14.51245242 7.108276 17.8125 9.4375 C18.39708984 9.83259766 18.98167969 10.22769531 19.58398438 10.63476562 C23.87415902 13.62247705 23.87415902 13.62247705 25 17 C25.88171875 17.38865234 25.88171875 17.38865234 26.78125 17.78515625 C30.02975851 19.56382904 31.58791682 22.37386737 33.5 25.4375 C33.89654785 26.06857666 34.2930957 26.69965332 34.70166016 27.34985352 C43.36558962 41.51693619 45.47698881 57.51354222 45.3984375 73.8515625 C45.40046674 75.20820267 45.40338516 76.56484177 45.40713501 77.92147827 C45.41150349 80.72982427 45.40529768 83.53787973 45.39111328 86.34619141 C45.37385722 89.93606938 45.38399902 93.5252823 45.40183067 97.1151371 C45.41267757 99.90161146 45.40922096 102.68792806 45.4014473 105.4744072 C45.39849536 107.4380716 45.40754754 109.40174232 45.4168396 111.36538696 C45.40265488 113.15412735 45.40265488 113.15412735 45.38818359 114.97900391 C45.38579681 116.02408112 45.38341003 117.06915833 45.38095093 118.14590454 C44.9413448 121.43944646 43.93516517 123.32298384 42 126 C37.76805511 128.89738965 32.93011401 128.6444086 28 128 C22.38028169 125.14084507 22.38028169 125.14084507 21 121 C20.90967875 119.65541598 20.87211632 118.3068419 20.87060547 116.95922852 C20.86745331 116.15151505 20.86430115 115.34380157 20.86105347 114.51161194 C20.86408981 113.20842262 20.86408981 113.20842262 20.8671875 111.87890625 C20.86623077 110.98259995 20.86527405 110.08629364 20.86428833 109.16282654 C20.86360789 107.2673231 20.86545274 105.37181732 20.86962891 103.47631836 C20.8749728 100.57725779 20.86968256 97.67835258 20.86328125 94.77929688 C20.86394218 92.93749966 20.86522364 91.09570254 20.8671875 89.25390625 C20.86516327 88.3871376 20.86313904 87.52036896 20.86105347 86.62733459 C20.86420563 85.81646896 20.86735779 85.00560333 20.87060547 84.17016602 C20.87140106 83.45973648 20.87219666 82.74930695 20.87301636 82.01734924 C21.00585323 79.90701162 21.42559245 78.03105934 22 76 C21.34 75.67 20.68 75.34 20 75 C20.66 75 21.32 75 22 75 C22 72.69 22 70.38 22 68 C21.34 67.67 20.68 67.34 20 67 C20.66 67 21.32 67 22 67 C21.86722656 66.07058594 21.73445313 65.14117187 21.59765625 64.18359375 C20.29882812 55.09179688 20.29882812 55.09179688 19 46 C18.01 46 17.02 46 16 46 C16.33 45.01 16.66 44.02 17 43 C12.69579525 33.30093228 3.9209758 25.83751377 -5.75 22 C-18.29599655 17.55018842 -31.51678737 17.59462916 -43.69921875 23.25390625 C-54.99028422 29.59972712 -62.24213462 38.41737099 -65.84765625 50.9453125 C-68.29960572 63.12386946 -67.45131831 76.7323996 -60.47265625 87.31640625 C-59.46818162 88.64997525 -58.43627562 89.96374194 -57.3671875 91.24609375 C-56 93 -56 93 -55.0703125 95.09765625 C-53.6982785 97.53627142 -52.55941896 97.92423722 -50 99 C-49.10925781 99.474375 -48.21851563 99.94875 -47.30078125 100.4375 C-46.31464844 100.953125 -45.32851562 101.46875 -44.3125 102 C-42.85263672 102.7734375 -42.85263672 102.7734375 -41.36328125 103.5625 C-32.11602846 107.51486821 -22.80798814 107.33154178 -12.88671875 107.30273438 C-4.76463784 107.45422927 -4.76463784 107.45422927 -0.79296875 110.2890625 C1.80808783 114.22181472 1.92539797 116.3000721 2 121 C1.16371205 124.09426542 0.25179521 124.82109288 -2.375 126.6875 C-14.15636997 132.57818499 -32.85767528 129.97566125 -45.1328125 126.38671875 C-56.01959485 122.73144205 -64.98043643 116.13516089 -73 108 C-73.62261719 107.38769531 -74.24523437 106.77539062 -74.88671875 106.14453125 C-79.68591211 101.08650498 -82.88948938 95.25082853 -86.203125 89.171875 C-87.66332304 86.59430802 -89.15184114 84.30449438 -91 82 C-90.34 82 -89.68 82 -89 82 C-89.144375 81.18917969 -89.28875 80.37835938 -89.4375 79.54296875 C-92.96245674 58.51562266 -89.92891504 40.48264406 -77.828125 22.83203125 C-59.4028771 -0.85290621 -28.29497484 -9.11674481 0 0 Z " fill="#11151A" transform="translate(299,423)"/>
<path d="M0 0 C18.5917423 -0.69560941 34.31755246 5.75074466 48.734375 17.1640625 C49.58128906 17.80214844 50.42820312 18.44023437 51.30078125 19.09765625 C61.98898803 28.1731962 67.51818004 42.18349747 70.19140625 55.58203125 C70.61440472 58.13543915 70.61440472 58.13543915 71.734375 60.1640625 C71.81760606 62.23134892 71.83379323 64.30144892 71.81958008 66.37036133 C71.8088018 68.32798149 71.8088018 68.32798149 71.79780579 70.32514954 C71.78387027 71.7571379 71.76921945 73.18911946 71.75390625 74.62109375 C71.74694921 75.34116796 71.73999218 76.06124218 71.73282433 76.80313683 C71.69540762 80.6150237 71.65138812 84.42677181 71.60229492 88.23852539 C71.55298224 92.17268332 71.52676833 96.10663902 71.50586414 100.04103565 C71.4854691 103.06874902 71.44758252 106.09606574 71.4050045 109.12354088 C71.3876862 110.57350021 71.37697444 112.02355437 71.37305641 113.47361183 C71.36595768 115.50575058 71.33161005 117.53773846 71.29614258 119.56958008 C71.28424393 120.72492752 71.27234528 121.88027496 71.26008606 123.07063293 C70.62254933 126.82207572 69.40555211 128.49542289 66.734375 131.1640625 C61.65039933 132.85872106 56.64126804 133.03805514 51.734375 130.7890625 C49.734375 129.1640625 49.734375 129.1640625 48.734375 127.1640625 C48.6201883 125.4462358 48.56759544 123.72415384 48.54492188 122.00268555 C48.52820435 120.92363449 48.51148682 119.84458344 48.4942627 118.73283386 C48.48068726 117.5590065 48.46711182 116.38517914 48.453125 115.17578125 C48.43471558 113.96646439 48.41630615 112.75714752 48.39733887 111.51118469 C48.33844816 107.62469471 48.28578309 103.7381582 48.234375 99.8515625 C48.18271377 96.00424949 48.12953711 92.15698976 48.07141113 88.30976868 C48.03526207 85.91446834 48.00272611 83.51910965 47.9744873 81.123703 C47.85463642 57.79401641 47.85463642 57.79401641 37.30078125 37.5625 C36.12140632 36.41987613 34.92915447 35.29056886 33.734375 34.1640625 C33.734375 33.5040625 33.734375 32.8440625 33.734375 32.1640625 C32.89326172 31.74640625 32.89326172 31.74640625 32.03515625 31.3203125 C30.48457702 30.54107404 28.94034477 29.74909193 27.40234375 28.9453125 C26.17451172 28.31109375 26.17451172 28.31109375 24.921875 27.6640625 C24.11105469 27.24125 23.30023437 26.8184375 22.46484375 26.3828125 C16.02955117 23.51040723 10.29171015 22.84761839 3.359375 22.9140625 C2.56015625 22.90632813 1.7609375 22.89859375 0.9375 22.890625 C-4.54892082 22.90838041 -10.06364165 23.28552768 -15.265625 25.1640625 C-15.595625 25.8240625 -15.925625 26.4840625 -16.265625 27.1640625 C-17.3175 27.5971875 -18.369375 28.0303125 -19.453125 28.4765625 C-28.0325076 32.0411125 -33.58617648 39.45718514 -37.46875 47.7265625 C-38.47278424 50.37031732 -38.47278424 50.37031732 -38.265625 54.1640625 C-38.925625 54.1640625 -39.585625 54.1640625 -40.265625 54.1640625 C-41.15150486 62.12289206 -41.37482158 69.95029008 -41.29296875 77.953125 C-41.28032996 80.38281112 -41.26796846 82.81249869 -41.25585938 85.2421875 C-41.23102348 89.02511265 -41.20295875 92.80795969 -41.16967773 96.59082031 C-41.13937353 100.27409342 -41.12167848 103.95726663 -41.10546875 107.640625 C-41.09200912 108.76272369 -41.0785495 109.88482239 -41.06468201 111.04092407 C-41.01454843 126.84263978 -41.01454843 126.84263978 -45.265625 131.2265625 C-50.73240696 132.93493186 -56.06158775 133.15363025 -61.328125 130.7890625 C-63.265625 129.1640625 -63.265625 129.1640625 -64.265625 127.1640625 C-64.4232957 124.57908798 -64.52440219 122.01730524 -64.58203125 119.4296875 C-64.6029483 118.64822357 -64.62386536 117.86675964 -64.64541626 117.06161499 C-64.7117935 114.51253379 -64.7706071 111.96335807 -64.828125 109.4140625 C-64.84863922 108.54948425 -64.86915344 107.68490601 -64.89028931 106.79412842 C-65.02933253 100.91769038 -65.1515556 95.04103284 -65.265625 89.1640625 C-65.29043945 87.94557617 -65.31525391 86.72708984 -65.34082031 85.47167969 C-65.78913644 60.89027831 -63.6038362 38.33390496 -45.84375 19.546875 C-32.70558594 7.40402639 -17.701014 1.28179757 0 0 Z " fill="#10141A" transform="translate(1213.265625,418.8359375)"/>
<path d="M0 0 C0.33 0.99 0.66 1.98 1 3 C2.6635479 3.67441131 4.33066942 4.3400321 6 5 C9.44334775 7.36115274 10.47110676 9.82696845 11.5 13.75 C12.27805053 18.41141777 11.69895248 21.33507919 9.27734375 25.37109375 C7.4541519 27.69608152 5.73637948 28.90544821 3 30 C1.68 30 0.36 30 -1 30 C-1.33 30.66 -1.66 31.32 -2 32 C-2 31.34 -2 30.68 -2 30 C-2.86625 30.103125 -3.7325 30.20625 -4.625 30.3125 C-9.13862642 29.89457163 -10.83958608 28.16041392 -14 25 C-16.73648742 20.550881 -16.64948601 16.0756129 -16 11 C-13.8338521 6.5874765 -11.56138 3.90941488 -7 2 C-3.1875 1.8125 -3.1875 1.8125 0 2 C0 1.34 0 0.68 0 0 Z " fill="#D4AF37" transform="translate(729,468)"/>
<path d="M0 0 C0.33 0 0.66 0 1 0 C1.33 59.07 1.66 118.14 2 179 C1.01 178.67 0.02 178.34 -1 178 C-2.0769028 171.88079661 -2.14504886 165.90689975 -2.1328125 159.703125 C-2.13376923 158.63253845 -2.13472595 157.5619519 -2.13571167 156.45892334 C-2.13638968 154.20650168 -2.13456194 151.95407802 -2.13037109 149.70166016 C-2.12499639 146.24767712 -2.13033976 142.79382288 -2.13671875 139.33984375 C-2.13605831 137.14843721 -2.13477787 134.95703076 -2.1328125 132.765625 C-2.13483673 131.73125305 -2.13686096 130.6968811 -2.13894653 129.63116455 C-2.13579437 128.67296814 -2.13264221 127.71477173 -2.12939453 126.72753906 C-2.12859894 125.88483459 -2.12780334 125.04213013 -2.12698364 124.17388916 C-2 122 -2 122 -1 119 C-1.66 118.67 -2.32 118.34 -3 118 C-2.814375 117.4225 -2.62875 116.845 -2.4375 116.25 C-1.83859669 114.06066196 -1.83859669 114.06066196 -2.5 112.1875 C-3 110 -3 110 -2.53515625 107.24487305 C-1.60385191 101.17603615 -1.89864429 95.01668721 -1.9375 88.89453125 C-1.94191174 87.52406487 -1.9457267 86.15359646 -1.94897461 84.78312683 C-1.96034132 80.45955477 -1.97960086 76.13603763 -2 71.8125 C-2.02363832 66.7890785 -2.04400074 61.76568782 -2.05593872 56.74222374 C-2.06240348 54.73697063 -2.07497869 52.73174024 -2.08764648 50.72651672 C-2.09094971 49.50812607 -2.09425293 48.28973541 -2.09765625 47.03442383 C-2.10289307 45.96299637 -2.10812988 44.89156891 -2.11352539 43.78767395 C-2.01410191 41.34627971 -1.70812565 39.32676421 -1 37 C-1.66 36.67 -2.32 36.34 -3 36 C-2.835 35.02675781 -2.67 34.05351562 -2.5 33.05078125 C-1.88569707 28.74741621 -1.9305477 24.52527929 -2 20.1875 C-2.05223225 13.7140074 -1.91767178 7.42370243 -1 1 C-0.67 0.67 -0.34 0.34 0 0 Z " fill="#111111" transform="translate(839,366)"/>
<path d="M0 0 C2.86724686 0.57344937 3.8614515 0.8614515 6 3 C6.26171303 5.30758858 6.26171303 5.30758858 6.2784729 8.2517395 C6.29521812 9.921866 6.29521812 9.921866 6.31230164 11.62573242 C6.31446182 12.85283936 6.31662201 14.07994629 6.31884766 15.34423828 C6.32889328 16.63200165 6.3389389 17.91976501 6.34928894 19.24655151 C6.37665482 22.78349763 6.39175772 26.32040377 6.40471697 29.85742807 C6.42031882 33.55171719 6.44711835 37.24592432 6.4727478 40.94015503 C6.51958794 47.9382528 6.55630662 54.93636591 6.58942068 61.93454063 C6.62760517 69.90062867 6.67702489 77.86663449 6.72740483 85.83265328 C6.83080251 102.22171087 6.91963877 118.61081309 7 135 C10.63 131.7 14.26 128.4 18 125 C18 128 18 128 15.953125 130.4453125 C15.06109375 131.32960938 14.1690625 132.21390625 13.25 133.125 C12.36828125 134.01445312 11.4865625 134.90390625 10.578125 135.8203125 C8.09338361 137.9210484 7.04974125 138.39669218 4 139 C3.99761165 138.30608973 3.99522329 137.61217945 3.99276257 136.89724159 C3.93368575 120.030781 3.85818305 103.16448268 3.76428509 86.29818153 C3.71927532 78.14183466 3.67987277 69.98553196 3.65356445 61.82910156 C3.63062615 54.72185986 3.59727526 47.61475734 3.55129844 40.50762594 C3.5273096 36.74269934 3.5086181 32.97791105 3.50238609 29.2129097 C3.49524267 25.01494857 3.4648576 20.81747038 3.43237305 16.61962891 C3.43380814 15.36446976 3.43524323 14.10931061 3.4367218 12.81611633 C3.42418365 11.67745621 3.41164551 10.53879608 3.39872742 9.3656311 C3.39411845 8.37193827 3.38950949 7.37824543 3.38476086 6.35444069 C3.25778977 5.57747526 3.13081869 4.80050983 3 4 C2.01 3.34 1.02 2.68 0 2 C0 1.34 0 0.68 0 0 Z " fill="#111111" transform="translate(854,360)"/>
<path d="M0 0 C0.495 1.485 0.495 1.485 1 3 C-0.68416016 2.91298828 -0.68416016 2.91298828 -2.40234375 2.82421875 C-12.21343938 2.45909863 -19.04476608 2.48652112 -26.546875 9.43212891 C-29.97053271 12.6859779 -33.2712085 16.04583226 -36.52905273 19.46484375 C-38.65052892 21.67892545 -40.8264098 23.83722368 -43 26 C-44.00353516 27.0209375 -44.00353516 27.0209375 -45.02734375 28.0625 C-47.96005013 31.03718786 -50.8528129 33.96020947 -54.125 36.5625 C-57.05018664 39.04254954 -59.32907474 41.651441 -61.703125 44.64453125 C-62.13109375 45.09183594 -62.5590625 45.53914063 -63 46 C-63.66 46 -64.32 46 -65 46 C-65.25740967 46.58193115 -65.51481934 47.1638623 -65.7800293 47.76342773 C-67.10630587 50.19489054 -68.56725452 51.82586685 -70.51953125 53.78515625 C-71.55883789 54.82833008 -71.55883789 54.82833008 -72.61914062 55.89257812 C-73.34294922 56.60865234 -74.06675781 57.32472656 -74.8125 58.0625 C-75.52470703 58.78244141 -76.23691406 59.50238281 -76.97070312 60.24414062 C-80.44834815 63.70891739 -83.63640979 66.67068138 -88 69 C-89.1265503 69.86751704 -90.23471052 70.76009975 -91.3125 71.6875 C-92.199375 72.450625 -93.08625 73.21375 -94 74 C-92.40745655 70.07676763 -89.70979348 67.42727448 -86.75585938 64.49707031 C-86.22233353 63.96003983 -85.68880768 63.42300934 -85.13911438 62.8697052 C-83.37898231 61.10078929 -81.61165782 59.3392671 -79.84375 57.578125 C-78.61799315 56.35102094 -77.39253333 55.12362012 -76.1673584 53.89593506 C-73.6016291 51.32725937 -71.03232206 48.76223108 -68.46044922 46.19970703 C-65.15802715 42.9087032 -61.86469605 39.60877079 -58.57396698 36.30607986 C-56.04691581 33.77181756 -53.51514018 31.24231854 -50.98188782 28.71425629 C-49.76513172 27.49883751 -48.54986823 26.28192263 -47.33610535 25.06351471 C-45.64356395 23.36591776 -43.94478542 21.67482511 -42.24414062 19.98535156 C-41.74018265 19.47734512 -41.23622467 18.96933868 -40.71699524 18.44593811 C-37.22853203 15 -37.22853203 15 -35 15 C-35 14.34 -35 13.68 -35 13 C-25.19981 2.63903619 -14.32953767 -3.58238442 0 0 Z " fill="#0C0D10" transform="translate(958,419)"/>
<path d="M0 0 C0.33 0 0.66 0 1 0 C1.33 21.78 1.66 43.56 2 66 C5.96 66.33 9.92 66.66 14 67 C18.56715229 62.43284771 18.60026749 60.30529469 18.609375 54.296875 C18.62591125 53.45908508 18.64244751 52.62129517 18.65948486 51.75811768 C18.70797499 49.08867063 18.72933745 46.41979326 18.75 43.75 C18.77815893 41.93747132 18.80808625 40.1249692 18.83984375 38.3125 C18.91373394 33.87504691 18.96330214 29.43791023 19 25 C19.66 24.67 20.32 24.34 21 24 C22.24134434 30.77277472 22.18377459 37.50534868 22.1875 44.375 C22.20586914 46.14617188 22.20586914 46.14617188 22.22460938 47.953125 C22.25254468 64.67706329 22.25254468 64.67706329 18 69.0625 C12.53321804 70.77086936 7.20403725 70.98956775 1.9375 68.625 C0 67 0 67 -1 65 C-1.1576708 62.41502386 -1.2587814 59.85324433 -1.31640625 57.265625 C-1.3373233 56.48366257 -1.35824036 55.70170013 -1.37979126 54.89604187 C-1.44612383 52.34746374 -1.50492698 49.79879013 -1.5625 47.25 C-1.58301422 46.38907745 -1.60352844 45.52815491 -1.62466431 44.6411438 C-1.76449204 38.76102695 -1.88763892 32.88070186 -2 27 C-2.02481445 25.72302246 -2.04962891 24.44604492 -2.07519531 23.13037109 C-2.12760835 20.06598501 -2.16346402 17.00222256 -2.1875 13.9375 C-2.20047119 13.07866211 -2.21344238 12.21982422 -2.22680664 11.33496094 C-2.23332826 7.11416642 -1.92958319 3.79052509 0 0 Z " fill="#111111" transform="translate(1150,481)"/>
<path d="M0 0 C0.66 0 1.32 0 2 0 C0.37518691 12.77439256 -9.17034648 24.44452126 -18.87890625 32.46875 C-29.73833872 40.30834029 -40.347301 41.85167489 -53.4140625 39.7578125 C-67.47589333 36.78614019 -77.78862793 28.38928336 -85.6796875 16.4609375 C-89 10.7019774 -89 10.7019774 -89 7 C-88.01 7.33 -87.02 7.66 -86 8 C-85.08408618 9.86575037 -84.17258759 11.73381639 -83.28515625 13.61328125 C-77.53255814 24.29667774 -68.49213527 32.14954231 -57 36 C-45.95958002 38.28370331 -34.35354899 38.19252114 -24.41015625 32.5234375 C-12.33162413 24.56795319 -5.40873248 13.17185439 0 0 Z " fill="#111111" transform="translate(472,512)"/>
<path d="M0 0 C4.34930915 -0.43493092 6.39310466 -0.42678447 10.02734375 2.12890625 C13.03622988 4.80080091 14.70282707 7.5989677 16.4375 11.25 C16.7277002 11.85207275 17.01790039 12.45414551 17.31689453 13.07446289 C19.21532073 17.08571975 20.89225623 21.16884861 22.52514648 25.29394531 C28.76171298 41.0242107 36.41481339 56.4978669 52.4453125 64.02734375 C58.25137558 66.23790905 63.27376372 67.25825269 69.5 67.1875 C70.7478125 67.18105469 71.995625 67.17460938 73.28125 67.16796875 C76.939737 67.00272196 80.38979723 66.58154039 84 66 C84 66.66 84 67.32 84 68 C79.24318991 69.86687994 74.87636317 70.38524037 69.8125 70.375 C69.06508545 70.37483887 68.3176709 70.37467773 67.54760742 70.37451172 C61.0777935 70.24209066 55.89621222 68.63205255 50 66 C48.9275 65.7525 47.855 65.505 46.75 65.25 C42.37928436 63.26331107 39.96936033 59.67795769 37 56 C36.00042371 54.9162757 35.00044196 53.8329252 34 52.75 C26.10459948 43.39795025 21.61874074 31.88397995 17.04418945 20.6809082 C16.29251061 18.84837772 15.53113013 17.01983624 14.76953125 15.19140625 C14.33229736 14.12092041 13.89506348 13.05043457 13.44458008 11.94750977 C11.56077494 8.10380867 9.73630196 4.68129729 5.640625 3.07421875 C4.85171875 2.94660156 4.0628125 2.81898438 3.25 2.6875 C2.45078125 2.54699219 1.6515625 2.40648437 0.828125 2.26171875 C0.22484375 2.17535156 -0.3784375 2.08898437 -1 2 C-0.67 1.34 -0.34 0.68 0 0 Z " fill="#111111" transform="translate(492,482)"/>
<path d="M0 0 C0.66 0.33 1.32 0.66 2 1 C2.00808685 1.77594513 2.01617371 2.55189026 2.02450562 3.35134888 C2.1025763 10.67826559 2.18990419 18.00498674 2.28752708 25.33166695 C2.33738744 29.09802724 2.38371796 32.86436089 2.421875 36.63085938 C2.458858 40.26847139 2.50525239 43.90585468 2.55806351 47.54327011 C2.57653856 48.92823127 2.59167174 50.31324133 2.60334396 51.69827652 C2.62032414 53.64416462 2.6504899 55.58992393 2.68115234 57.53564453 C2.69447601 58.64150909 2.70779968 59.74737366 2.7215271 60.88674927 C3.01950336 64.2180422 3.71747503 66.91462269 5 70 C8.1750521 71.58752605 11.53600799 71.281235 15 71 C17.81009519 69.99124788 18.66697708 69.66604583 20 67 C20.11970061 65.15218458 20.1772696 63.3002064 20.20532227 61.44873047 C20.22526749 60.28767792 20.24521271 59.12662537 20.26576233 57.9303894 C20.28247482 56.67203278 20.29918732 55.41367615 20.31640625 54.1171875 C20.33718735 52.83264679 20.35796844 51.54810608 20.37937927 50.22463989 C20.43459049 46.80850641 20.48400388 43.39231255 20.53222656 39.97607422 C20.58244857 36.49050519 20.63813097 33.00502391 20.69335938 29.51953125 C20.80092928 22.67976358 20.90237684 15.83991666 21 9 C21.33 9 21.66 9 22 9 C22.06948567 16.90156605 22.12280364 24.80300463 22.15543652 32.70480061 C22.17109805 36.37386676 22.19234475 40.04272401 22.22631836 43.71166992 C22.25889514 47.25188947 22.27684934 50.79190799 22.28463173 54.33226585 C22.29287924 56.34147655 22.31630137 58.35060628 22.33988953 60.35969543 C22.34011612 61.58073471 22.34034271 62.80177399 22.34057617 64.05981445 C22.34723801 65.13681107 22.35389984 66.21380768 22.36076355 67.32344055 C22 70 22 70 20.66621399 71.8087616 C16.37781308 74.87469903 11.03355531 74.5783899 6 74 C0.38028169 71.14084507 0.38028169 71.14084507 -1 67 C-1.09032125 65.65541598 -1.12788368 64.3068419 -1.12939453 62.95922852 C-1.13254669 62.15151505 -1.13569885 61.34380157 -1.13894653 60.51161194 C-1.1369223 59.64281906 -1.13489807 58.77402618 -1.1328125 57.87890625 C-1.13376923 56.98259995 -1.13472595 56.08629364 -1.13571167 55.16282654 C-1.13639211 53.2673231 -1.13454726 51.37181732 -1.13037109 49.47631836 C-1.1250272 46.57725779 -1.13031744 43.67835258 -1.13671875 40.77929688 C-1.13605782 38.93749966 -1.13477636 37.09570254 -1.1328125 35.25390625 C-1.13483673 34.3871376 -1.13686096 33.52036896 -1.13894653 32.62733459 C-1.13579437 31.81646896 -1.13264221 31.00560333 -1.12939453 30.17016602 C-1.12859894 29.45973648 -1.12780334 28.74930695 -1.12698364 28.01734924 C-0.99414677 25.90701162 -0.57440755 24.03105934 0 22 C-0.66 21.67 -1.32 21.34 -2 21 C-1.34 21 -0.68 21 0 21 C0 18.69 0 16.38 0 14 C-0.66 13.67 -1.32 13.34 -2 13 C-1.34 13 -0.68 13 0 13 C0 8.71 0 4.42 0 0 Z " fill="#111111" transform="translate(321,477)"/>
<path d="M0 0 C0.495 1.485 0.495 1.485 1 3 C-16.16 20.16 -33.32 37.32 -51 55 C-46.94008373 60.4132217 -43.99958354 64.21987786 -39.125 68.5 C-38.15820312 69.3559375 -37.19140625 70.211875 -36.1953125 71.09375 C-35.10863281 72.03734375 -35.10863281 72.03734375 -34 73 C-34.33 73.99 -34.66 74.98 -35 76 C-36.29854721 74.92492371 -37.58858361 73.83956264 -38.875 72.75 C-39.59429688 72.14671875 -40.31359375 71.5434375 -41.0546875 70.921875 C-43 69 -43 69 -44.0078125 66.890625 C-45.28094902 64.46464832 -46.5604507 64.14640475 -49 63 C-50.703125 61.2734375 -50.703125 61.2734375 -52.25 59.375 C-52.77078125 58.74335938 -53.2915625 58.11171875 -53.828125 57.4609375 C-54.21484375 56.97882813 -54.6015625 56.49671875 -55 56 C-53.41987986 52.50116255 -52.39126684 51.69563342 -49 50 C-48.31513275 48.67592331 -47.65129797 47.34090759 -47 46 C-43.88930429 42.59767657 -40.44753912 39.62013886 -37 36.5625 C-33.27394223 33.23388839 -30.10259662 29.90040717 -27 26 C-22.48387097 21.16129032 -22.48387097 21.16129032 -19 20 C-19 19.34 -19 18.68 -19 18 C-17.63671875 16.66015625 -17.63671875 16.66015625 -15.6875 15.0625 C-10.13853658 10.36032633 -5.09624567 5.18055856 0 0 Z " fill="#111111" transform="translate(959,425)"/>
<path d="M0 0 C3.73035921 0.56495418 5.37287845 2.04826007 7.9375 4.75 C8.63101563 5.47058594 9.32453125 6.19117188 10.0390625 6.93359375 C10.68617188 7.61550781 11.33328125 8.29742187 12 9 C12.928125 9.928125 13.85625 10.85625 14.8125 11.8125 C15.8953125 12.8953125 15.8953125 12.8953125 17 14 C17.598125 14.556875 18.19625 15.11375 18.8125 15.6875 C20 17 20 17 20 19 C20.556875 19.226875 21.11375 19.45375 21.6875 19.6875 C24.66159588 21.37550036 26.72008865 23.46676517 29 26 C29 26.66 29 27.32 29 28 C29.59022949 28.26570801 30.18045898 28.53141602 30.78857422 28.80517578 C33.05706043 30.03082951 34.56188232 31.30368752 36.3828125 33.1171875 C37.29740234 34.02791016 37.29740234 34.02791016 38.23046875 34.95703125 C38.85566406 35.58996094 39.48085938 36.22289062 40.125 36.875 C40.75792969 37.50019531 41.39085937 38.12539063 42.04296875 38.76953125 C42.65011719 39.37925781 43.25726562 39.98898437 43.8828125 40.6171875 C44.43340332 41.17003418 44.98399414 41.72288086 45.55126953 42.29248047 C47.07881282 44.09289128 48.03375725 45.85364028 49 48 C43.85622608 50.1213972 39.67879188 50.18031695 34.25 49.8125 C33.48300781 49.78091797 32.71601562 49.74933594 31.92578125 49.71679688 C29.703125 49.58203125 29.703125 49.58203125 26 49 C25.34 48.01 24.68 47.02 24 46 C29.94 45.67 35.88 45.34 42 45 C42 44.01 42 43.02 42 42 C41.34 42 40.68 42 40 42 C37.875 40.125 37.875 40.125 36 38 C36 37.34 36 36.68 36 36 C35.4225 35.7525 34.845 35.505 34.25 35.25 C31.65624685 33.80902603 30.03447778 32.15777947 28 30 C27.154375 29.154375 26.30875 28.30875 25.4375 27.4375 C24.633125 26.633125 23.82875 25.82875 23 25 C22.401875 24.443125 21.80375 23.88625 21.1875 23.3125 C20 22 20 22 20 20 C19.42024414 19.74476563 18.84048828 19.48953125 18.24316406 19.2265625 C15.76984688 17.87415223 14.10397891 16.36267476 12.109375 14.375 C11.04589844 13.31539062 11.04589844 13.31539062 9.9609375 12.234375 C9.23132813 11.49703125 8.50171875 10.7596875 7.75 10 C7.00492188 9.26265625 6.25984375 8.5253125 5.4921875 7.765625 C4.78835938 7.05921875 4.08453125 6.3528125 3.359375 5.625 C2.71452148 4.97789062 2.06966797 4.33078125 1.40527344 3.6640625 C0 2 0 2 0 0 Z " fill="#111111" transform="translate(926,502)"/>
<path d="M0 0 C0.33 0.99 0.66 1.98 1 3 C2.6635479 3.67441131 4.33066942 4.3400321 6 5 C9.44334775 7.36115274 10.47110676 9.82696845 11.5 13.75 C12.27805053 18.41141777 11.69895248 21.33507919 9.27734375 25.37109375 C7.4541519 27.69608152 5.73637948 28.90544821 3 30 C1.68 30 0.36 30 -1 30 C-1.33 30.66 -1.66 31.32 -2 32 C-2 31.34 -2 30.68 -2 30 C-2.86625 30.103125 -3.7325 30.20625 -4.625 30.3125 C-9.13862642 29.89457163 -10.83958608 28.16041392 -14 25 C-16.73648742 20.550881 -16.64948601 16.0756129 -16 11 C-13.8338521 6.5874765 -11.56138 3.90941488 -7 2 C-3.1875 1.8125 -3.1875 1.8125 0 2 C0 1.34 0 0.68 0 0 Z M-9 6 C-12.47375158 10.08676656 -13.77902408 13.7032073 -14.17578125 18.94921875 C-14.16146428 21.22911993 -14.16146428 21.22911993 -12.1875 23.4375 C-11.465625 23.953125 -10.74375 24.46875 -10 25 C-9.34 25.66 -8.68 26.32 -8 27 C-3.17335657 28.1262168 -1.1511672 28.58644367 3.3125 26.3125 C7.57747027 22.92113697 7.57747027 22.92113697 9.17578125 17.96875 C9.18629402 15.97833182 9.09939813 13.98796254 9 12 C8.34 12 7.68 12 7 12 C6.79375 11.21625 6.5875 10.4325 6.375 9.625 C5.20753005 6.75063478 5.20753005 6.75063478 2.1875 5.6875 C-2.04589155 4.77441555 -4.88424781 4.6280826 -9 6 Z " fill="#D4AF37" transform="translate(729,468)"/>
<path d="M0 0 C1.26650391 0.94746094 1.26650391 0.94746094 2.55859375 1.9140625 C8.92112744 7.35021129 13.88135487 15.2711838 17 23 C16.58984375 25.22265625 16.58984375 25.22265625 16 27 C15.62230469 26.20078125 15.24460937 25.4015625 14.85546875 24.578125 C6.0105052 6.9296263 -7.25509323 -4.6515393 -26.0703125 -11.04296875 C-37.77477557 -14.10568452 -50.00304562 -13.27554842 -62 -13 C-61.67 -13.99 -61.34 -14.98 -61 -16 C-37.70013907 -18.77615364 -18.66424466 -14.77586035 0 0 Z " fill="#111111" transform="translate(1262,436)"/>
<path d="M0 0 C0.33 0 0.66 0 1 0 C0.29043282 14.42786609 -8.0043183 28.00387223 -18.3671875 37.8046875 C-32.27221396 49.39908642 -47.11940274 54.44415582 -65 56 C-64.67 55.01 -64.34 54.02 -64 53 C-63.15179687 52.91363281 -62.30359375 52.82726562 -61.4296875 52.73828125 C-49.16363509 51.2690508 -38.29959581 47.97837672 -27.890625 41.13671875 C-26 40 -26 40 -24 40 C-23.67 39.01 -23.34 38.02 -23 37 C-21.3984375 35.52734375 -21.3984375 35.52734375 -19.375 33.9375 C-8.996084 25.08107258 -3.97004832 12.74594461 0 0 Z " fill="#111111" transform="translate(796,497)"/>
<path d="M0 0 C3.96032845 1.58413138 6.54605078 4.35230206 9.4375 7.375 C12.12803897 10.16629424 14.78500002 12.83189302 17.84765625 15.2265625 C18.91306641 16.10441406 18.91306641 16.10441406 20 17 C20 17.66 20 18.32 20 19 C20.5561499 19.22872803 21.1122998 19.45745605 21.68530273 19.69311523 C24.65121713 21.36767908 26.65810641 23.46989984 29.03515625 25.91015625 C29.51391708 26.39649033 29.99267792 26.8828244 30.48594666 27.38389587 C32.51949209 29.44978496 34.54127265 31.5270273 36.56323242 33.60424805 C43.36975288 40.5803458 50.29971054 46.99553439 58 53 C56.21191406 53.66772461 56.21191406 53.66772461 54 54 C52.29589844 52.95532227 52.29589844 52.95532227 50.609375 51.31640625 C49.98571045 50.72174561 49.3620459 50.12708496 48.71948242 49.5144043 C48.06955322 48.87027588 47.41962402 48.22614746 46.75 47.5625 C46.08266846 46.92030518 45.41533691 46.27811035 44.7277832 45.61645508 C40.56269755 41.59336674 36.44108967 37.52068665 32.41796875 33.35546875 C31.02302691 31.88869089 31.02302691 31.88869089 29 31 C29 30.34 29 29.68 29 29 C28.34 29 27.68 29 27 29 C27 28.34 27 27.68 27 27 C26.44280273 26.76732422 25.88560547 26.53464844 25.31152344 26.29492188 C22.40076355 24.66430607 20.37818867 22.63760806 18.015625 20.28125 C16.61376953 18.88326172 16.61376953 18.88326172 15.18359375 17.45703125 C14.7026123 16.97186035 14.22163086 16.48668945 13.72607422 15.98681641 C12.24795152 14.49793661 10.75940089 13.02008349 9.26953125 11.54296875 C8.34011719 10.61097656 7.41070313 9.67898438 6.453125 8.71875 C5.59879883 7.86216797 4.74447266 7.00558594 3.86425781 6.12304688 C2 4 2 4 2 2 C1.34 2 0.68 2 0 2 C0 1.34 0 0.68 0 0 Z " fill="#111111" transform="translate(890,494)"/>
<path d="M0 0 C0.495 0.99 0.495 0.99 1 2 C0.46632813 2.15855469 -0.06734375 2.31710937 -0.6171875 2.48046875 C-19.06200202 8.25644008 -31.63402907 19.04735547 -40.6171875 36.046875 C-41.73544653 38.4350214 -42.46037454 40.4469333 -43 43 C-43.309375 43.5775 -43.61875 44.155 -43.9375 44.75 C-45.49696252 48.05239122 -46.17065148 51.4456492 -47 55 C-47.33 55 -47.66 55 -48 55 C-49.0424273 42.49087239 -42.56651947 30.99760954 -34.93359375 21.40234375 C-27.1224358 12.39573901 -13.0501558 -1.20198803 0 0 Z " fill="#111111" transform="translate(704,419)"/>
<path d="M0 0 C4.09850696 -0.23578551 5.79825009 -0.09804161 9.30859375 2.2421875 C11.95421651 6.21062164 12.23296337 8.47747328 12.30859375 13.2421875 C11.4723058 16.33645292 10.56038896 17.06328038 7.93359375 18.9296875 C2.08856265 21.85220305 -3.71696124 21.42571726 -10.12890625 21.4296875 C-11.16595703 21.44193359 -12.20300781 21.45417969 -13.27148438 21.46679688 C-14.77678711 21.46969727 -14.77678711 21.46969727 -16.3125 21.47265625 C-17.22443115 21.47676514 -18.1363623 21.48087402 -19.07592773 21.48510742 C-21.9310987 21.21992539 -24.0930468 20.42571194 -26.69140625 19.2421875 C-26.69140625 18.9121875 -26.69140625 18.5821875 -26.69140625 18.2421875 C-25.77327148 18.21713135 -24.85513672 18.1920752 -23.90917969 18.16625977 C-20.494836 18.0709848 -17.08065422 17.97175972 -13.66650391 17.86987305 C-12.19031235 17.82662715 -10.7140741 17.78494494 -9.23779297 17.74487305 C-7.11281277 17.68691904 -4.98806532 17.62329804 -2.86328125 17.55859375 C-1.58549805 17.52193604 -0.30771484 17.48527832 1.00878906 17.44750977 C3.62769248 17.28455491 5.81876091 17.01271947 8.30859375 16.2421875 C8.41684218 14.6395093 8.4943002 13.03473002 8.55859375 11.4296875 C8.605 10.53636719 8.65140625 9.64304687 8.69921875 8.72265625 C8.5520835 6.13869838 8.5520835 6.13869838 6.58203125 4.61914062 C4.01474385 3.0642114 2.51891806 2.82585174 -0.45703125 2.73046875 C-1.34648437 2.69501953 -2.2359375 2.65957031 -3.15234375 2.62304688 C-4.07273437 2.60048828 -4.993125 2.57792969 -5.94140625 2.5546875 C-6.87726563 2.52052734 -7.813125 2.48636719 -8.77734375 2.45117188 C-11.08191158 2.36886588 -13.38610744 2.2996612 -15.69140625 2.2421875 C-15.69140625 1.9121875 -15.69140625 1.5821875 -15.69140625 1.2421875 C-10.46363755 0.78970675 -5.22569403 0.47023662 0 0 Z " fill="#0C0D0F" transform="translate(288.69140625,530.7578125)"/>
<path d="M0 0 C1.7734375 1.515625 1.7734375 1.515625 3 3 C1.64068359 3.05607422 1.64068359 3.05607422 0.25390625 3.11328125 C-6.99716097 3.50460869 -13.26871663 4.26588048 -20 7 C-20.99 7.33 -21.98 7.66 -23 8 C-23 8.66 -23 9.32 -23 10 C-24.1688881 11.13450904 -25.33795329 12.2688361 -26.5078125 13.40234375 C-34.19450367 21.63233509 -38.2597196 32.56658626 -42 43 C-42.66 43 -43.32 43 -44 43 C-43.47322513 37.26567925 -41.87061676 32.79229216 -39.375 27.625 C-39.01672119 26.87694092 -38.65844238 26.12888184 -38.28930664 25.3581543 C-32.91736131 14.45176496 -25.74988294 5.13421807 -14 1 C-9.59359332 -0.27553878 -4.54464244 -0.71488758 0 0 Z " fill="#0B0C0E" transform="translate(499,463)"/>
<path d="M0 0 C0 0.66 0 1.32 0 2 C-0.78375 2.28875 -1.5675 2.5775 -2.375 2.875 C-5.09671632 3.84912254 -5.09671632 3.84912254 -7 6 C-7.65801021 11.39380428 -7.65801021 11.39380428 -5.5 16.0625 C2.06903869 18.90088951 11.29545005 13.96221095 18.375 11.375 C20.71366229 10.52180724 23.05469946 9.67508658 25.3984375 8.8359375 C26.42630371 8.46001465 27.45416992 8.0840918 28.51318359 7.69677734 C31 7 31 7 33 8 C29.08415938 12.65136671 22.87575663 13.78035844 17.3125 15.6875 C16.15298828 16.10322266 14.99347656 16.51894531 13.79882812 16.94726562 C7.67168948 19.06860015 2.49534348 20.75754006 -4 20 C-7.2561101 18.10553594 -9.3487671 16.69599157 -10.73046875 13.09765625 C-11.51563908 9.04742116 -11.15945233 7.3024096 -9.1875 3.5625 C-6.10616515 -0.04706368 -4.58670574 -0.12070278 0 0 Z " fill="#0B0C0E" transform="translate(1042,483)"/>
<path d="M0 0 C2.45778997 2.45778997 2.51439387 3.87091689 3.1875 7.25 C7.39007638 24.68755574 18.13195714 37.86555862 33.1875 47.3828125 C34.76940261 48.29495795 36.38105985 49.15533558 38 50 C38 50.66 38 51.32 38 52 C21.40566396 47.16504704 10.85945049 32.35349388 2.75 18.0625 C1.30474468 15.5333032 -0.18427965 13.26965044 -2 11 C-1.34 11 -0.68 11 0 11 C0 7.37 0 3.74 0 0 Z " fill="#111111" transform="translate(210,494)"/>
<path d="M0 0 C-1.45480738 2.90961476 -3.36306748 3.05318608 -6.375 4.1875 C-26.15249169 12.24846818 -35.83515978 25.50215736 -45 44 C-45.33 44 -45.66 44 -46 44 C-45.49006169 32.52638805 -37.75308281 23.79210839 -30 16 C-29.33484375 15.30003906 -28.6696875 14.60007812 -27.984375 13.87890625 C-23.40235536 9.39307404 -18.42317576 6.3863188 -12.75 3.5 C-12.06413818 3.14921387 -11.37827637 2.79842773 -10.67163086 2.43701172 C-6.98983143 0.65432139 -4.10996371 -0.44604257 0 0 Z " fill="#111111" transform="translate(1038,423)"/>
<path d="M0 0 C0.33 0 0.66 0 1 0 C1 21.12 1 42.24 1 64 C0.34 63.67 -0.32 63.34 -1 63 C-2.09039426 27.89278475 -2.09039426 27.89278475 -2.1875 14.0625 C-2.20039062 13.19608887 -2.21328125 12.32967773 -2.2265625 11.43701172 C-2.23351797 7.16026635 -1.99274839 3.89885555 0 0 Z " fill="#111111" transform="translate(1150,481)"/>
<path d="M0 0 C3.61047264 0.62988461 6.82741417 1.64180679 10.25 2.9375 C23.06876351 7.25754898 36.60613975 7.32448114 50 7 C47.07284185 9.92715815 44.2744814 9.94778096 40.22924805 10.11352539 C39.24996338 10.10828857 38.27067871 10.10305176 37.26171875 10.09765625 C36.19501953 10.09443359 35.12832031 10.09121094 34.02929688 10.08789062 C32.37510742 10.07532227 32.37510742 10.07532227 30.6875 10.0625 C29.56537109 10.05798828 28.44324219 10.05347656 27.28710938 10.04882812 C24.5246849 10.03707313 21.76237002 10.02064077 19 10 C19 9.34 19 8.68 19 8 C17.63875 7.9071875 17.63875 7.9071875 16.25 7.8125 C10.49232998 7.02898202 5.26385624 4.34237281 0 2 C0 1.34 0 0.68 0 0 Z " fill="#0C0E10" transform="translate(1022,542)"/>
<path d="M0 0 C0.66 0 1.32 0 2 0 C2.44730469 0.95261719 2.89460937 1.90523438 3.35546875 2.88671875 C3.9655978 4.15390985 4.57630585 5.42082228 5.1875 6.6875 C5.62545898 7.62625977 5.62545898 7.62625977 6.07226562 8.58398438 C8.14612601 12.84320302 10.5457549 15.68893604 14 19 C14 19.66 14 20.32 14 21 C14.54140625 21.26941406 15.0828125 21.53882813 15.640625 21.81640625 C17.34265319 22.67023827 19.04002113 23.53338227 20.734375 24.40234375 C26.40511518 27.28913247 31.98566258 29.91811397 38 32 C38 32.33 38 32.66 38 33 C27.42682553 32.95412939 18.46042722 28.46042722 11 21 C0 7.39807692 0 7.39807692 0 0 Z " fill="#111111" transform="translate(231,499)"/>
<path d="M0 0 C8.69470072 0.78638078 16.9472342 7.08174011 23 13 C23 13.66 23 14.32 23 15 C23.66 15 24.32 15 25 15 C31.70387244 27.48519362 31.70387244 27.48519362 32 34 C30.5 32.6875 30.5 32.6875 29 31 C29 30.01 29 29.02 29 28 C28.01 28 27.02 28 26 28 C26.33 27.01 26.66 26.02 27 25 C22.61295071 15.11425092 13.74457552 7.75001285 3.875 3.9375 C1.92444389 3.26854484 -0.03145767 2.61401242 -2 2 C-1.34 1.34 -0.68 0.68 0 0 Z " fill="#111111" transform="translate(289,441)"/>
<path d="M0 0 C9.08867514 0.8662227 15.4566407 7.89345269 21.1875 14.5625 C24.47312819 18.88891724 27.03232224 23.48938631 29.5 28.3125 C29.8508667 28.99449463 30.2017334 29.67648926 30.56323242 30.37915039 C32.3529193 34.04744427 33.44419011 36.89917348 33 41 C29.91753734 39.45876867 29.7547539 36.99667898 28.625 33.8125 C26.8469802 29.00076689 25.00539233 25.1185006 22 21 C22 20.34 22 19.68 22 19 C21.34 19 20.68 19 20 19 C18.7734375 17.4609375 18.7734375 17.4609375 17.375 15.375 C13.3347418 9.79747283 8.18213733 6.42645357 2.5 2.6875 C1.675 2.130625 0.85 1.57375 0 1 C0 0.67 0 0.34 0 0 Z " fill="#111111" transform="translate(763,425)"/>
<path d="M0 0 C7.48950864 0.87955084 12.43663305 6.79707044 16.95703125 12.4453125 C20.68483656 17.9486639 23.40767435 23.83973873 26 29.9375 C26.31541748 30.67162109 26.63083496 31.40574219 26.95581055 32.16210938 C28.47073581 35.9025803 29.25033892 38.15169921 28 42 C25.51375036 38.6564229 23.79527886 35.73881894 22.5625 31.75 C18.80726408 19.73728295 12.61867346 9.91170412 2 3 C1.34 2.67 0.68 2.34 0 2 C0 1.34 0 0.68 0 0 Z " fill="#111111" transform="translate(505,466)"/>
<path d="M0 0 C0.33 0.99 0.66 1.98 1 3 C2.6635479 3.67441131 4.33066942 4.3400321 6 5 C9.44334775 7.36115274 10.47110676 9.82696845 11.5 13.75 C12.27805053 18.41141777 11.69895248 21.33507919 9.27734375 25.37109375 C7.4541519 27.69608152 5.73637948 28.90544821 3 30 C1.68 30 0.36 30 -1 30 C-1.33 30.66 -1.66 31.32 -2 32 C-2 31.34 -2 30.68 -2 30 C-3.98 30 -5.96 30 -8 30 C-8 29.67 -8 29.34 -8 29 C-4.04 28.67 -0.08 28.34 4 28 C4.33 26.68 4.66 25.36 5 24 C5.495 23.4225 5.99 22.845 6.5 22.25 C8.70934375 18.93598437 8.67114911 15.94621066 9 12 C8.34 12 7.68 12 7 12 C6.7525 11.21625 6.505 10.4325 6.25 9.625 C5.24021043 6.95803866 5.24021043 6.95803866 3.25 5.75 C0.52116097 4.84038699 -2.1558247 4.41477556 -5 4 C-6.33737094 3.68325425 -7.67288808 3.35729936 -9 3 C-6.04335481 1.5216774 -3.25770263 1.93967217 0 2 C0 1.34 0 0.68 0 0 Z " fill="#D4AF37" transform="translate(729,468)"/>
<path d="M0 0 C4.71743704 0.51430705 7.97264039 2.69265025 11.75 5.375 C12.33910156 5.77460938 12.92820312 6.17421875 13.53515625 6.5859375 C17.87232299 9.61696897 17.87232299 9.61696897 19 13 C19.58394531 13.25394531 20.16789062 13.50789063 20.76953125 13.76953125 C24.09918267 15.60637923 25.70731299 18.55247575 27.6875 21.6875 C28.09033203 22.28755859 28.49316406 22.88761719 28.90820312 23.50585938 C31.60467394 27.71090849 32.62262266 31.01733986 33 36 C30.8179857 33.19363353 28.9656169 30.32619123 27.1875 27.25 C20.17347672 15.58277103 12.08401694 8.44480904 0 2 C0 1.34 0 0.68 0 0 Z " fill="#111111" transform="translate(305,427)"/>
<path d="M0 0 C0.33 0.99 0.66 1.98 1 3 C2.26972656 2.95359375 3.53945312 2.9071875 4.84765625 2.859375 C18.37892444 2.51759633 29.81301673 3.57514024 42 10 C41.67 10.99 41.34 11.98 41 13 C39.92621094 12.57847656 38.85242187 12.15695312 37.74609375 11.72265625 C36.31004434 11.16888556 34.87383798 10.61552176 33.4375 10.0625 C32.38079102 9.64581055 32.38079102 9.64581055 31.30273438 9.22070312 C23.06884472 6.07133519 15.29290426 5.86365793 6.5625 5.9375 C5.54478516 5.94201172 4.52707031 5.94652344 3.47851562 5.95117188 C0.98561491 5.96287563 -1.50716074 5.97927152 -4 6 C-3.01 5.34 -2.02 4.68 -1 4 C-2.32 3.34 -3.64 2.68 -5 2 C-3.35 2 -1.7 2 0 2 C0 1.34 0 0.68 0 0 Z " fill="#111111" transform="translate(1045,417)"/>
<path d="M0 0 C-2.44530134 1.4810795 -4.89254679 2.94057645 -7.39453125 4.32421875 C-19.52298647 11.16239463 -25.0352034 19.81658567 -31 32 C-31.99134419 29.38260955 -32.09832287 28.265213 -31.109375 25.59765625 C-28.35105456 20.45354715 -28.35105456 20.45354715 -27 18 C-26.566875 17.113125 -26.13375 16.22625 -25.6875 15.3125 C-20.92255705 8.78276337 -8.47151868 -2.82383956 0 0 Z " fill="#111111" transform="translate(263,442)"/>
<path d="M0 0 C-2.48515203 2.93163697 -4.99316422 3.9283685 -8.5625 5.25 C-18.93835297 9.4503453 -26.3963474 15.90045701 -34 24 C-34.33 23.01 -34.66 22.02 -35 21 C-28.23357567 11.04937599 -12.41945491 -0.68750554 0 0 Z " fill="#090B0D" transform="translate(1199,422)"/>
<path d="M0 0 C0.33 0.66 0.66 1.32 1 2 C2.66666667 2.33333333 4.33333333 2.66666667 6 3 C8.02237052 3.95394836 10.0282696 4.94535351 12 6 C11.67 6.66 11.34 7.32 11 8 C10.28714844 7.78601563 9.57429688 7.57203125 8.83984375 7.3515625 C3.43605882 5.78570822 3.43605882 5.78570822 -1.796875 6.95703125 C-2.85601358 7.99160218 -3.89089318 9.05133394 -4.90625 10.12890625 C-7.73276786 12.65484292 -10.93360519 14.22456444 -14.3125 15.875 C-14.93616455 16.18493896 -15.5598291 16.49487793 -16.20239258 16.81420898 C-20.71270606 19 -20.71270606 19 -23 19 C-23 18.01 -23 17.02 -23 16 C-22.23816406 15.72027344 -21.47632813 15.44054687 -20.69140625 15.15234375 C-9.0832604 10.64880912 -9.0832604 10.64880912 -0.7578125 1.78515625 C-0.50773437 1.19605469 -0.25765625 0.60695313 0 0 Z " fill="#0C0D10" transform="translate(1094,513)"/>
<path d="M0 0 C3 1 3 1 4.02734375 2.671875 C4.32769531 3.35765625 4.62804687 4.0434375 4.9375 4.75 C6.56843132 8.26374392 8.53102635 11.00196056 11 14 C11 14.66 11 15.32 11 16 C11.57234375 16.26941406 12.1446875 16.53882813 12.734375 16.81640625 C15.06000393 18.03134688 17.10853807 19.42384076 19.25 20.9375 C23.37084469 23.73256713 27.27778127 25.4545466 32 27 C32 27.66 32 28.32 32 29 C23.65502482 28.34118617 15.89269879 23.75877381 10 18 C0 6.11557789 0 6.11557789 0 0 Z " fill="#111111" transform="translate(1012,502)"/>
<path d="M0 0 C0.33 0 0.66 0 1 0 C1.14584064 3.22868746 1.23424106 6.45652365 1.3125 9.6875 C1.35439453 10.59951172 1.39628906 11.51152344 1.43945312 12.45117188 C1.52270862 17.03022409 1.5051818 19.28738072 -1.20703125 23.11328125 C-5.4908746 26.00712228 -9.00925511 25.7854287 -14 25 C-17.125 23.5 -17.125 23.5 -19 22 C-15.71480525 20.90493508 -13.26336585 20.90039392 -9.8125 20.9375 C-8.18248047 20.95103516 -8.18248047 20.95103516 -6.51953125 20.96484375 C-5.68808594 20.97644531 -4.85664062 20.98804688 -4 21 C-1.53283162 17.1943678 -1.59748027 13.20220259 -1.4375 8.8125 C-1.12123631 1.12123631 -1.12123631 1.12123631 0 0 Z " fill="#111111" transform="translate(859,526)"/>
<path d="M0 0 C0.66 0 1.32 0 2 0 C1.18720764 4.67355607 -0.37483533 8.86353953 -2.0625 13.28125 C-3.54667035 17.58534402 -4.12554317 21.53646344 -4.09765625 26.08203125 C-4.09443359 27.01337891 -4.09121094 27.94472656 -4.08789062 28.90429688 C-4.07951172 29.86400391 -4.07113281 30.82371094 -4.0625 31.8125 C-4.05798828 32.79154297 -4.05347656 33.77058594 -4.04882812 34.77929688 C-4.03708684 37.18626111 -4.02066419 39.59309857 -4 42 C-6 41 -6 41 -6.60571289 39.18652344 C-9.16345506 25.00253655 -6.33428575 12.6685715 0 0 Z " fill="#0F0E0F" transform="translate(682,456)"/>
<path d="M0 0 C-2.26023148 1.83643808 -4.5089518 3.65919037 -6.90234375 5.3203125 C-11.48459399 8.53932131 -14.65057786 11.80281726 -17.7734375 16.4609375 C-18.17820313 16.96882813 -18.58296875 17.47671875 -19 18 C-19.66 18 -20.32 18 -21 18 C-21.268125 18.721875 -21.53625 19.44375 -21.8125 20.1875 C-22.99901362 22.99766383 -24.27485639 25.48416557 -26 28 C-26.66 28 -27.32 28 -28 28 C-26.56745036 22.26980145 -23.67615838 18.47496885 -20 14 C-19.08154297 12.86111328 -19.08154297 12.86111328 -18.14453125 11.69921875 C-6.47596785 -2.15865595 -6.47596785 -2.15865595 0 0 Z " fill="#090B0D" transform="translate(243,430)"/>
<path d="M0 0 C0.33 0.66 0.66 1.32 1 2 C0.05055823 3.45807129 -0.90368484 4.91325773 -1.8828125 6.3515625 C-2.82254163 7.73815583 -3.72795002 9.14792119 -4.625 10.5625 C-9.11127979 15.16683979 -14.10515299 17.7446662 -20.54296875 18.3125 C-23.71150373 18.3125 -26.83988399 18.22289219 -30 18 C-30 17.34 -30 16.68 -30 16 C-28.98292969 15.97873047 -28.98292969 15.97873047 -27.9453125 15.95703125 C-19.99237911 15.54947095 -13.03875421 13.8853838 -7.1484375 8.21875 C-6.14934753 7.05724639 -5.17933089 5.86944554 -4.25390625 4.6484375 C-2.95694119 2.94339309 -1.54206958 1.48362379 0 0 Z " fill="#111111" transform="translate(585,515)"/>
<path d="M0 0 C3.875 0.875 3.875 0.875 5 2 C5.09417773 4.08619022 5.11742878 6.17560477 5.11352539 8.26391602 C5.11367142 8.91755127 5.11381744 9.57118652 5.1139679 10.24462891 C5.11326883 12.41442128 5.10547678 14.58412879 5.09765625 16.75390625 C5.09579205 18.25463311 5.09436816 19.75536057 5.09336853 21.25608826 C5.08954352 25.21318226 5.0797134 29.17023978 5.06866455 33.12731934 C5.05845006 37.16234849 5.05387083 41.19738353 5.04882812 45.23242188 C5.03809111 53.15496469 5.0210149 61.07747781 5 69 C4.67 69 4.34 69 4 69 C3.99413376 68.19011627 3.98826752 67.38023254 3.98222351 66.54580688 C3.92438326 58.923257 3.85235739 51.30103726 3.76428509 43.67878151 C3.71950652 39.75983347 3.6802674 35.84099119 3.65356445 31.921875 C3.62760545 28.1415598 3.58725694 24.36164996 3.53681374 20.58158493 C3.52009458 19.13750617 3.50861182 17.69335722 3.50238609 16.2491951 C3.49280059 14.2306338 3.46307672 12.21219819 3.43237305 10.19384766 C3.42126999 9.04357086 3.41016693 7.89329407 3.39872742 6.7081604 C3.26714737 5.81446747 3.13556732 4.92077454 3 4 C2.01 3.34 1.02 2.68 0 2 C0 1.34 0 0.68 0 0 Z " fill="#111111" transform="translate(854,360)"/>
<path d="M0 0 C0.66 0 1.32 0 2 0 C3.19542478 1.68125012 4.30712843 3.42248083 5.375 5.1875 C9.18068799 11.44928178 12.70958913 16.06983046 18.75 20.3125 C19.73484375 21.00988281 20.7196875 21.70726562 21.734375 22.42578125 C22.85585938 23.20501953 22.85585938 23.20501953 24 24 C22.32421875 24.7265625 22.32421875 24.7265625 20 25 C11.20719894 19.98741105 4.8773054 11.69485061 0 3 C0 2.01 0 1.02 0 0 Z " fill="#111111" transform="translate(996,515)"/>
<path d="M0 0 C0.66 0 1.32 0 2 0 C7.39248021 20.59927441 7.39248021 20.59927441 7 31 C4.75527889 27.63291834 3.88930828 24.4311401 2.9375 20.5625 C2.7612207 19.85544922 2.58494141 19.14839844 2.40332031 18.41992188 C0.94741277 12.31556853 0.23766184 6.27427267 0 0 Z " fill="#0D0E11" transform="translate(386,452)"/>
<path d="M0 0 C0 0.66 0 1.32 0 2 C-0.78503906 2.30292969 -1.57007813 2.60585938 -2.37890625 2.91796875 C-12.74059835 7.04993186 -18.95829209 11.37444289 -26 20 C-26.66 19.67 -27.32 19.34 -28 19 C-8.25484765 -4.12742382 -8.25484765 -4.12742382 0 0 Z " fill="#111111" transform="translate(1044,441)"/>
<path d="M0 0 C5.28 0 10.56 0 16 0 C16 0.66 16 1.32 16 2 C11.38 2 6.76 2 2 2 C2.33 3.85625 2.66 5.7125 3 7.625 C3.74533851 11.81752913 4.10233057 15.74048985 4 20 C2 19 2 19 1.3671875 17.28515625 C0.06642099 11.41105986 -0.16945038 6.01548838 0 0 Z " fill="#111111" transform="translate(365,445)"/>
<path d="M0 0 C0.33 0.99 0.66 1.98 1 3 C-3.92122297 12.14785891 -11.50715527 18.33810351 -20 24 C-22.1875 23.625 -22.1875 23.625 -24 23 C-23.35933594 22.56429687 -22.71867188 22.12859375 -22.05859375 21.6796875 C-12.73254977 15.25847689 -6.21686673 9.56150323 0 0 Z " fill="#090A0B" transform="translate(602,524)"/>
<path d="M0 0 C8.36125128 0.78578573 13.79355227 6.52680195 19.30078125 12.4921875 C22.79943426 16.769098 22.79943426 16.769098 24 19 C23.67 19.99 23.34 20.98 23 22 C21.99406757 20.8803014 20.9954151 19.7540588 20 18.625 C19.443125 17.99851562 18.88625 17.37203125 18.3125 16.7265625 C17 15 17 15 17 13 C16.34 13 15.68 13 15 13 C15 12.34 15 11.68 15 11 C14.34 11 13.68 11 13 11 C11.85272106 9.81897756 10.7074606 8.63590442 9.57421875 7.44140625 C7.15596457 5.22717351 4.39633936 3.66403556 1.57421875 2.015625 C1.05472656 1.68046875 0.53523438 1.3453125 0 1 C0 0.67 0 0.34 0 0 Z " fill="#090B0D" transform="translate(1088,430)"/>
<path d="M0 0 C10.84370815 3.17376824 16.06348233 8.62386908 22 18 C22.7578125 20.375 22.7578125 20.375 23 22 C19.34574834 20.78191611 18.91932076 19.70335222 16.9375 16.5 C15.01606433 13.15944875 15.01606433 13.15944875 12 11 C12 10.34 12 9.68 12 9 C11.42765625 8.7215625 10.8553125 8.443125 10.265625 8.15625 C8.03382434 7.01726208 5.89129126 5.80063617 3.75 4.5 C3.04359375 4.0771875 2.3371875 3.654375 1.609375 3.21875 C1.07828125 2.8165625 0.5471875 2.414375 0 2 C0 1.34 0 0.68 0 0 Z " fill="#111111" transform="translate(1235,442)"/>
<path d="M0 0 C6.63074649 7.26224616 7.08716408 18.11228678 7.23046875 27.4140625 C6.98962805 30.11637678 6.26527136 31.63995706 5 34 C4.95512451 33.44127197 4.91024902 32.88254395 4.86401367 32.30688477 C4.64997788 29.72432835 4.41883023 27.14356254 4.1875 24.5625 C4.11724609 23.68400391 4.04699219 22.80550781 3.97460938 21.90039062 C3.48395952 16.58174624 2.51890716 11.9001287 0.6328125 6.89648438 C-0.15228245 4.54362266 -0.2381233 2.46060748 0 0 Z " fill="#0B0A0B" transform="translate(772,459)"/>
<path d="M0 0 C3.74182623 1.24727541 3.89492745 2.22476209 5.6875 5.625 C8.92061338 11.27281962 13.09631284 16.04815642 19 19 C18.67 19.99 18.34 20.98 18 22 C12.77825008 19.77982604 9.57078576 18.25842543 7 13 C5.4578537 10.71138926 3.88224503 8.44789896 2.3046875 6.18359375 C1.04860766 4.08135233 0.44473763 2.39182069 0 0 Z " fill="#111111" transform="translate(534,510)"/>
<path d="M0 0 C0.99322266 -0.020625 1.98644531 -0.04125 3.00976562 -0.0625 C4.44545898 -0.07023437 4.44545898 -0.07023437 5.91015625 -0.078125 C7.21351929 -0.09214355 7.21351929 -0.09214355 8.54321289 -0.10644531 C10.9375 0.25 10.9375 0.25 14.9375 3.25 C4.7075 3.25 -5.5225 3.25 -16.0625 3.25 C-16.0625 2.59 -16.0625 1.93 -16.0625 1.25 C-10.68418013 0.04637555 -5.49039149 0.02861442 0 0 Z " fill="#0C0D0F" transform="translate(276.0625,419.75)"/>
<path d="M0 0 C3.59459922 1.19819974 3.86607696 2.02822456 5.75 5.1875 C8.92059322 10.15740487 12.66405403 14.33202702 18 17 C17.67 17.99 17.34 18.98 17 20 C9.55916982 15.32785082 4.37301057 9.64901162 0 2 C0 1.34 0 0.68 0 0 Z " fill="#090B0C" transform="translate(401,512)"/>
<path d="M0 0 C0.33 0.99 0.66 1.98 1 3 C3.0622048 3.054348 5.12482816 3.09294961 7.1875 3.125 C8.33605469 3.14820313 9.48460937 3.17140625 10.66796875 3.1953125 C13.91740372 3.00484152 16.08660521 2.39360127 19 1 C18.04120802 3.39697994 17.42697796 4.73603315 15.19921875 6.11328125 C11.51471241 7.59886373 7.90706424 7.47969294 4 7 C0.9375 5.5 0.9375 5.5 -1 4 C-0.67 2.68 -0.34 1.36 0 0 Z " fill="#0C0E0F" transform="translate(1264,544)"/>
<path d="M0 0 C0.33 0 0.66 0 1 0 C1.28875 0.969375 1.5775 1.93875 1.875 2.9375 C2.64214682 6.10664203 2.64214682 6.10664203 5 7 C10.51360004 7.36154754 13.37795222 7.26262196 18 4 C18.66 4 19.32 4 20 4 C19.04972793 6.37568017 18.42917912 7.73093406 16.23046875 9.109375 C12.25082815 10.6984434 8.20587057 10.58433743 4 10 C0.875 8 0.875 8 -1 6 C-0.67 4.02 -0.34 2.04 0 0 Z " fill="#111111" transform="translate(323,541)"/>
<path d="M0 0 C3.93438891 3.93438891 3.68118644 6.40370504 4.0078125 11.7734375 C3.9968629 16.29562339 3.5334135 20.72258339 2 25 C1.34 25.33 0.68 25.66 0 26 C0 17.42 0 8.84 0 0 Z " fill="#111111" transform="translate(796,469)"/>
<path d="M0 0 C0.33 0 0.66 0 1 0 C1.70279523 19.8344433 1.70279523 19.8344433 -2.57421875 24.84375 C-3.04472656 25.2253125 -3.51523437 25.606875 -4 26 C-3.46588214 17.14101063 -1.85710087 8.65479083 0 0 Z " fill="#111111" transform="translate(620,456)"/>
<path d="M0 0 C0.66 0 1.32 0 2 0 C2.45890625 0.94101562 2.9178125 1.88203125 3.390625 2.8515625 C4.01019772 4.10948286 4.63000177 5.36728931 5.25 6.625 C5.55035156 7.24246094 5.85070312 7.85992188 6.16015625 8.49609375 C8.17042788 12.55940875 10.41131701 16.2773364 13 20 C11.2265625 19.83203125 11.2265625 19.83203125 9 19 C7.1484375 16.63671875 7.1484375 16.63671875 5.375 13.6875 C4.78460937 12.72199219 4.19421875 11.75648438 3.5859375 10.76171875 C3.06257812 9.85035156 2.53921875 8.93898438 2 8 C1.60039063 7.30519531 1.20078125 6.61039063 0.7890625 5.89453125 C0 4 0 4 0 0 Z " fill="#09090B" transform="translate(659,506)"/>
<path d="M0 0 C-0.3125 1.9375 -0.3125 1.9375 -1 4 C-1.99 4.33 -2.98 4.66 -4 5 C-4 5.66 -4 6.32 -4 7 C-5.64453125 8.62109375 -5.64453125 8.62109375 -7.8125 10.4375 C-10.82463265 12.97339332 -10.82463265 12.97339332 -13.63671875 15.72265625 C-15 17 -15 17 -17 17 C-16.34 15.68 -15.68 14.36 -15 13 C-14.34 13 -13.68 13 -13 13 C-12.67 12.01 -12.34 11.02 -12 10 C-11.34 10 -10.68 10 -10 10 C-9.79375 9.46375 -9.5875 8.9275 -9.375 8.375 C-7.43786251 5.02903524 -4.15282732 0 0 0 Z " fill="#090A0D" transform="translate(877,508)"/>
<path d="M0 0 C8.80330096 1.32821734 15.16712943 7.66073874 21 14 C20.01 14.33 19.02 14.66 18 15 C17.360625 14.29875 16.72125 13.5975 16.0625 12.875 C13.07450833 9.86139698 9.64631718 7.71718708 6.09375 5.42578125 C3.7755275 3.84714093 1.85796641 2.10030985 0 0 Z " fill="#111111" transform="translate(1072,442)"/>
<path d="M0 0 C0.99 0.495 0.99 0.495 2 1 C2.8515625 3.94921875 2.8515625 3.94921875 3.625 7.6875 C4.01558594 9.51861328 4.01558594 9.51861328 4.4140625 11.38671875 C4.94737715 14.67549245 5.1122665 17.67793207 5 21 C1.12993567 17.62827272 0.6712799 13.93043515 0 9 C-0.1414291 5.97524209 -0.09621987 3.03092585 0 0 Z " fill="#111111" transform="translate(369,468)"/>
<path d="M0 0 C0.66 0 1.32 0 2 0 C0.50037219 3.94960116 -1.72693688 5.4687403 -5.25 7.6875 C-6.18328125 8.28949219 -7.1165625 8.89148438 -8.078125 9.51171875 C-11.1181865 11.06019927 -13.62698634 11.62577511 -17 12 C-14.39777073 9.03509069 -11.35547548 7.36037077 -7.9375 5.4375 C-3.68837006 3.08756808 -3.68837006 3.08756808 0 0 Z " fill="#111111" transform="translate(1101,534)"/>
<path d="M0 0 C-6.72645708 5.01186998 -12.72442544 6.15478126 -21 7 C-19.31955675 3.63911349 -15.54837893 3.06217064 -12.1875 1.8125 C-11.46240234 1.52697266 -10.73730469 1.24144531 -9.99023438 0.94726562 C-9.28576172 0.68236328 -8.58128906 0.41746094 -7.85546875 0.14453125 C-6.89096802 -0.22128052 -6.89096802 -0.22128052 -5.90698242 -0.59448242 C-3.63631616 -1.07733694 -2.18583479 -0.7102067 0 0 Z " fill="#0B0B0C" transform="translate(755,527)"/>
<path d="M0 0 C0 0.66 0 1.32 0 2 C-2.41429769 2.84080019 -4.83103993 3.67281402 -7.25 4.5 C-8.27287109 4.85771484 -8.27287109 4.85771484 -9.31640625 5.22265625 C-12.76413003 6.39421287 -15.31702904 7 -19 7 C-19 6.34 -19 5.68 -19 5 C-16.58570231 4.15919981 -14.16896007 3.32718598 -11.75 2.5 C-10.72712891 2.14228516 -10.72712891 2.14228516 -9.68359375 1.77734375 C-6.23586997 0.60578713 -3.68297096 0 0 0 Z " fill="#111111" transform="translate(1077,471)"/>
<path d="M0 0 C0 0.99 0 1.98 0 3 C-2.01171875 4.8671875 -2.01171875 4.8671875 -4.6875 6.875 C-8.40776813 9.73512103 -11.79420121 12.58048129 -15 16 C-15 12.2715744 -14.19106336 10.99853598 -12 8 C-9.08203125 5.76171875 -9.08203125 5.76171875 -5.8125 3.6875 C-4.72582031 2.99011719 -3.63914062 2.29273438 -2.51953125 1.57421875 C-1.68808594 1.05472656 -0.85664062 0.53523438 0 0 Z " fill="#0D0C0D" transform="translate(700,440)"/>
<path d="M0 0 C0.99 0.66 1.98 1.32 3 2 C1.01016107 3.98983893 -2.85542617 3.37391574 -5.5546875 3.5234375 C-8.37152491 4.07240581 -9.13445593 4.91103748 -11 7 C-11.66 7 -12.32 7 -13 7 C-12.69611836 4.06247746 -12.19330344 3.15919107 -9.875 1.25 C-6.34118181 -0.28644269 -3.81926881 -0.353636 0 0 Z " fill="#0D0F10" transform="translate(852,358)"/>
<path d="M0 0 C2.89684158 -0.10829314 5.78961019 -0.18743954 8.6875 -0.25 C9.50412109 -0.28351563 10.32074219 -0.31703125 11.16210938 -0.3515625 C15.29603856 -0.41850872 17.43437502 -0.34987112 21.03125 1.875 C23.00823412 4.00888763 23.69387024 5.14278889 24 8 C23.01 8 22.02 8 21 8 C17 3.65714286 17 3.65714286 17 1 C11.72 1 6.44 1 1 1 C0.67 1.99 0.34 2.98 0 4 C0 2.68 0 1.36 0 0 Z " fill="#181B1E" transform="translate(364,444)"/>
<path d="M0 0 C2.10209857 3.15314785 2.2434761 3.86103081 2.1953125 7.44921875 C2.18886719 8.29677734 2.18242188 9.14433594 2.17578125 10.01757812 C2.15902344 10.89865234 2.14226563 11.77972656 2.125 12.6875 C2.11597656 13.58017578 2.10695313 14.47285156 2.09765625 15.39257812 C2.07409748 17.59532314 2.04120329 19.79752588 2 22 C-1.42341074 18.57658926 -1.12747578 15.09301261 -1.13671875 10.36523438 C-1.13285156 9.68783203 -1.12898437 9.01042969 -1.125 8.3125 C-1.12886719 7.62349609 -1.13273438 6.93449219 -1.13671875 6.22460938 C-1.12669335 1.12669335 -1.12669335 1.12669335 0 0 Z " fill="#111111" transform="translate(1010,478)"/>
<path d="M0 0 C7.1191234 -0.8089913 12.62116486 2.06720223 19 5 C18.67 5.99 18.34 6.98 18 8 C12.06 5.69 6.12 3.38 0 1 C0 0.67 0 0.34 0 0 Z " fill="#111111" transform="translate(1068,422)"/>
<path d="M0 0 C6.75 -0.125 6.75 -0.125 9 1 C11.204364 1.22950319 13.41392173 1.41075933 15.625 1.5625 C16.81351563 1.64628906 18.00203125 1.73007812 19.2265625 1.81640625 C20.59941406 1.90728516 20.59941406 1.90728516 22 2 C21.67 2.66 21.34 3.32 21 4 C13.37048445 4.34855655 7.07555499 4.0017506 0 1 C0 0.67 0 0.34 0 0 Z " fill="#06070A" transform="translate(711,531)"/>
<path d="M0 0 C-5.95173364 3.9058252 -11.78089192 6.54143311 -19 6 C-17.59064959 3.18129918 -15.58348346 2.96616365 -12.7265625 1.99804688 C-11.68628906 1.65870117 -11.68628906 1.65870117 -10.625 1.3125 C-9.93921875 1.07466797 -9.2534375 0.83683594 -8.546875 0.59179688 C-3.3731602 -1.12438673 -3.3731602 -1.12438673 0 0 Z " fill="#111111" transform="translate(1103,482)"/>
<path d="M0 0 C0.33 0.99 0.66 1.98 1 3 C0.278125 3.680625 -0.44375 4.36125 -1.1875 5.0625 C-5.518394 9.40569768 -9.04572001 14.13716002 -11 20 C-11.33 20 -11.66 20 -12 20 C-11.63404218 11.21701228 -6.15439519 5.79237194 0 0 Z " fill="#111111" transform="translate(1186,449)"/>
<path d="M0 0 C0.99 0.33 1.98 0.66 3 1 C2.04416032 2.93873142 1.08523808 4.8759433 0.125 6.8125 C-0.40867187 7.89144531 -0.94234375 8.97039063 -1.4921875 10.08203125 C-3 13 -3 13 -5 16 C-5.66 16 -6.32 16 -7 16 C-6.40165275 11.85701333 -4.99335715 8.81805623 -2.9375 5.1875 C-2.11572266 3.72376953 -2.11572266 3.72376953 -1.27734375 2.23046875 C-0.85582031 1.49441406 -0.43429687 0.75835937 0 0 Z " fill="#0B0C0E" transform="translate(453,507)"/>
<path d="M0 0 C1.08667969 0.29197266 1.08667969 0.29197266 2.1953125 0.58984375 C2.74960937 0.74582031 3.30390625 0.90179688 3.875 1.0625 C3.875 1.3925 3.875 1.7225 3.875 2.0625 C1.565 2.0625 -0.745 2.0625 -3.125 2.0625 C-3.125 3.7125 -3.125 5.3625 -3.125 7.0625 C-3.455 7.0625 -3.785 7.0625 -4.125 7.0625 C-4.455 11.3525 -4.785 15.6425 -5.125 20.0625 C-5.455 20.0625 -5.785 20.0625 -6.125 20.0625 C-6.125 13.4625 -6.125 6.8625 -6.125 0.0625 C-3.57797384 -1.21101308 -2.6967055 -0.73941925 0 0 Z " fill="#1A1B1D" transform="translate(740.125,415.9375)"/>
<path d="M0 0 C0.66 0 1.32 0 2 0 C2.69848264 1.93356782 3.38344814 3.87202298 4.0625 5.8125 C4.44535156 6.89144531 4.82820313 7.97039062 5.22265625 9.08203125 C6 12 6 12 5 15 C4.34 14.34 3.68 13.68 3 13 C2.01 13.495 2.01 13.495 1 14 C0.67 12.68 0.34 11.36 0 10 C0.66 10 1.32 10 2 10 C1.505 8.9171875 1.505 8.9171875 1 7.8125 C-0.00603529 4.98302573 -0.16977402 2.97104534 0 0 Z " fill="#0C0E10" transform="translate(377,502)"/>
<path d="M0 0 C0.99 0 1.98 0 3 0 C2 3 2 3 0.1875 4.75 C-2.57241345 7.58876812 -4.12510819 10.51805806 -6 14 C-6.66 14 -7.32 14 -8 14 C-6.63923558 8.55694232 -3.96068133 3.9707594 0 0 Z " fill="#111111" transform="translate(487,484)"/>
<path d="M0 0 C0.33 0 0.66 0 1 0 C1.34548714 6.33393082 0.29342747 11.10261508 -2 17 C-2.66 17 -3.32 17 -4 17 C-2.07289294 5.47835991 -2.07289294 5.47835991 0 0 Z " fill="#111111" transform="translate(615,484)"/>
<path d="M0 0 C0.66 0 1.32 0 2 0 C1.7242265 6.2049038 0.89359206 10.10160999 -3 15 C-4.43410153 11.21180727 -3.51009497 8.93478721 -2.0625 5.25 C-1.49208984 3.77273438 -1.49208984 3.77273438 -0.91015625 2.265625 C-0.60980469 1.51796875 -0.30945313 0.7703125 0 0 Z " fill="#0C0B0C" transform="translate(775,495)"/>
<path d="M0 0 C0.66 0 1.32 0 2 0 C0.23570801 4.97209562 -2.3939166 9.43438061 -5 14 C-5.66 14 -6.32 14 -7 14 C-6.43450607 10.06946815 -5.28617442 7.46592463 -3.0625 4.1875 C-2.53785156 3.39730469 -2.01320313 2.60710937 -1.47265625 1.79296875 C-0.98667969 1.20128906 -0.50070312 0.60960937 0 0 Z " fill="#111111" transform="translate(1161,447)"/>
<path d="M0 0 C2.97 0.495 2.97 0.495 6 1 C6 5.36795404 5.77237852 5.74658993 3 8.75 C2.443125 9.36359375 1.88625 9.9771875 1.3125 10.609375 C0.879375 11.06828125 0.44625 11.5271875 0 12 C-0.99 11.67 -1.98 11.34 -3 11 C-2.21625 10.236875 -1.4325 9.47375 -0.625 8.6875 C2.07257717 6.09108195 2.07257717 6.09108195 4 3 C2.68 2.34 1.36 1.68 0 1 C0 0.67 0 0.34 0 0 Z " fill="#111111" transform="translate(1106,521)"/>
<path d="M0 0 C1.22560938 3.67682814 0.61164668 4.58169621 -0.875 8.0625 C-1.24367188 8.94035156 -1.61234375 9.81820313 -1.9921875 10.72265625 C-2.62958196 12.16297008 -3.2956172 13.59123441 -4 15 C-4.66 15 -5.32 15 -6 15 C-5.38602623 10.24170326 -3.4893031 3.4893031 0 0 Z " fill="#111111" transform="translate(592,498)"/>
<path d="M0 0 C0.33 0.99 0.66 1.98 1 3 C-10.385 2.505 -10.385 2.505 -22 2 C-22 1.67 -22 1.34 -22 1 C-14.64479068 0.36338219 -7.38395674 -0.12515181 0 0 Z " fill="#030405" transform="translate(295,531)"/>
<path d="M0 0 C0.33 0.99 0.66 1.98 1 3 C3.42383077 4.16953416 3.42383077 4.16953416 6 5 C6.66 5.33 7.32 5.66 8 6 C8 6.66 8 7.32 8 8 C5.14986919 7.6041485 3.39875665 7.34375573 1.1875 5.4375 C-2.17092292 3.23053637 -5.03560431 3.80178022 -9 4 C-7 2 -7 2 -3.375 1.875 C-1.704375 1.936875 -1.704375 1.936875 0 2 C0 1.34 0 0.68 0 0 Z " fill="#C5A059" transform="translate(729,468)"/>
<path d="M0 0 C0.33 0 0.66 0 1 0 C1.66 5.94 2.32 11.88 3 18 C2.01 18 1.02 18 0 18 C0 12.06 0 6.12 0 0 Z " fill="#111111" transform="translate(735,418)"/>
<path d="M0 0 C6.27 0.33 12.54 0.66 19 1 C19 1.33 19 1.66 19 2 C15.07808555 2.66755991 11.22870589 3.11976413 7.25 3.25 C6.14398437 3.28867187 6.14398437 3.28867187 5.015625 3.328125 C3 3 3 3 0 0 Z " fill="#111111" transform="translate(709,549)"/>
<path d="M0 0 C3.76119476 0.62393651 6.18960042 2.34773715 9.25 4.5625 C10.14203125 5.20316406 11.0340625 5.84382812 11.953125 6.50390625 C12.96632813 7.24447266 12.96632813 7.24447266 14 8 C13.01 8.33 12.02 8.66 11 9 C8.80859375 7.890625 8.80859375 7.890625 6.4375 6.25 C5.65246094 5.71890625 4.86742187 5.1878125 4.05859375 4.640625 C2 3 2 3 0 0 Z " fill="#09090B" transform="translate(679,535)"/>
<path d="M0 0 C1.17658961 3.52976882 0.79790695 5.48012397 0.1875 9.125 C0.01605469 10.20007813 -0.15539063 11.27515625 -0.33203125 12.3828125 C-0.55246094 13.24648438 -0.77289062 14.11015625 -1 15 C-1.99 15.495 -1.99 15.495 -3 16 C-3.37302695 5.32728444 -3.37302695 5.32728444 -1 1 C-0.67 0.67 -0.34 0.34 0 0 Z " fill="#111111" transform="translate(1153,464)"/>
<path d="M0 0 C1.33256282 3.64120668 0.65840377 5.66876554 -0.8125 9.1875 C-1.16957031 10.06792969 -1.52664063 10.94835937 -1.89453125 11.85546875 C-3 14 -3 14 -5 15 C-4.5188509 9.22621075 -2.81532819 5.04140164 0 0 Z " fill="#111111" transform="translate(1015,462)"/>
<path d="M0 0 C0 3.52100905 -0.58328868 4.10031314 -2.8125 6.6875 C-3.59560547 7.62142578 -3.59560547 7.62142578 -4.39453125 8.57421875 C-6 10 -6 10 -9 10 C-9 8 -9 8 -6.75 5.5625 C-4.5687345 3.52995714 -2.43257 1.71180852 0 0 Z " fill="#0A0B0E" transform="translate(887,497)"/>
<path d="M0 0 C0.99 0.33 1.98 0.66 3 1 C3.33 5.29 3.66 9.58 4 14 C3.34 13.67 2.68 13.34 2 13 C1.3671875 11.07421875 1.3671875 11.07421875 0.875 8.6875 C0.70742188 7.90761719 0.53984375 7.12773437 0.3671875 6.32421875 C0 4 0 4 0 0 Z " fill="#111111" transform="translate(365,451)"/>
<path d="M0 0 C8.89655172 0.88965517 8.89655172 0.88965517 12 3 C12.33 3.66 12.66 4.32 13 5 C11.20601116 4.74500159 9.41479125 4.47046186 7.625 4.1875 C6.62726563 4.03667969 5.62953125 3.88585937 4.6015625 3.73046875 C2 3 2 3 0 0 Z " fill="#0B0C0E" transform="translate(251,546)"/>
<path d="M0 0 C0.66 0 1.32 0 2 0 C4.10428384 5.12919186 4.21755666 9.5610835 4 15 C1.81257986 11.7188698 1.45557194 9.66915644 0.875 5.8125 C0.70742188 4.72582031 0.53984375 3.63914062 0.3671875 2.51953125 C0.24601562 1.68808594 0.12484375 0.85664063 0 0 Z " fill="#111111" transform="translate(338,465)"/>
<path d="M0 0 C3.38563819 1.4200094 3.92620432 1.86031533 5.75 5.3125 C6.84911426 8.55488708 7.30531083 10.64158092 7 14 C4.51169497 11.51169497 3.69174309 9.1322066 2.375 5.875 C1.92898438 4.77929688 1.48296875 3.68359375 1.0234375 2.5546875 C0.68570312 1.71164062 0.34796875 0.86859375 0 0 Z " fill="#111111" transform="translate(1112,453)"/>
<path d="M0 0 C3.46223106 0.30775387 5.80059202 1.56893508 8.8125 3.25 C8.4825 3.91 8.1525 4.57 7.8125 5.25 C6.35234709 4.96758359 4.89440207 4.67373386 3.4375 4.375 C2.62539062 4.21257813 1.81328125 4.05015625 0.9765625 3.8828125 C-1.1875 3.25 -1.1875 3.25 -3.1875 1.25 C-2.1875 0.25 -2.1875 0.25 0 0 Z " fill="#090B0D" transform="translate(1097.1875,515.75)"/>
<path d="M0 0 C0.33 0.66 0.66 1.32 1 2 C0.34 2 -0.32 2 -1 2 C-1.226875 2.556875 -1.45375 3.11375 -1.6875 3.6875 C-3.35896766 6.63246684 -5.55276352 8.68156544 -8 11 C-8.66 10.67 -9.32 10.34 -10 10 C-8.90033225 8.70450101 -7.79508199 7.41373929 -6.6875 6.125 C-6.07261719 5.40570312 -5.45773437 4.68640625 -4.82421875 3.9453125 C-3 2 -3 2 0 0 Z " fill="#0B0A0B" transform="translate(768,513)"/>
<path d="M0 0 C3.10468986 2.54020079 3.98485936 5.17370067 5 9 C5 10.32 5 11.64 5 13 C4.34 13 3.68 13 3 13 C2.49242138 11.58603098 1.99425075 10.16868271 1.5 8.75 C1.08234375 7.56664062 1.08234375 7.56664062 0.65625 6.359375 C0 4 0 4 0 0 Z " fill="#111111" transform="translate(396,497)"/>
<path d="M0 0 C0.33 0 0.66 0 1 0 C2.2982126 5.76081841 3.25706972 11.08739655 3 17 C1 16 1 16 0.37890625 14.328125 C-0.09148053 11.43791344 -0.0943182 8.67727465 -0.0625 5.75 C-0.04896484 4.13351562 -0.04896484 4.13351562 -0.03515625 2.484375 C-0.02355469 1.66453125 -0.01195312 0.8446875 0 0 Z " fill="#111111" transform="translate(675,481)"/>
<path d="M0 0 C4.87664009 -0.34833144 7.77050005 0.58314288 12 3 C11.67 3.99 11.34 4.98 11 6 C7.37 4.35 3.74 2.7 0 1 C0 0.67 0 0.34 0 0 Z " fill="#111111" transform="translate(750,419)"/>
<path d="M0 0 C0.66 0 1.32 0 2 0 C1.44894091 3.9492568 0.61064629 7.34920174 -1 11 C-1.99 10.67 -2.98 10.34 -4 10 C-2.68 6.7 -1.36 3.4 0 0 Z " fill="#111111" transform="translate(607,511)"/>
<path d="M0 0 C3.3 0.99 6.6 1.98 10 3 C10 3.66 10 4.32 10 5 C6.53058454 4.54177532 3.32604951 4.10868317 0 3 C0 2.01 0 1.02 0 0 Z " fill="#111111" transform="translate(695,544)"/>
<path d="M0 0 C1.41687119 4.25061356 0.19320039 6.71851625 -1 11 C-1.66 10.67 -2.32 10.34 -3 10 C-2.88637738 8.5199159 -2.75877092 7.04089926 -2.625 5.5625 C-2.55539062 4.73878906 -2.48578125 3.91507812 -2.4140625 3.06640625 C-2.27742187 2.38449219 -2.14078125 1.70257813 -2 1 C-1.34 0.67 -0.68 0.34 0 0 Z " fill="#111111" transform="translate(595,486)"/>
<path d="M0 0 C0.33 0 0.66 0 1 0 C0.25 6.625 0.25 6.625 -2 10 C-2.66 10 -3.32 10 -4 10 C-3.52449439 8.51965236 -3.04448784 7.04074979 -2.5625 5.5625 C-2.29566406 4.73878906 -2.02882813 3.91507812 -1.75390625 3.06640625 C-1 1 -1 1 0 0 Z " fill="#09090C" transform="translate(478,500)"/>
<path d="M0 0 C3 3 3 3 3.29296875 5.04296875 C3.1953125 7.02864583 3.09765625 9.01432292 3 11 C2.34 11 1.68 11 1 11 C0.67 7.37 0.34 3.74 0 0 Z " fill="#050606" transform="translate(1280,469)"/>
<path d="M0 0 C0.66 0 1.32 0 2 0 C1.71872579 1.48117801 1.42466268 2.95993249 1.125 4.4375 C0.96257813 5.26121094 0.80015625 6.08492188 0.6328125 6.93359375 C0.31957031 7.95646484 0.31957031 7.95646484 0 9 C-0.99 9.495 -0.99 9.495 -2 10 C-2.1953125 3.9453125 -2.1953125 3.9453125 -2 2 C-1.34 1.34 -0.68 0.68 0 0 Z " fill="#111111" transform="translate(602,447)"/>
<path d="M0 0 C7.50769231 0.61538462 7.50769231 0.61538462 10 2.5625 C10.33 3.036875 10.66 3.51125 11 4 C6.94393835 3.53199289 3.53411321 3.12046792 0 1 C0 0.67 0 0.34 0 0 Z " fill="#0A0A0A" transform="translate(740,436)"/>
<path d="M0 0 C-3.00617269 3.00617269 -5.82381598 2.59585316 -10 3 C-8 0 -8 0 -6.125 -0.75 C-3.80466218 -1.02298092 -2.21024918 -0.71043724 0 0 Z " fill="#111111" transform="translate(1057,479)"/>
<path d="M0 0 C-3.51187196 2.40814077 -5.72656908 3.36629408 -10 3 C-9 1 -9 1 -6.6875 -0.1875 C-3.88010429 -1.03624754 -2.698065 -0.99928333 0 0 Z " fill="#111111" transform="translate(1115,478)"/>
<path d="M0 0 C1.231394 3.69418201 0.64432764 6.2056261 0 10 C-0.66 10 -1.32 10 -2 10 C-2 7.03 -2 4.06 -2 1 C-1.34 0.67 -0.68 0.34 0 0 Z " fill="#090A0B" transform="translate(599,464)"/>
<path d="M0 0 C0.66 0 1.32 0 2 0 C3.20272819 2.40545638 3.10071472 3.94996953 3.0625 6.625 C3.05347656 7.44226563 3.04445313 8.25953125 3.03515625 9.1015625 C3.02355469 9.72804688 3.01195312 10.35453125 3 11 C0.43383368 7.15075052 0.44902324 4.5650696 0 0 Z " fill="#111111" transform="translate(386,452)"/>
<path d="M0 0 C0.33 0.66 0.66 1.32 1 2 C-2.63 2.33 -6.26 2.66 -10 3 C-5.78492722 -0.16130459 -4.93928888 -0.3367697 0 0 Z " fill="#111111" transform="translate(716,416)"/>
<path d="M0 0 C0 3 0 3 -2.375 5.6875 C-5 8 -5 8 -7 8 C-6.34 6.68 -5.68 5.36 -5 4 C-4.34 4 -3.68 4 -3 4 C-2.67 3.01 -2.34 2.02 -2 1 C-1.34 0.67 -0.68 0.34 0 0 Z " fill="#111111" transform="translate(867,517)"/>
<path d="M0 0 C1.5 1.0625 1.5 1.0625 3 3 C3.1875 6.6875 3.1875 6.6875 3 10 C0.64551835 7.44931155 0.01672076 6.28982642 -0.1875 2.75 C-0.125625 1.8425 -0.06375 0.935 0 0 Z " fill="#08080A" transform="translate(393,485)"/>
<path d="M0 0 C0.33 0 0.66 0 1 0 C0.67 2.97 0.34 5.94 0 9 C-0.66 8.67 -1.32 8.34 -2 8 C-2.125 5.125 -2.125 5.125 -2 2 C-1.34 1.34 -0.68 0.68 0 0 Z " fill="#111111" transform="translate(597,475)"/>
<path d="M0 0 C3.375 0.3125 3.375 0.3125 7 1 C7.66 1.99 8.32 2.98 9 4 C4.545 3.01 4.545 3.01 0 2 C0 1.34 0 0.68 0 0 Z " fill="#111111" transform="translate(294,423)"/>
<path d="M0 0 C0.66 0 1.32 0 2 0 C1.45276317 3.37462715 0.9451 5.08235 -1 8 C-1.66 8 -2.32 8 -3 8 C-1.125 2.25 -1.125 2.25 0 0 Z " fill="#111111" transform="translate(682,456)"/>
<path d="M0 0 C2.64752004 2.57784846 4.94432065 4.91648098 7 8 C4.24542282 7.62005832 3.17979426 7.1926367 1.25 5.125 C0 3 0 3 0 0 Z " fill="#0C0B0B" transform="translate(765,450)"/>
<path d="M0 0 C3.77545388 1.09068668 6.47043472 1.9083091 9 5 C5.26512223 4.5020163 3.18762365 4.12508244 0 2 C0 1.34 0 0.68 0 0 Z " fill="#111111" transform="translate(1235,442)"/>
<path d="M0 0 C3.375 0.3125 3.375 0.3125 7 1 C7.66 1.99 8.32 2.98 9 4 C5.17902761 3.46930939 2.93828597 2.50298434 0 0 Z " fill="#0A0A0A" transform="translate(700,527)"/>
<path d="M0 0 C0.66 0 1.32 0 2 0 C3.25664978 2.90600261 4 4.79604584 4 8 C3.34 8 2.68 8 2 8 C0.23537317 4.91190305 0 3.76687864 0 0 Z " fill="#111111" transform="translate(992,505)"/>
<path d="M0 0 C2 2 2 2 2.1953125 3.9453125 C2.13020833 5.96354167 2.06510417 7.98177083 2 10 C-0.13262124 6.80106814 -0.59021548 4.77001757 -1 1 C-0.67 0.67 -0.34 0.34 0 0 Z " fill="#111111" transform="translate(391,473)"/>
<path d="M0 0 C-2 2 -2 2 -5.625 2.125 C-6.73875 2.08375 -7.8525 2.0425 -9 2 C-8.67 1.34 -8.34 0.68 -8 0 C-4.71585695 -0.95067299 -3.30306592 -1.10102197 0 0 Z " fill="#111111" transform="translate(1082,547)"/>
<path d="M0 0 C0.66 0 1.32 0 2 0 C2.33 2.97 2.66 5.94 3 9 C0 6 0 6 -0.1875 2.8125 C-0.125625 1.884375 -0.06375 0.95625 0 0 Z " fill="#111111" transform="translate(374,491)"/>
<path d="M0 0 C1.98 0.99 1.98 0.99 4 2 C2.68 1.67 1.36 1.34 0 1 C0 0.67 0 0.34 0 0 Z " fill="#22252B" transform="translate(1024,546)"/>
<path d="M0 0 C0.33 0 0.66 0 1 0 C1 1.65 1 3.3 1 5 C0.67 5 0.34 5 0 5 C0 3.35 0 1.7 0 0 Z " fill="#403730" transform="translate(679,488)"/>
<path d="M0 0 C1.485 0.99 1.485 0.99 3 2 C2.01 2.33 1.02 2.66 0 3 C0 2.01 0 1.02 0 0 Z " fill="#22252B" transform="translate(312,465)"/>
<path d="M0 0 C0.33 0.66 0.66 1.32 1 2 C-0.32 1.67 -1.64 1.34 -3 1 C-2.01 0.67 -1.02 0.34 0 0 Z " fill="#23262C" transform="translate(1191,454)"/>
<path d="M0 0 C0.99 0.495 0.99 0.495 2 1 C1.67 1.66 1.34 2.32 1 3 C0.67 2.01 0.34 1.02 0 0 Z " fill="#23252B" transform="translate(513,515)"/>
<path d="M0 0 C1 4 1 4 1 4 Z " fill="#3D3531" transform="translate(679,473)"/>
<path d="M0 0 C0 3 0 3 0 3 Z " fill="#24282E" transform="translate(1045,445)"/>
<path d="M0 0 C4 1 4 1 4 1 Z " fill="#25282E" transform="translate(1044,443)"/>
<path d="M0 0 C0.66 0 1.32 0 2 0 C1.67 0.66 1.34 1.32 1 2 C0.67 1.34 0.34 0.68 0 0 Z " fill="#24262C" transform="translate(997,523)"/>
<path d="M0 0 C3 1 3 1 3 1 Z " fill="#24262E" transform="translate(1040,480)"/>
<path d="M0 0 C0.33 0.66 0.66 1.32 1 2 C0.34 1.67 -0.32 1.34 -1 1 C-0.67 0.67 -0.34 0.34 0 0 Z " fill="#C5A059" transform="translate(721,468)"/>
<path d="M0 0 C0.33 0.66 0.66 1.32 1 2 C0.34 1.67 -0.32 1.34 -1 1 C-0.67 0.67 -0.34 0.34 0 0 Z " fill="#21252B" transform="translate(1022,457)"/>
<path d="M0 0 C0.33 0.66 0.66 1.32 1 2 C0.34 1.67 -0.32 1.34 -1 1 C-0.67 0.67 -0.34 0.34 0 0 Z " fill="#23262D" transform="translate(657,456)"/>
<path d="M0 0 C0.33 0.66 0.66 1.32 1 2 C0.34 1.67 -0.32 1.34 -1 1 C-0.67 0.67 -0.34 0.34 0 0 Z " fill="#24272D" transform="translate(997,448)"/>
<path d="M0 0 C0.66 0 1.32 0 2 0 C1.67 0.66 1.34 1.32 1 2 C0.67 1.34 0.34 0.68 0 0 Z " fill="#25282E" transform="translate(1042,444)"/>
<path d="M0 0 C3 1 3 1 3 1 Z " fill="#26282C" transform="translate(288,419)"/>
<path d="M0 0 C2 1 2 1 2 1 Z " fill="#424244" transform="translate(1090,955)"/>
<path d="M0 0 C2 1 2 1 2 1 Z " fill="#403F41" transform="translate(1090,931)"/>
<path d="M0 0 C2 1 2 1 2 1 Z " fill="#292829" transform="translate(1090,715)"/>
<path d="M0 0 C2 1 2 1 2 1 Z " fill="#282829" transform="translate(1090,699)"/>
<path d="M0 0 C2 1 2 1 2 1 Z " fill="#282729" transform="translate(1090,667)"/>
<path d="M0 0 C2 1 2 1 2 1 Z " fill="#272728" transform="translate(1090,611)"/>
<path d="M0 0 C2 1 2 1 2 1 Z " fill="#26282B" transform="translate(1090,563)"/>
<path d="M0 0 C2 1 2 1 2 1 Z " fill="#25272B" transform="translate(1090,555)"/>
<path d="M0 0 C2 1 2 1 2 1 Z " fill="#23252B" transform="translate(1032,549)"/>
<path d="M0 0 C2 1 2 1 2 1 Z " fill="#222428" transform="translate(537,547)"/>
<path d="M0 0 C2 1 2 1 2 1 Z " fill="#23272B" transform="translate(1058,529)"/>
<path d="M0 0 C2 1 2 1 2 1 Z " fill="#23272C" transform="translate(273,529)"/>
<path d="M0 0 C2 1 2 1 2 1 Z " fill="#23252C" transform="translate(1064,528)"/>
<path d="M0 0 C2 1 2 1 2 1 Z " fill="#24262C" transform="translate(288,528)"/>
<path d="M0 0 C2 1 2 1 2 1 Z " fill="#24252A" transform="translate(996,525)"/>
<path d="M0 0 C2 1 2 1 2 1 Z " fill="#433A32" transform="translate(752,520)"/>
<path d="M0 0 C2 1 2 1 2 1 Z " fill="#22252B" transform="translate(379,518)"/>
<path d="M0 0 C2 1 2 1 2 1 Z " fill="#23252B" transform="translate(1090,515)"/>
<path d="M0 0 C2 1 2 1 2 1 Z " fill="#23232A" transform="translate(1070,495)"/>
<path d="M0 0 C2 1 2 1 2 1 Z " fill="#202328" transform="translate(1078,492)"/>
<path d="M0 0 C2 1 2 1 2 1 Z " fill="#22262C" transform="translate(369,488)"/>
<path d="M0 0 C2 1 2 1 2 1 Z " fill="#21232A" transform="translate(1093,487)"/>
<path d="M0 0 C2 1 2 1 2 1 Z " fill="#22252A" transform="translate(1102,484)"/>
<path d="M0 0 C2 1 2 1 2 1 Z " fill="#22262E" transform="translate(1065,472)"/>
<path d="M0 0 C2 1 2 1 2 1 Z " fill="#C5A059" transform="translate(724,468)"/>
<path d="M0 0 C2 1 2 1 2 1 Z " fill="#22272D" transform="translate(1088,464)"/>
<path d="M0 0 C2 1 2 1 2 1 Z " fill="#22262D" transform="translate(313,464)"/>
<path d="M0 0 C2 1 2 1 2 1 Z " fill="#23252C" transform="translate(1189,451)"/>
<path d="M0 0 C2 1 2 1 2 1 Z " fill="#23252A" transform="translate(1069,444)"/>
<path d="M0 0 C2 1 2 1 2 1 Z " fill="#23262C" transform="translate(288,444)"/>
<path d="M0 0 C2 1 2 1 2 1 Z " fill="#24272B" transform="translate(282,443)"/>
<path d="M0 0 C2 1 2 1 2 1 Z " fill="#25282D" transform="translate(1090,427)"/>
<path d="M0 0 C2 1 2 1 2 1 Z " fill="#23272C" transform="translate(1185,424)"/>
<path d="M0 0 C2 1 2 1 2 1 Z " fill="#23272E" transform="translate(1026,424)"/>
<path d="M0 0 C2 1 2 1 2 1 Z " fill="#23292D" transform="translate(1069,419)"/>
<path d="M0 0 C2 1 2 1 2 1 Z " fill="#24272C" transform="translate(696,418)"/>
<path d="M0 0 C2 1 2 1 2 1 Z " fill="#2B2B2E" transform="translate(1090,387)"/>
<path d="M0 0 C2 1 2 1 2 1 Z " fill="#2A292A" transform="translate(1090,291)"/>
<path d="M0 0 C2 1 2 1 2 1 Z " fill="#3A3A39" transform="translate(1090,59)"/>
<path d="M0 0 C2 1 2 1 2 1 Z " fill="#3E3C3E" transform="translate(1090,35)"/>
</svg>
