<?xml version="1.0" standalone="no"?>
<svg version="1.0" xmlns="http://www.w3.org/2000/svg"
 width="3368.0" height="736.0" viewBox="0 0 3368.0 736.0"
 preserveAspectRatio="xMidYMid meet">
<g transform="translate(0.000000,736.000000) scale(0.100000,-0.100000)"
fill="#1a1a1a" stroke="none">
<path d="M0 3680 l0 -3680 16840 0 16840 0 0 3680 0 3680 -16840 0 -16840 0 0
-3680z m4881 2689 c137 -46 194 -233 200 -664 4 -221 -12 -371 -45 -432 -89
-163 -196 -209 -329 -143 -90 45 -114 93 -142 276 -8 56 -19 114 -25 129 -12
33 -12 130 0 260 6 55 15 149 20 208 7 72 19 130 37 175 14 37 30 79 36 95 8
24 88 82 137 100 26 9 76 7 111 -4z m-2322 -870 c39 -19 73 -46 94 -73 17 -22
50 -61 72 -85 126 -138 156 -172 194 -228 24 -34 49 -64 55 -66 7 -3 25 -31
40 -63 15 -32 44 -76 64 -100 56 -63 98 -183 83 -233 -35 -118 -155 -209 -260
-197 -79 9 -142 48 -190 116 -22 32 -63 74 -90 95 -27 20 -64 58 -84 84 -33
45 -43 59 -118 172 -35 53 -132 239 -163 312 -20 47 -21 149 -2 185 56 107
185 141 305 81z m4739 7 c148 -77 158 -283 23 -449 -38 -48 -118 -154 -164
-219 -15 -21 -33 -54 -41 -73 -8 -18 -24 -39 -37 -45 -12 -7 -71 -60 -131
-119 -164 -160 -237 -186 -340 -120 -120 77 -150 208 -76 327 13 20 31 55 41
77 10 22 29 49 42 60 33 27 90 109 121 173 14 28 34 56 44 62 10 5 27 24 37
42 11 18 73 88 137 155 97 101 126 126 164 138 53 17 139 12 180 -9z m16989
-146 c7 0 20 -12 30 -27 16 -25 18 -112 21 -1362 1 -839 6 -1339 12 -1345 6
-6 33 13 75 55 36 35 74 73 85 84 12 11 71 74 132 140 231 248 1040 1047 1066
1053 15 4 182 7 372 7 l345 0 3 -34 c5 -47 -15 -89 -52 -108 -17 -9 -100 -86
-186 -173 -85 -86 -191 -190 -235 -232 -241 -227 -785 -794 -785 -818 0 -16
67 -112 93 -133 8 -7 25 -28 37 -47 29 -43 71 -96 128 -161 23 -27 42 -54 42
-59 0 -5 30 -45 68 -88 37 -44 90 -108 117 -142 28 -35 68 -84 90 -109 23 -25
61 -73 85 -106 55 -74 115 -148 200 -245 36 -41 74 -88 85 -105 21 -35 108
-136 178 -207 26 -27 47 -53 47 -58 0 -6 21 -35 48 -65 101 -117 112 -133 112
-157 0 -52 -6 -53 -369 -49 -190 2 -344 7 -354 13 -10 5 -27 24 -37 41 -35 57
-163 208 -238 281 -41 39 -81 85 -89 101 -9 17 -29 46 -45 65 -76 91 -166 207
-198 254 -46 69 -130 173 -170 211 -18 17 -50 55 -71 87 -21 31 -60 78 -86
105 -27 27 -61 66 -76 86 -32 43 -50 46 -75 15 -9 -12 -30 -34 -45 -48 -16
-14 -65 -63 -110 -110 -45 -47 -105 -107 -133 -135 -28 -27 -55 -61 -59 -75
-4 -13 -11 -208 -14 -432 -5 -373 -8 -409 -24 -425 -27 -28 -533 -33 -565 -6
l-22 18 -6 805 c-3 443 -7 1432 -7 2199 -2 1483 -4 1422 43 1439 14 5 397 7
537 2z m-11104 -63 c37 -16 102 -139 136 -260 11 -37 29 -82 39 -100 11 -18
27 -56 36 -85 8 -29 24 -65 35 -80 11 -16 23 -41 27 -58 7 -28 33 -89 120
-269 23 -49 47 -109 53 -131 6 -23 18 -47 27 -55 21 -17 39 -55 53 -112 6 -27
26 -73 43 -104 17 -30 35 -75 39 -100 5 -26 21 -62 35 -80 15 -19 33 -60 41
-90 8 -31 34 -93 59 -138 24 -45 44 -89 44 -97 0 -9 14 -42 30 -73 17 -31 30
-65 30 -74 0 -9 14 -39 31 -67 18 -27 38 -73 46 -103 8 -30 27 -80 42 -110 16
-31 36 -81 46 -111 10 -30 28 -71 41 -90 13 -19 27 -53 32 -75 5 -23 23 -61
40 -84 18 -24 32 -49 32 -56 0 -22 38 -131 63 -181 13 -27 29 -71 36 -98 7
-27 21 -62 32 -77 11 -16 27 -52 35 -81 9 -29 26 -71 39 -93 13 -23 32 -68 43
-100 22 -65 64 -161 118 -270 19 -38 34 -78 34 -87 0 -9 16 -46 35 -83 19 -36
46 -105 61 -153 14 -48 34 -100 44 -117 10 -16 22 -47 25 -68 4 -21 18 -50 30
-65 33 -40 45 -67 45 -102 0 -17 14 -66 31 -108 53 -134 43 -141 -196 -133
-93 3 -201 3 -240 -1 -125 -12 -180 18 -206 110 -7 26 -25 67 -41 91 -15 25
-28 50 -28 56 0 6 -11 33 -24 61 -14 27 -39 87 -56 134 -17 47 -40 101 -52
120 -11 19 -27 57 -35 84 -8 28 -25 64 -38 80 -13 17 -29 54 -36 81 -6 28 -29
86 -49 130 -21 44 -43 94 -50 112 -6 17 -19 34 -28 38 -14 5 -387 6 -1939 5
-189 0 -202 -4 -218 -68 -3 -15 -17 -48 -31 -75 -13 -26 -31 -73 -39 -104 -8
-31 -24 -66 -35 -78 -12 -13 -32 -51 -44 -86 -32 -85 -80 -199 -118 -279 -91
-192 -108 -228 -119 -265 -42 -142 -42 -142 -393 -146 -267 -3 -279 -3 -293
16 -19 27 -11 71 28 154 17 36 37 86 44 111 6 25 24 62 38 84 15 21 29 54 33
75 3 20 16 54 29 76 12 22 42 90 65 150 24 61 49 119 56 130 7 11 18 43 25 70
6 28 25 68 40 89 16 22 29 46 29 54 0 7 11 37 24 65 14 29 40 88 59 132 19 44
46 108 60 141 15 34 27 68 27 76 0 9 12 33 26 54 15 21 33 60 39 86 7 26 23
61 35 77 11 17 34 70 50 117 17 48 39 103 50 122 12 19 25 57 30 83 5 27 21
66 34 86 14 21 32 58 40 83 8 25 30 83 50 129 19 46 42 107 51 136 8 29 21 58
30 65 8 6 24 37 35 68 12 32 27 66 34 77 7 11 19 38 26 60 7 22 24 58 38 79
25 41 72 164 72 190 0 9 14 31 30 50 18 20 34 52 39 79 4 25 18 60 29 80 12
19 33 69 47 112 14 42 38 96 54 119 15 22 34 59 41 81 7 22 22 58 35 80 12 22
28 58 35 80 7 22 27 72 45 110 17 39 38 86 45 105 8 19 27 55 42 79 15 25 28
53 28 62 0 10 16 47 35 83 19 37 35 73 35 82 0 29 81 224 105 253 l24 28 262
1 c144 1 265 4 267 7 10 9 53 5 85 -8z m-8115 -787 c170 -12 239 -24 302 -52
25 -10 77 -23 117 -28 40 -5 98 -20 130 -33 32 -14 76 -28 97 -32 22 -3 78
-26 125 -50 47 -23 101 -46 119 -50 19 -4 49 -20 68 -37 19 -17 73 -50 121
-75 48 -25 108 -62 133 -83 25 -20 63 -47 85 -58 124 -63 624 -584 698 -728 9
-17 23 -36 31 -43 9 -7 48 -79 88 -160 40 -80 82 -162 94 -182 13 -20 27 -62
33 -93 6 -32 20 -70 31 -86 12 -17 28 -70 39 -127 31 -159 82 -396 88 -406 31
-50 18 -780 -17 -937 -67 -306 -80 -345 -119 -363 -37 -18 -584 -16 -606 3
-22 18 -18 67 8 125 96 207 146 776 97 1098 -11 78 -26 156 -32 172 -6 17 -19
59 -28 95 -10 36 -32 91 -49 124 -17 32 -31 64 -31 71 0 25 -172 350 -196 370
-13 11 -31 37 -39 58 -35 85 -270 336 -408 437 -45 33 -100 73 -122 89 -22 16
-56 37 -75 46 -19 10 -51 30 -70 45 -67 52 -287 140 -351 140 -9 0 -37 11 -62
24 -26 14 -73 28 -109 32 -35 4 -84 15 -110 25 -120 47 -501 52 -643 9 -38
-11 -107 -27 -152 -35 -45 -7 -95 -20 -110 -29 -16 -8 -46 -18 -68 -22 -103
-19 -274 -91 -345 -146 -19 -14 -52 -33 -73 -42 -142 -58 -462 -361 -576 -545
-25 -39 -55 -81 -68 -93 -26 -24 -133 -233 -133 -259 0 -9 -13 -36 -30 -60
-16 -24 -32 -60 -36 -79 -3 -19 -17 -60 -29 -90 -36 -84 -64 -186 -75 -275 -6
-44 -21 -109 -33 -145 -29 -87 -32 -468 -3 -560 9 -30 23 -93 31 -140 13 -84
43 -196 84 -317 26 -76 26 -85 3 -113 -27 -33 -571 -38 -609 -5 -29 25 -68
163 -89 315 -9 57 -26 150 -40 205 -22 92 -24 118 -23 340 0 132 4 265 8 295
28 206 95 531 133 640 11 30 23 76 28 101 5 26 23 68 40 95 16 26 30 53 30 59
0 6 13 37 30 70 16 33 30 64 30 68 0 4 19 36 41 70 23 34 52 85 65 112 13 28
44 75 69 105 25 30 62 80 82 110 85 129 275 328 399 418 38 29 80 66 93 83 13
17 39 38 59 46 21 8 46 23 57 33 27 25 140 96 191 120 22 11 51 28 65 38 67
52 401 194 499 212 30 6 95 22 143 36 156 46 561 66 875 44z m26822 -460 c19
-6 76 -15 125 -21 60 -7 110 -20 150 -38 33 -16 78 -34 99 -41 37 -12 157 -83
216 -128 14 -11 39 -26 56 -35 46 -24 155 -179 216 -307 17 -36 38 -76 48 -90
10 -14 28 -61 40 -105 13 -44 30 -102 38 -130 15 -51 40 -2089 27 -2191 -11
-82 -14 -83 -309 -85 -247 -1 -259 0 -278 19 -26 26 -25 -7 -27 842 -1 855
-14 1192 -46 1266 -13 29 -26 66 -30 83 -4 18 -22 51 -40 76 -19 24 -40 57
-49 72 -8 16 -33 45 -55 64 -23 19 -60 50 -84 70 -23 20 -78 52 -122 70 l-80
33 -220 1 c-220 0 -220 0 -265 -26 -25 -15 -62 -30 -83 -33 -20 -4 -52 -20
-70 -35 -17 -16 -48 -33 -67 -40 -43 -14 -170 -134 -225 -214 -74 -106 -119
-207 -145 -322 l-25 -110 0 -875 c0 -694 -3 -880 -13 -898 -27 -48 -40 -50
-300 -44 -278 5 -288 8 -284 78 1 22 4 694 5 1494 2 800 4 1461 5 1467 6 36
55 43 300 43 291 0 271 11 284 -153 12 -165 13 -166 111 -79 104 92 170 141
206 153 19 7 55 25 80 40 24 16 61 32 80 35 20 4 61 20 91 35 53 27 155 48
340 70 80 9 252 3 300 -11z m-10177 -4 c50 -8 128 -17 172 -21 55 -5 101 -16
147 -36 36 -16 75 -29 86 -29 23 0 109 -29 182 -63 30 -13 65 -28 78 -32 12
-3 36 -18 52 -32 17 -13 50 -35 74 -46 57 -28 326 -274 326 -298 0 -4 18 -29
40 -54 22 -25 40 -50 40 -54 0 -5 16 -28 34 -53 19 -25 38 -57 41 -71 4 -14
22 -49 40 -77 18 -28 36 -72 40 -98 4 -25 15 -69 25 -97 79 -214 104 -655 50
-905 -10 -47 -21 -107 -25 -135 -4 -27 -15 -70 -25 -95 -10 -25 -26 -71 -34
-102 -9 -31 -20 -60 -26 -63 -5 -3 -37 -58 -71 -123 -35 -64 -77 -135 -95
-157 -113 -137 -157 -186 -196 -215 -24 -19 -65 -55 -93 -80 -27 -26 -72 -59
-100 -74 -27 -16 -69 -41 -91 -57 -23 -16 -79 -42 -125 -58 -46 -16 -117 -40
-156 -55 -40 -14 -91 -26 -113 -26 -21 0 -74 -11 -116 -25 -110 -36 -213 -45
-409 -35 -125 7 -185 14 -226 28 -30 11 -84 23 -119 27 -57 7 -142 34 -245 80
-16 7 -41 16 -55 20 -14 4 -39 18 -57 31 -18 14 -51 33 -75 43 -24 10 -59 33
-79 52 -60 57 -140 119 -154 119 -7 0 -27 17 -45 37 -17 21 -51 60 -73 86 -23
27 -58 68 -77 90 -73 86 -186 304 -215 417 -8 31 -26 81 -39 111 -18 39 -29
93 -41 189 -8 74 -20 157 -25 183 -15 71 -11 262 6 342 8 39 19 110 25 159 6
57 18 105 34 136 13 26 30 69 36 96 32 126 131 302 251 445 38 44 75 93 84
108 9 16 31 36 48 46 17 10 60 44 96 75 92 79 192 148 242 166 24 8 67 28 96
45 28 16 78 35 110 43 31 7 77 23 101 35 29 15 89 29 180 42 233 32 333 35
464 15z m6527 -6 c41 -5 112 -14 157 -19 55 -6 91 -15 111 -29 16 -12 60 -28
98 -35 38 -8 103 -32 144 -54 41 -21 89 -44 105 -50 28 -12 86 -54 197 -143
49 -39 130 -127 203 -220 28 -34 66 -81 86 -104 20 -23 40 -52 44 -66 4 -14
22 -54 40 -90 18 -36 40 -88 48 -115 8 -28 27 -75 41 -106 21 -46 28 -80 36
-190 5 -76 18 -164 30 -204 29 -102 30 -341 0 -373 -30 -32 -83 -43 -159 -32
-74 10 -2212 10 -2250 0 -53 -13 -64 -47 -40 -120 51 -162 161 -345 289 -483
186 -200 601 -317 878 -248 43 10 100 22 127 26 138 18 368 174 436 295 64
114 88 134 156 127 32 -4 113 -11 181 -16 67 -6 127 -13 131 -16 5 -3 44 -10
87 -16 118 -16 134 -27 134 -94 0 -51 -3 -57 -45 -98 -25 -25 -45 -52 -45 -60
0 -8 -16 -34 -35 -57 -19 -23 -35 -48 -35 -55 0 -38 -266 -310 -340 -349 -25
-13 -56 -27 -70 -31 -14 -4 -40 -20 -57 -36 -18 -15 -52 -33 -75 -39 -24 -6
-79 -25 -123 -41 -105 -40 -152 -54 -255 -74 -47 -9 -114 -24 -150 -32 -103
-24 -393 -12 -528 21 -57 15 -120 26 -140 26 -20 0 -56 9 -78 19 -23 10 -55
22 -71 25 -85 19 -292 125 -343 176 -10 10 -36 28 -57 39 -21 10 -47 29 -58
41 -11 12 -34 28 -52 35 -17 7 -40 26 -50 42 -10 15 -49 64 -88 108 -121 140
-234 332 -257 438 -6 29 -21 72 -33 97 -14 29 -24 73 -29 125 -3 45 -18 137
-33 205 -35 167 -37 382 -4 505 12 44 26 119 31 168 6 49 17 102 26 119 9 17
22 52 30 79 8 27 32 82 54 122 22 40 46 93 55 117 9 25 33 63 54 85 20 22 64
76 97 119 32 43 79 94 104 113 25 19 77 61 115 94 89 76 190 143 241 159 21 7
66 26 99 43 33 16 87 38 120 47 33 10 80 27 105 38 85 38 450 63 610 42z
m-10624 -91 c31 -11 82 -82 95 -133 6 -23 22 -68 35 -101 13 -33 29 -85 35
-115 6 -30 20 -72 31 -94 11 -21 26 -57 33 -80 8 -22 30 -86 50 -141 20 -55
45 -130 55 -167 10 -36 27 -81 37 -100 16 -29 50 -124 123 -338 12 -36 35 -94
50 -130 16 -36 31 -81 35 -100 4 -19 17 -51 30 -70 12 -20 32 -73 43 -117 11
-45 33 -110 47 -145 15 -35 37 -95 49 -133 13 -39 30 -85 40 -103 9 -17 21
-56 26 -84 18 -92 65 -105 84 -22 4 21 25 86 46 144 21 58 50 145 65 193 15
49 35 103 45 120 10 18 21 48 24 67 4 19 18 64 31 100 29 81 61 179 81 249 8
30 21 63 29 75 7 11 18 46 24 76 7 30 23 75 38 100 14 25 31 65 38 90 8 25 30
90 50 145 21 55 43 123 50 151 7 28 20 62 29 76 9 14 23 57 30 96 7 39 23 87
36 107 12 20 30 66 40 103 10 37 25 85 34 107 8 22 15 53 16 68 0 50 27 97 62
111 57 23 575 9 599 -15 25 -25 24 -65 -2 -114 -22 -43 -77 -195 -103 -286 -9
-31 -23 -62 -31 -69 -8 -7 -20 -31 -25 -54 -6 -22 -22 -61 -35 -86 -13 -25
-28 -64 -34 -85 -12 -50 -64 -193 -79 -221 -6 -11 -18 -50 -26 -87 -9 -37 -27
-84 -40 -104 -13 -21 -27 -56 -31 -78 -4 -21 -14 -53 -22 -69 -9 -17 -33 -84
-55 -150 -22 -66 -48 -137 -59 -157 -10 -21 -23 -59 -29 -85 -6 -27 -24 -69
-41 -93 -16 -25 -29 -58 -29 -75 0 -17 -10 -51 -21 -76 -28 -60 -54 -132 -74
-204 -9 -33 -30 -84 -46 -114 -16 -30 -29 -67 -29 -81 0 -15 -11 -50 -25 -78
-14 -27 -32 -72 -39 -99 -8 -27 -30 -96 -50 -154 -20 -58 -44 -132 -52 -165
-9 -33 -24 -73 -34 -90 -10 -16 -25 -55 -34 -85 -30 -106 -24 -104 -344 -111
-355 -7 -336 -13 -398 141 -14 36 -34 93 -43 126 -10 34 -27 74 -39 89 -11 14
-26 52 -33 83 -6 31 -25 93 -41 137 -17 44 -41 113 -53 153 -13 40 -30 83 -39
97 -9 14 -23 54 -32 91 -8 36 -22 76 -30 89 -8 12 -27 60 -43 106 -15 46 -44
133 -64 192 -21 60 -37 115 -37 123 0 8 -13 40 -29 72 -15 31 -31 76 -35 100
-3 24 -18 66 -31 92 -14 27 -25 57 -25 67 0 10 -10 38 -21 63 -12 25 -27 70
-34 100 -8 30 -22 80 -33 110 -11 30 -26 76 -32 101 -6 25 -22 59 -35 75 -30
37 -54 19 -62 -47 -3 -24 -16 -62 -29 -84 -12 -22 -26 -58 -30 -80 -8 -42 -56
-180 -78 -223 -8 -15 -17 -46 -21 -69 -3 -23 -19 -61 -35 -85 -16 -24 -34 -66
-40 -93 -6 -28 -28 -97 -50 -155 -21 -58 -42 -116 -45 -130 -4 -14 -20 -50
-35 -80 -15 -30 -30 -73 -34 -95 -4 -22 -17 -60 -28 -85 -29 -66 -138 -396
-138 -418 0 -11 -13 -44 -30 -75 -16 -31 -32 -75 -36 -99 -4 -24 -19 -65 -34
-93 -16 -27 -35 -85 -44 -128 -18 -90 -37 -131 -70 -152 -31 -21 -572 -21
-621 0 -49 20 -81 66 -89 127 -4 29 -22 87 -41 128 -18 41 -41 102 -50 135
-10 33 -30 87 -46 119 -16 32 -29 70 -29 84 0 13 -13 48 -29 76 -16 28 -41 94
-56 146 -15 52 -40 126 -56 164 -16 37 -29 81 -29 96 0 15 -13 53 -29 83 -16
30 -32 78 -36 106 -4 29 -17 71 -29 94 -13 23 -38 94 -56 157 -18 63 -40 131
-50 150 -10 19 -23 59 -29 88 -6 29 -22 69 -36 90 -13 20 -31 64 -39 97 -8 33
-32 104 -54 157 -22 53 -43 112 -47 130 -4 18 -18 53 -30 78 -12 25 -28 68
-34 97 -7 28 -23 66 -36 83 -13 18 -29 58 -35 89 -6 31 -21 85 -35 121 -71
195 -92 313 -61 356 14 18 30 19 280 22 l267 3 27 -28 c20 -21 35 -56 55 -133
16 -58 42 -135 58 -171 16 -36 29 -75 29 -86 0 -11 11 -41 25 -67 13 -25 32
-73 40 -107 9 -33 24 -79 34 -102 36 -80 71 -183 71 -207 0 -14 14 -52 30 -85
16 -33 30 -69 30 -80 0 -11 14 -49 31 -85 17 -36 35 -89 40 -118 6 -29 30
-101 53 -160 24 -59 47 -123 51 -142 4 -19 18 -53 31 -76 12 -23 27 -68 33
-100 5 -33 19 -76 30 -96 23 -38 56 -146 100 -318 22 -90 29 -105 46 -105 15
0 23 11 33 45 7 25 22 65 32 90 11 25 22 63 26 85 3 22 15 55 25 73 11 19 29
68 40 110 11 43 38 121 60 176 21 54 39 106 39 115 0 10 12 40 26 67 14 27 36
83 49 124 13 41 37 111 55 155 17 44 40 106 50 138 10 32 25 68 33 80 8 12 19
46 26 75 6 30 23 74 38 99 14 25 32 68 39 97 7 28 28 93 47 144 19 51 40 113
46 138 7 25 23 67 36 92 13 26 27 65 31 87 4 22 20 67 36 100 15 33 28 70 28
82 0 36 23 75 51 87 31 13 529 9 565 -5z m-16385 -274 c33 -14 90 -32 127 -39
83 -17 202 -58 262 -91 25 -13 81 -34 125 -46 143 -39 207 -81 283 -188 56
-78 38 -150 -65 -257 -47 -50 -66 -62 -100 -68 -49 -7 -152 21 -228 64 -27 15
-74 32 -103 39 -29 6 -69 19 -90 30 -20 10 -53 22 -72 26 -19 4 -55 18 -80 31
-68 36 -127 54 -177 54 -79 0 -203 136 -203 222 1 187 153 293 321 223z m7396
-80 c49 -21 69 -40 108 -100 48 -75 50 -87 19 -155 -28 -63 -146 -180 -181
-180 -9 0 -39 -13 -67 -28 -28 -16 -73 -35 -101 -42 -27 -7 -95 -31 -150 -53
-161 -64 -348 -100 -437 -83 -39 7 -136 75 -155 109 -52 92 -33 179 60 272 68
67 135 96 337 145 52 12 131 39 175 58 131 57 324 85 392 57z m-3781 -1030
c219 -38 366 -94 446 -169 20 -19 55 -44 76 -55 22 -11 56 -42 75 -68 20 -26
56 -75 81 -107 62 -80 67 -102 73 -313 8 -257 0 -293 -107 -461 -68 -108 -93
-136 -190 -214 -163 -132 -269 -168 -502 -171 l-153 -2 -104 37 c-57 21 -113
46 -125 57 -12 10 -48 35 -81 54 -85 51 -203 198 -268 335 l-32 67 -3 200 c-4
218 -2 232 55 355 53 114 119 205 180 247 29 20 60 47 69 61 29 44 295 147
415 161 4 1 46 -6 95 -14z"/>
<path d="M4729 6282 c-81 -52 -98 -129 -115 -517 -8 -192 16 -445 47 -507 39
-76 144 -111 222 -74 87 42 117 166 117 481 -1 357 -26 547 -80 608 -41 46
-127 50 -191 9z"/>
<path d="M2372 5450 c-109 -79 -96 -166 64 -430 75 -123 154 -231 219 -300 29
-30 75 -79 101 -109 98 -108 158 -126 241 -73 125 80 132 196 20 336 -18 23
-45 59 -59 81 -144 214 -372 476 -443 509 -51 25 -96 20 -143 -14z"/>
<path d="M7132 5459 c-44 -22 -148 -134 -217 -233 -22 -31 -70 -92 -106 -134
-36 -42 -78 -97 -94 -122 -15 -25 -40 -58 -55 -75 -54 -57 -104 -164 -105
-220 0 -66 17 -98 74 -135 95 -64 161 -33 321 148 124 141 344 430 385 507 50
95 28 205 -51 251 -61 36 -100 39 -152 13z"/>
<path d="M12856 4448 c-8 -13 -21 -52 -30 -87 -9 -35 -30 -82 -46 -104 -17
-23 -30 -49 -30 -58 0 -9 -13 -43 -30 -74 -16 -31 -30 -63 -30 -70 0 -7 -20
-52 -45 -101 -25 -49 -53 -112 -61 -141 -8 -28 -28 -68 -44 -89 -17 -20 -30
-49 -30 -63 0 -15 -15 -50 -34 -79 -19 -29 -37 -70 -41 -90 -3 -20 -23 -73
-44 -117 -21 -44 -43 -102 -50 -129 -7 -27 -22 -63 -35 -80 -13 -17 -27 -49
-31 -70 -3 -22 -21 -69 -39 -105 -18 -36 -41 -91 -51 -121 -9 -30 -32 -86 -50
-125 -37 -78 -49 -124 -37 -143 9 -14 1539 -21 1562 -7 17 10 4 67 -29 134
-16 31 -42 97 -59 147 -18 50 -43 111 -57 135 -14 24 -25 53 -25 65 0 11 -13
40 -29 65 -16 24 -41 79 -55 122 -15 43 -37 99 -50 125 -13 26 -29 68 -36 92
-6 25 -22 61 -34 80 -13 19 -26 46 -30 60 -4 14 -22 57 -41 95 -47 93 -122
273 -130 310 -4 17 -20 50 -35 75 -15 25 -33 66 -39 92 -6 26 -22 63 -35 82
-13 19 -31 65 -40 103 -24 96 -50 118 -80 71z"/>
<path d="M21340 3470 c-25 -4 -72 -19 -105 -34 -33 -14 -69 -26 -80 -26 -11 0
-46 -18 -79 -40 -32 -22 -65 -40 -72 -40 -32 0 -233 -220 -274 -299 -10 -21
-26 -43 -34 -50 -9 -8 -23 -39 -32 -70 -8 -31 -27 -79 -40 -108 -63 -128 -70
-644 -11 -734 10 -14 30 -66 45 -116 56 -176 280 -424 442 -488 30 -12 72 -33
93 -47 22 -16 58 -29 90 -33 28 -3 90 -13 137 -22 93 -17 193 -13 295 12 33 8
80 14 104 15 31 0 61 10 100 31 30 17 80 40 110 50 100 35 316 229 342 308 7
20 26 55 44 78 31 41 50 86 94 228 67 218 47 623 -39 795 -9 19 -20 48 -24 64
-4 17 -20 46 -36 65 -15 20 -34 52 -43 71 -25 58 -204 226 -286 267 -25 13
-62 32 -81 42 -59 32 -142 63 -205 77 -65 15 -374 17 -455 4z"/>
<path d="M27820 3466 c-135 -44 -197 -69 -220 -90 -14 -13 -46 -33 -72 -44
-54 -23 -168 -135 -229 -222 -60 -87 -171 -314 -167 -341 l3 -24 889 -2 c668
-2 893 0 904 9 21 18 -3 139 -37 187 -10 14 -26 50 -35 78 -33 99 -184 279
-264 314 -23 10 -59 32 -80 48 -20 16 -52 32 -71 36 -18 4 -57 18 -86 31 -68
31 -455 46 -535 20z"/>
<path d="M1095 3630 c-40 -9 -97 -39 -112 -59 -16 -21 -27 -111 -18 -151 10
-44 103 -116 170 -130 61 -13 132 -38 261 -91 55 -23 146 -58 204 -79 58 -21
132 -48 164 -60 79 -29 110 -22 168 38 85 87 91 134 27 209 -52 61 -110 95
-218 128 -183 56 -218 69 -291 106 -107 55 -297 103 -355 89z"/>
<path d="M8440 3531 c-47 -10 -113 -30 -147 -44 -34 -14 -95 -33 -135 -42 -40
-9 -119 -31 -176 -50 -56 -19 -108 -35 -115 -35 -23 0 -135 -101 -152 -137
-41 -86 34 -197 148 -217 42 -8 238 39 304 72 21 11 83 32 138 47 55 15 116
35 135 45 19 10 66 33 103 50 151 70 192 151 128 252 -51 80 -86 89 -231 59z"/>
<path d="M4602 2486 c-62 -16 -160 -65 -211 -106 -20 -16 -56 -44 -80 -62 -90
-66 -194 -261 -223 -418 -19 -104 -5 -274 31 -365 46 -120 177 -301 240 -334
14 -7 55 -30 91 -51 108 -64 191 -83 360 -84 139 -1 149 0 231 30 205 75 332
189 434 389 l60 117 0 177 c0 218 -9 255 -85 369 -114 170 -219 251 -417 319
-95 32 -337 43 -431 19z"/>
</g><g transform="translate(0.000000,736.000000) scale(0.100000,-0.100000)"
fill="#F5A623" stroke="none">
<path d="M0 3680 l0 -3680 16840 0 16840 0 0 3680 0 3680 -16840 0 -16840 0 0
-3680z m4920 2593 c54 -61 79 -251 80 -608 0 -315 -30 -439 -117 -481 -78 -37
-183 -2 -222 74 -31 62 -55 315 -47 507 17 388 34 465 115 517 64 41 150 37
191 -9z m-2405 -809 c71 -33 299 -295 443 -509 14 -22 41 -58 59 -81 112 -140
105 -256 -20 -336 -83 -53 -143 -35 -241 73 -26 30 -72 79 -101 109 -143 150
-342 483 -353 588 -11 117 109 206 213 156z m4769 -18 c79 -46 101 -156 51
-251 -41 -77 -261 -366 -385 -507 -160 -181 -226 -212 -321 -148 -57 37 -74
69 -74 135 1 56 51 163 105 220 15 17 40 50 55 75 16 25 58 80 94 122 36 42
84 103 106 134 69 99 173 211 217 233 52 26 91 23 152 -13z m-6004 -1842 c52
-13 129 -42 170 -63 73 -37 108 -50 291 -106 108 -33 166 -67 218 -128 64 -75
58 -122 -27 -209 -58 -60 -89 -67 -168 -38 -32 12 -106 39 -164 60 -58 21
-149 56 -204 79 -129 53 -200 78 -261 91 -67 14 -160 86 -170 130 -9 40 2 130
18 151 15 20 72 50 112 59 37 9 63 5 185 -26z m7331 -70 c45 -23 89 -98 89
-153 0 -57 -56 -114 -157 -161 -37 -17 -84 -40 -103 -50 -19 -10 -80 -30 -135
-45 -55 -15 -117 -36 -138 -47 -66 -33 -262 -80 -304 -72 -114 20 -189 131
-148 217 17 36 129 137 152 137 7 0 59 16 115 35 57 19 136 41 176 50 40 9
101 28 135 42 63 26 210 61 260 62 15 1 42 -6 58 -15z m-3578 -1067 c198 -68
303 -149 417 -319 76 -114 85 -151 85 -369 l0 -177 -60 -117 c-102 -200 -229
-314 -434 -389 -82 -30 -92 -31 -231 -30 -169 1 -252 20 -360 84 -36 21 -77
44 -91 51 -63 33 -194 214 -240 334 -36 91 -50 261 -31 365 29 157 133 352
223 418 24 18 60 46 80 62 51 41 149 90 211 106 94 24 336 13 431 -19z"/>
</g>
</svg>
