<?xml version="1.0" standalone="no"?>
<svg version="1.0" xmlns="http://www.w3.org/2000/svg"
 width="856.0" height="648.0" viewBox="0 0 856.0 648.0"
 preserveAspectRatio="xMidYMid meet">
<g transform="translate(0.000000,648.000000) scale(0.100000,-0.100000)"
fill="#1a1a1a" stroke="none">
<path d="M0 3240 l0 -3240 4280 0 4280 0 0 3240 0 3240 -4280 0 -4280 0 0
-3240z m4429 2266 c101 -70 126 -178 111 -470 -6 -111 -15 -274 -19 -363 -12
-235 -37 -271 -195 -280 -104 -6 -158 18 -193 86 -22 41 -23 56 -23 230 0 102
-5 262 -10 355 -17 269 14 410 98 456 59 32 175 25 231 -14z m-1976 -782 c61
-40 80 -58 98 -96 12 -27 31 -56 41 -65 23 -21 89 -118 105 -154 6 -15 25 -42
41 -60 57 -66 132 -241 132 -310 0 -148 -200 -221 -342 -124 -31 21 -169 179
-205 235 -19 30 -52 73 -73 95 -58 61 -165 299 -163 362 1 17 14 56 29 85 40
74 75 91 180 85 78 -4 86 -7 157 -53z m4053 36 c40 -25 74 -92 74 -146 0 -59
-47 -192 -81 -233 -46 -55 -96 -121 -130 -174 -17 -26 -40 -54 -52 -62 -12 -8
-63 -66 -112 -128 -147 -182 -221 -219 -316 -159 -24 16 -56 36 -71 45 -27 17
-78 102 -78 131 0 7 9 33 20 57 11 24 20 57 20 72 0 18 11 40 30 59 17 16 38
44 47 62 8 17 29 47 45 66 63 76 115 148 156 215 57 95 77 116 147 160 76 48
93 53 189 54 63 1 85 -3 112 -19z m-1961 -865 c44 -9 119 -20 167 -25 51 -5
102 -17 126 -29 22 -11 66 -25 98 -30 33 -5 93 -25 134 -44 41 -19 108 -46
149 -60 40 -14 83 -35 95 -46 12 -11 39 -28 61 -37 22 -9 53 -27 70 -41 41
-33 119 -86 181 -122 28 -16 58 -40 67 -54 9 -14 47 -45 84 -70 118 -79 384
-369 487 -532 10 -16 31 -45 47 -62 15 -18 32 -48 38 -68 5 -19 23 -57 40 -85
16 -27 38 -75 47 -106 9 -31 29 -85 45 -118 16 -34 29 -75 29 -92 0 -18 13
-70 29 -115 85 -244 122 -845 67 -1087 -13 -59 -30 -141 -36 -182 -13 -80 -62
-149 -106 -151 -197 -5 -473 -4 -486 3 -25 12 -23 78 3 148 80 217 108 529 79
865 -12 142 -70 346 -136 480 -19 39 -34 75 -34 81 0 5 -12 26 -26 45 -14 19
-37 57 -50 86 -22 48 -61 108 -117 178 -13 17 -34 49 -45 71 -26 51 -282 290
-332 311 -19 8 -48 28 -65 43 -66 62 -353 188 -478 209 -38 7 -92 22 -120 34
-47 19 -73 22 -291 25 -255 4 -364 -5 -436 -36 -25 -11 -70 -23 -100 -27 -30
-4 -72 -16 -92 -26 -21 -11 -79 -34 -131 -53 -51 -18 -109 -44 -129 -57 -41
-27 -82 -53 -143 -89 -146 -86 -390 -337 -489 -503 -10 -18 -30 -50 -45 -72
-49 -77 -103 -191 -141 -300 -21 -60 -45 -130 -54 -155 -86 -250 -108 -551
-54 -760 15 -58 32 -132 38 -165 5 -32 24 -88 40 -124 64 -136 50 -209 -41
-212 -214 -6 -458 4 -473 20 -28 31 -92 270 -117 436 -21 135 -19 507 3 610
10 44 24 125 32 180 19 130 97 392 141 476 19 37 35 73 35 81 0 7 9 29 20 48
11 19 38 71 60 115 22 44 50 95 63 113 12 18 31 46 42 62 19 26 61 82 143 184
17 23 48 62 67 88 20 25 68 72 108 105 39 32 110 90 157 128 111 92 209 165
223 165 5 0 24 11 41 24 17 13 51 33 76 46 25 12 59 35 76 50 18 15 49 31 70
35 22 3 55 15 74 26 49 26 209 79 242 79 14 0 60 14 101 30 51 20 93 30 129
30 30 0 103 9 163 20 61 10 126 21 145 24 61 8 252 -3 335 -19z m-3080 -788
c77 -31 172 -67 212 -81 117 -40 228 -117 250 -174 92 -239 -207 -344 -531
-186 -49 24 -119 53 -155 64 -85 25 -229 114 -253 157 -33 56 -34 120 -3 185
15 31 33 62 40 68 23 19 98 29 200 27 96 -3 105 -5 240 -60z m6164 -43 c71
-42 98 -159 57 -245 -18 -37 -103 -104 -166 -128 -19 -8 -57 -24 -85 -36 -92
-41 -348 -119 -446 -136 -116 -21 -184 8 -224 94 -47 99 -28 180 53 235 26 18
67 47 92 65 47 34 210 94 400 147 127 35 263 37 319 4z m-3068 -893 c73 -31
185 -107 258 -175 46 -43 79 -98 107 -175 12 -36 34 -97 48 -136 62 -170 18
-380 -122 -585 -80 -118 -264 -232 -402 -250 -194 -24 -321 -6 -487 72 -71 33
-164 132 -236 251 -84 139 -90 166 -85 392 5 175 5 182 37 259 70 170 162 267
319 335 93 41 161 50 342 47 139 -2 148 -4 221 -35z"/>
<path d="M4245 5475 c-96 -52 -98 -62 -91 -517 7 -429 10 -451 71 -488 39 -24
110 -27 160 -6 64 27 68 44 78 295 17 404 15 590 -6 633 -40 80 -143 120 -212
83z"/>
<path d="M2198 4715 c-16 -9 -33 -32 -44 -60 -16 -44 -16 -47 5 -113 25 -76
79 -178 120 -225 15 -18 49 -63 76 -102 68 -97 221 -270 251 -284 14 -6 46
-11 71 -11 61 0 133 66 133 121 0 40 -91 243 -124 279 -13 14 -29 36 -36 50
-71 138 -250 341 -310 354 -53 10 -113 6 -142 -9z"/>
<path d="M6322 4720 c-72 -30 -190 -148 -252 -253 -16 -29 -55 -81 -85 -117
-30 -36 -65 -85 -77 -110 -11 -25 -31 -57 -44 -73 -74 -88 -62 -181 30 -243
97 -65 122 -48 351 230 161 195 295 404 295 458 0 80 -128 144 -218 108z"/>
<path d="M1120 3113 c-84 -27 -125 -127 -81 -199 24 -39 158 -119 223 -133 27
-6 88 -30 136 -52 230 -110 405 -120 462 -27 24 40 26 100 3 139 -22 37 -122
102 -193 124 -30 10 -77 26 -105 37 -254 102 -379 133 -445 111z"/>
<path d="M7410 3025 c-114 -34 -149 -43 -200 -55 -96 -22 -286 -113 -387 -185
-45 -32 -19 -143 46 -198 39 -32 50 -33 132 -6 35 11 100 29 144 39 117 27
215 65 348 133 130 66 157 91 157 146 0 112 -104 167 -240 126z"/>
<path d="M4170 2159 c-189 -31 -358 -179 -451 -394 -34 -80 -34 -80 -34 -235
l0 -155 41 -86 c91 -189 182 -279 349 -350 330 -139 684 19 826 367 46 114 53
280 16 369 -14 33 -30 79 -36 101 -25 93 -72 155 -186 246 -162 128 -322 170
-525 137z"/>
</g><g transform="translate(0.000000,648.000000) scale(0.100000,-0.100000)"
fill="#F5A623" stroke="none">
<path d="M0 3240 l0 -3240 4280 0 4280 0 0 3240 0 3240 -4280 0 -4280 0 0
-3240z m4403 2216 c65 -50 72 -77 71 -286 -2 -364 -18 -634 -38 -664 -36 -56
-149 -75 -211 -36 -61 37 -64 59 -71 488 -4 276 -2 387 6 418 30 105 156 147
243 80z m-2063 -732 c60 -13 239 -216 310 -354 7 -14 23 -36 36 -50 33 -36
124 -239 124 -279 0 -55 -72 -121 -133 -121 -25 0 -57 5 -71 11 -30 14 -183
187 -251 284 -27 39 -61 84 -76 102 -41 47 -95 149 -120 225 -45 138 29 212
181 182z m4123 -10 c37 -18 77 -70 77 -102 0 -54 -134 -263 -295 -458 -229
-278 -254 -295 -351 -230 -92 62 -104 155 -30 243 13 16 33 48 44 73 12 25 47
74 77 110 30 36 69 88 85 117 62 105 180 223 252 253 36 14 104 11 141 -6z
m-5083 -1643 c74 -27 158 -58 185 -69 28 -11 75 -27 105 -37 71 -22 171 -87
193 -124 23 -39 21 -99 -3 -139 -57 -93 -232 -83 -462 27 -48 22 -109 46 -136
52 -27 5 -84 31 -127 56 -114 68 -137 120 -95 208 44 92 138 99 340 26z m6199
-49 c64 -32 92 -132 52 -184 -43 -54 -323 -180 -486 -218 -44 -10 -109 -28
-144 -39 -82 -27 -93 -26 -132 6 -65 55 -91 166 -46 198 101 72 291 163 387
185 51 12 86 21 200 55 63 19 129 18 169 -3z m-3171 -861 c86 -13 192 -64 287
-139 114 -91 161 -153 186 -246 6 -22 22 -68 36 -101 23 -54 25 -68 20 -175
-18 -443 -460 -731 -862 -561 -167 71 -258 161 -349 350 l-41 86 0 155 c0 155
0 155 34 235 130 301 374 441 689 396z"/>
</g>
</svg>
