<?xml version="1.0" standalone="no"?>
<svg version="1.0" xmlns="http://www.w3.org/2000/svg"
 width="1456.0" height="1376.0" viewBox="0 0 1456.0 1376.0"
 preserveAspectRatio="xMidYMid meet">
<rect x="0" y="0" width="1456.0" height="1376.0" rx="0" ry="0" fill="#2D2E32"/>
<g transform="translate(0.000000,1376.000000) scale(0.100000,-0.100000)"
fill="#1a1a1a" stroke="none">
<path d="M0 6880 l0 -6880 30 0 30 0 0 3003 c0 1651 0 4078 2 5392 1 1315 1
3040 0 3835 -2 1261 -1 1451 12 1488 l15 42 -44 0 -45 0 0 -6880z"/>
<path d="M7242 10306 c-27 -35 -33 -87 -34 -301 -2 -279 10 -443 34 -467 21
-21 76 -19 128 6 l25 11 -1 345 c0 372 -3 393 -51 411 -61 23 -79 22 -101 -5z"/>
<path d="M5636 9709 c-42 -50 -33 -95 34 -180 22 -28 40 -56 40 -63 0 -7 30
-48 68 -91 63 -74 133 -161 176 -221 17 -25 23 -26 73 -21 79 8 103 27 103 81
0 32 -7 53 -23 73 -13 15 -45 60 -72 98 -27 39 -66 88 -86 110 -20 22 -44 56
-53 75 -9 19 -45 65 -79 103 -61 64 -66 67 -109 67 -39 0 -50 -5 -72 -31z
m480 -494 c6 -16 -12 -45 -28 -45 -15 0 -21 30 -8 45 16 19 29 19 36 0z"/>
<path d="M8885 9726 c-45 -19 -111 -101 -238 -291 -119 -178 -135 -225 -94
-262 74 -67 123 -54 198 56 19 26 68 89 109 138 41 50 83 104 92 119 10 16 34
48 53 72 83 103 -1 220 -120 168z"/>
<path d="M6995 9060 c-199 -35 -348 -81 -470 -147 -251 -135 -360 -219 -543
-418 -136 -147 -243 -307 -278 -415 -9 -30 -28 -71 -40 -90 -13 -20 -27 -51
-30 -70 -4 -19 -20 -62 -36 -95 -15 -33 -28 -69 -28 -80 0 -11 -7 -42 -16 -70
-40 -129 -46 -568 -9 -739 8 -38 15 -85 15 -106 0 -23 8 -48 21 -64 l20 -26
179 0 c211 0 211 0 159 98 -29 55 -32 74 -49 253 -10 106 -17 204 -14 218 2
14 8 85 13 157 9 118 13 137 39 185 17 30 35 79 41 109 7 30 23 71 36 90 13
19 31 55 40 79 29 83 176 301 260 386 104 105 322 245 435 280 14 4 39 20 57
35 18 17 49 31 75 35 24 4 68 18 98 32 112 51 503 51 627 0 32 -14 82 -27 110
-31 29 -4 81 -20 115 -36 35 -17 68 -30 74 -30 7 0 36 -16 65 -36 29 -19 68
-42 87 -49 67 -29 372 -310 372 -344 0 -5 18 -31 40 -57 22 -27 40 -53 40 -59
0 -6 14 -30 31 -53 17 -24 42 -73 56 -110 60 -163 93 -265 93 -288 0 -13 12
-59 28 -101 38 -109 41 -445 4 -527 -12 -27 -25 -68 -28 -90 -3 -23 -13 -58
-22 -80 -24 -58 -13 -62 185 -69 182 -6 208 -1 217 46 44 237 55 615 21 777
-7 36 -16 85 -20 110 -3 24 -15 64 -25 88 -11 23 -24 71 -30 105 -7 35 -22 75
-35 93 -13 17 -27 44 -31 60 -33 147 -346 560 -504 667 -25 17 -61 44 -81 61
-89 75 -118 95 -155 105 -21 6 -59 27 -83 46 -24 19 -49 35 -55 35 -7 0 -43
16 -82 35 -38 19 -79 35 -90 35 -12 0 -37 7 -57 15 -19 8 -103 28 -187 45
-210 42 -418 42 -655 0z"/>
<path d="M4785 8523 c-53 -13 -97 -90 -80 -143 10 -31 118 -97 200 -122 38
-11 90 -31 115 -43 25 -12 69 -28 99 -34 30 -6 74 -20 99 -31 74 -33 87 -29
123 41 35 69 33 92 -8 131 -30 28 -159 84 -293 128 -47 15 -103 37 -125 48
-44 22 -98 32 -130 25z m549 -255 c8 -13 6 -22 -8 -37 -26 -28 -46 -27 -46 3
0 55 29 73 54 34z"/>
<path d="M9761 8459 c-78 -14 -345 -106 -410 -141 -105 -59 -112 -75 -54 -139
34 -37 40 -40 77 -36 74 8 322 65 352 80 16 8 47 20 69 26 80 25 95 34 125 80
68 106 4 159 -159 130z m160 -40 c12 -19 1 -29 -31 -29 -31 0 -80 19 -80 30 0
25 95 24 111 -1z m-573 -158 c22 -14 10 -46 -17 -46 -31 0 -52 31 -31 45 19
12 31 12 48 1z"/>
<path d="M7160 7736 c-151 -27 -299 -177 -331 -334 -17 -87 -7 -231 22 -307
38 -105 191 -233 326 -273 182 -56 365 1 505 157 170 188 80 596 -157 713 -92
46 -249 65 -365 44z"/>
<path d="M8177 5466 c-24 -24 -25 -2021 -1 -2047 29 -32 186 -28 219 6 27 26
26 17 29 320 1 87 23 126 113 208 87 79 141 71 197 -29 26 -47 57 -85 168
-207 31 -34 72 -84 92 -112 86 -121 102 -142 137 -173 l37 -33 142 3 142 3
-48 64 c-27 36 -64 85 -83 110 -18 25 -50 64 -71 86 -21 22 -54 65 -73 95 -19
31 -43 62 -52 70 -10 8 -52 60 -93 114 -41 55 -102 125 -134 157 -69 68 -78
112 -32 152 15 12 133 128 263 257 130 129 249 245 264 257 19 16 27 30 25 45
-3 22 -8 23 -108 26 -58 2 -119 0 -137 -3 -47 -8 -152 -100 -299 -260 -71 -77
-165 -176 -209 -221 -44 -44 -91 -95 -105 -113 -28 -37 -109 -56 -126 -30 -4
7 -9 290 -11 628 -3 422 -7 619 -15 628 -15 19 -211 18 -231 -1z"/>
<path d="M2858 5420 c-16 -10 -73 -120 -96 -185 -15 -43 -60 -153 -83 -201
-10 -22 -19 -47 -19 -56 0 -8 -12 -33 -26 -54 -15 -21 -32 -59 -39 -84 -7 -25
-24 -67 -38 -95 -15 -27 -38 -81 -53 -120 -14 -38 -34 -85 -45 -103 -10 -18
-24 -54 -31 -80 -6 -26 -24 -71 -40 -101 -15 -30 -28 -60 -28 -68 0 -14 -51
-140 -71 -177 -6 -11 -19 -43 -29 -72 -10 -29 -30 -70 -44 -91 -14 -21 -26
-45 -26 -54 0 -9 -13 -43 -30 -74 -16 -31 -30 -63 -30 -70 0 -6 -12 -34 -26
-61 -33 -62 -94 -243 -87 -261 8 -21 49 -26 99 -14 26 7 66 9 90 5 29 -4 49
-2 59 6 18 15 69 115 100 196 13 34 38 83 54 110 17 26 31 56 31 66 0 36 29
76 62 87 38 12 932 17 963 6 37 -14 54 -37 70 -91 8 -29 33 -86 54 -126 22
-40 42 -92 46 -115 4 -23 23 -65 44 -95 l37 -53 104 -1 c171 -1 179 7 116 120
-18 34 -39 79 -46 100 -7 22 -27 71 -45 110 -18 39 -40 96 -48 127 -9 31 -24
62 -32 69 -8 7 -25 45 -37 84 -12 39 -30 84 -40 101 -10 17 -32 71 -48 119
-17 49 -41 109 -54 135 -13 25 -27 62 -31 81 -4 19 -20 55 -35 80 -15 25 -31
63 -35 85 -3 22 -26 83 -49 135 -24 52 -46 107 -50 122 -3 16 -20 49 -36 75
-17 26 -30 57 -30 68 0 12 -12 44 -26 71 -15 27 -44 99 -66 159 -22 61 -44
123 -50 138 -18 47 -53 57 -190 57 -68 0 -131 -5 -140 -10z m176 -353 c16 -16
26 -41 30 -78 4 -30 20 -81 36 -114 34 -71 92 -214 125 -305 12 -36 37 -91 54
-124 17 -32 31 -66 31 -75 0 -10 18 -45 41 -78 48 -73 51 -124 9 -154 -33 -23
-715 -37 -746 -15 -28 21 -13 105 35 185 21 36 42 82 46 101 4 19 16 51 27 70
11 19 31 66 45 105 14 38 35 88 48 110 12 22 30 65 39 95 9 30 27 71 41 92 13
20 27 56 31 80 17 120 56 157 108 105z"/>
<path d="M6970 4870 c-41 -5 -88 -13 -103 -19 -16 -6 -40 -11 -54 -11 -14 0
-41 -11 -59 -25 -18 -14 -54 -34 -79 -45 -78 -33 -203 -169 -265 -287 -106
-202 -112 -503 -13 -698 77 -153 205 -298 280 -316 24 -7 62 -25 84 -41 69
-50 309 -76 454 -50 33 6 81 14 107 17 29 4 59 16 77 31 16 13 48 31 71 39 63
22 130 80 230 200 100 119 122 201 122 450 0 243 -44 387 -156 517 -50 56
-151 133 -188 142 -15 3 -44 20 -64 38 -24 22 -45 31 -67 31 -18 -1 -57 5 -87
13 -75 18 -200 24 -290 14z m276 -250 c32 -12 72 -26 89 -31 16 -5 51 -30 78
-56 44 -43 61 -65 120 -152 9 -14 29 -64 43 -111 30 -96 30 -220 0 -315 -32
-105 -179 -286 -244 -301 -15 -4 -49 -19 -77 -33 -82 -43 -271 -39 -375 8
-181 80 -313 287 -327 511 -5 80 -3 91 26 162 70 166 201 290 354 333 74 21
235 13 313 -15z"/>
<path d="M10070 4859 c-182 -42 -366 -184 -445 -344 -14 -27 -34 -61 -45 -75
-12 -15 -25 -58 -34 -110 -26 -157 -27 -200 -7 -351 18 -136 22 -152 61 -223
53 -97 232 -281 283 -291 17 -4 49 -18 69 -32 118 -80 537 -82 655 -4 24 16
58 32 76 35 55 10 150 97 233 214 21 28 -3 62 -44 62 -13 0 -40 9 -59 21 -46
29 -73 20 -136 -45 -29 -30 -63 -57 -77 -61 -14 -4 -45 -16 -69 -27 -111 -50
-348 -60 -423 -17 -18 10 -51 27 -73 38 -22 11 -76 56 -120 100 -70 70 -83 88
-105 150 l-24 71 20 27 c11 15 34 30 50 35 16 4 276 7 578 6 530 -1 549 -1
563 18 22 29 9 243 -19 304 -11 25 -28 70 -38 100 -33 107 -187 279 -304 340
-149 77 -380 101 -566 59z m425 -240 c87 -44 136 -87 187 -162 65 -96 85 -184
50 -227 l-18 -22 -425 -3 c-454 -2 -478 1 -499 47 -25 54 80 237 178 311 96
74 187 98 348 94 105 -3 116 -5 179 -38z"/>
<path d="M11887 4855 c-31 -7 -69 -21 -83 -31 -14 -11 -41 -28 -59 -39 -18
-11 -46 -35 -63 -52 -23 -25 -38 -33 -65 -33 -47 0 -60 18 -52 74 11 69 3 73
-122 71 -91 -2 -108 -5 -121 -21 -18 -24 -11 -1396 7 -1418 11 -13 207 -16
228 -3 7 4 13 185 18 484 8 553 -1 504 119 630 76 79 86 86 166 113 187 65
350 16 462 -140 47 -66 49 -81 59 -585 8 -430 11 -481 26 -492 11 -8 51 -13
110 -13 83 0 93 2 103 20 20 38 8 1002 -14 1075 -30 99 -156 285 -194 285 -6
0 -25 12 -42 27 -65 55 -330 81 -483 48z"/>
<path d="M3978 4833 c-8 -11 -7 -22 5 -48 9 -18 34 -95 56 -169 22 -74 44
-144 50 -154 5 -10 17 -48 25 -84 8 -36 24 -81 35 -99 11 -19 27 -65 35 -102
9 -37 23 -81 31 -96 8 -16 31 -78 51 -138 20 -59 45 -124 55 -144 10 -20 25
-68 33 -106 8 -37 24 -85 36 -105 12 -20 26 -68 31 -105 12 -89 16 -91 150
-88 137 3 134 0 189 164 23 68 51 138 61 156 11 17 24 58 30 91 6 32 21 77 34
99 13 22 27 58 31 80 4 22 26 92 49 155 24 63 46 129 49 146 12 55 59 89 92
66 21 -14 35 -53 50 -137 8 -46 26 -108 39 -137 14 -30 29 -78 35 -107 5 -28
21 -72 35 -96 15 -24 35 -77 45 -117 10 -40 29 -102 43 -138 14 -36 30 -92 37
-125 20 -94 37 -105 166 -105 129 0 153 16 175 116 7 32 20 75 29 94 10 19 30
80 45 135 15 55 40 132 55 170 15 39 31 93 34 120 4 28 19 70 32 95 14 25 32
76 40 114 8 38 19 75 25 83 6 7 22 48 34 90 13 43 37 112 53 153 49 121 83
223 85 255 3 28 -186 44 -215 18 -25 -22 -64 -110 -77 -174 -6 -30 -20 -76
-31 -104 -10 -27 -33 -97 -50 -155 -18 -58 -41 -123 -53 -145 -11 -22 -26 -66
-33 -98 -8 -31 -25 -74 -38 -95 -16 -25 -26 -59 -31 -107 -9 -86 -18 -110 -50
-131 -42 -27 -70 -1 -90 87 -8 39 -23 85 -31 100 -8 16 -23 55 -34 87 -43 132
-68 199 -82 227 -9 17 -19 53 -22 80 -4 28 -19 70 -33 94 -14 24 -32 70 -39
103 -8 32 -23 76 -33 96 -11 21 -22 54 -26 74 -11 60 -29 69 -129 65 -102 -3
-110 -9 -131 -90 -8 -32 -31 -100 -51 -150 -19 -51 -46 -126 -58 -167 -13 -41
-32 -91 -44 -110 -11 -19 -24 -60 -28 -90 -4 -30 -15 -71 -25 -92 -10 -20 -32
-92 -49 -160 -37 -151 -53 -188 -80 -188 -30 0 -47 35 -75 154 -14 59 -34 125
-45 146 -11 22 -26 65 -34 97 -7 32 -24 75 -38 95 -16 23 -28 59 -33 95 -4 32
-21 92 -39 133 -18 41 -48 122 -66 179 -48 150 -54 155 -179 156 -74 1 -105
-2 -113 -12z"/>
</g><g transform="translate(0.000000,1376.000000) scale(0.100000,-0.100000)"
fill="#F5A623" stroke="none">
<path d="M0 6880 l0 -6880 7280 0 7280 0 0 6880 0 6880 -7280 0 -7280 0 0
-6880z m7343 3431 c48 -18 51 -39 51 -411 l1 -345 -25 -11 c-52 -25 -107 -27
-128 -6 -24 24 -36 188 -34 467 2 315 17 351 135 306z m-1526 -638 c34 -38 70
-84 79 -103 9 -19 33 -53 53 -75 20 -22 59 -71 86 -110 27 -38 59 -83 72 -98
16 -20 23 -41 23 -73 0 -54 -24 -73 -103 -81 -50 -5 -56 -4 -73 21 -43 60
-113 147 -176 221 -38 43 -68 84 -68 91 0 7 -18 35 -40 63 -67 85 -76 130 -34
180 22 26 33 31 72 31 43 0 48 -3 109 -67z m3166 56 c67 -34 76 -105 22 -171
-19 -24 -43 -56 -53 -72 -9 -15 -51 -69 -92 -119 -41 -49 -90 -112 -109 -138
-75 -110 -124 -123 -198 -56 -41 37 -25 84 94 262 187 280 252 337 336 294z
m-4068 -1231 c22 -11 78 -33 125 -48 134 -44 263 -100 293 -128 41 -39 43 -62
8 -131 -36 -70 -49 -74 -123 -41 -25 11 -69 25 -99 31 -30 6 -74 22 -99 34
-25 12 -77 32 -115 43 -82 25 -190 91 -200 122 -17 53 27 130 80 143 32 7 86
-3 130 -25z m5010 -52 c34 -22 32 -58 -5 -117 -30 -46 -45 -55 -125 -80 -22
-6 -53 -18 -69 -26 -30 -15 -278 -72 -352 -80 -68 -8 -142 90 -96 129 41 35
139 80 279 127 217 73 310 85 368 47z m-2480 -723 c245 -76 382 -356 303 -621
-47 -160 -246 -302 -424 -302 -191 0 -416 140 -473 295 -45 120 -38 312 14
415 25 50 128 152 190 190 78 48 273 59 390 23z"/>
<path d="M6080 9215 c-13 -15 -7 -45 8 -45 16 0 34 29 28 45 -7 19 -20 19 -36
0z"/>
<path d="M5286 8275 c-11 -29 -7 -65 7 -65 25 0 52 39 41 58 -15 23 -40 27
-48 7z"/>
<path d="M9818 8434 c-19 -19 21 -44 72 -44 61 0 43 40 -21 47 -24 3 -47 1
-51 -3z"/>
<path d="M9300 8260 c-12 -7 -12 -13 -4 -27 15 -24 58 -24 62 1 6 30 -28 45
-58 26z"/>
</g><g transform="translate(0.000000,1376.000000) scale(0.100000,-0.100000)"
fill="#FFFFFF" stroke="none">
<path d="M79 13733 c-5 -16 -12 -34 -15 -42 -2 -8 -4 -665 -3 -1460 1 -795 0
-3873 -1 -6838 l-2 -5393 7251 0 7251 0 0 6880 0 6880 -7235 0 -7235 0 -11
-27z m7571 -4673 c84 -17 168 -37 187 -45 20 -8 45 -15 57 -15 11 0 52 -16 90
-35 39 -19 75 -35 82 -35 6 0 31 -16 55 -35 24 -19 62 -40 83 -46 37 -10 66
-30 155 -105 20 -17 56 -44 81 -61 158 -107 471 -520 504 -667 4 -16 18 -43
31 -60 13 -18 28 -58 35 -93 6 -34 19 -82 30 -105 10 -24 22 -64 25 -88 4 -25
13 -74 20 -110 34 -162 23 -540 -21 -777 -9 -47 -35 -52 -217 -46 -198 7 -209
11 -185 69 9 22 19 57 22 80 3 22 16 63 28 90 37 82 34 418 -4 527 -16 42 -28
88 -28 101 0 23 -33 125 -93 288 -14 37 -39 86 -56 110 -17 23 -31 47 -31 53
0 6 -18 32 -40 59 -22 26 -40 52 -40 57 0 34 -305 315 -372 344 -19 7 -58 30
-87 49 -29 20 -58 36 -65 36 -6 0 -39 13 -74 30 -34 16 -86 32 -115 36 -28 4
-78 17 -110 31 -124 51 -515 51 -627 0 -30 -14 -74 -28 -98 -32 -26 -4 -57
-18 -75 -35 -18 -15 -43 -31 -57 -35 -113 -35 -331 -175 -435 -280 -84 -85
-231 -303 -260 -386 -9 -24 -27 -60 -40 -79 -13 -19 -29 -60 -36 -90 -6 -30
-24 -79 -41 -109 -26 -48 -30 -67 -39 -185 -5 -72 -11 -143 -13 -157 -3 -14 4
-112 14 -218 17 -179 20 -198 49 -253 52 -98 52 -98 -159 -98 l-179 0 -20 26
c-13 16 -21 41 -21 64 0 21 -7 68 -15 106 -37 171 -31 610 9 739 9 28 16 59
16 70 0 11 13 47 28 80 16 33 32 76 36 95 3 19 17 50 30 70 12 19 31 60 40 90
35 108 142 268 278 415 183 199 292 283 543 418 290 156 766 218 1125 147z
m758 -3593 c8 -9 12 -206 15 -628 2 -338 7 -621 11 -628 17 -26 98 -7 126 30
14 18 61 69 105 113 44 45 138 144 209 221 147 160 252 252 299 260 18 3 79 5
137 3 100 -3 105 -4 108 -26 2 -15 -6 -29 -25 -45 -15 -12 -134 -128 -264
-257 -130 -129 -248 -245 -263 -257 -46 -40 -37 -84 32 -152 32 -32 93 -102
134 -157 41 -54 83 -106 93 -114 9 -8 33 -39 52 -70 19 -30 52 -73 73 -95 21
-22 53 -61 71 -86 19 -25 56 -74 83 -110 l48 -64 -142 -3 -142 -3 -37 33 c-35
31 -51 52 -137 173 -20 28 -61 78 -92 112 -111 122 -142 160 -168 207 -56 100
-110 108 -197 29 -90 -82 -112 -121 -113 -208 -3 -303 -2 -294 -29 -320 -33
-34 -190 -38 -219 -6 -24 26 -23 2023 1 2047 20 19 216 20 231 1z m-5259 -52
c16 -8 33 -27 39 -42 6 -15 28 -77 50 -138 22 -60 51 -132 66 -159 14 -27 26
-59 26 -71 0 -11 13 -42 30 -68 16 -26 33 -59 36 -75 4 -15 26 -70 50 -122 23
-52 46 -113 49 -135 4 -22 20 -60 35 -85 15 -25 31 -61 35 -80 4 -19 18 -56
31 -81 13 -26 37 -86 54 -135 16 -48 38 -102 48 -119 10 -17 28 -62 40 -101
12 -39 29 -77 37 -84 8 -7 23 -38 32 -69 8 -31 30 -88 48 -127 18 -39 38 -88
45 -110 7 -21 28 -66 46 -100 63 -113 55 -121 -116 -120 l-104 1 -37 53 c-21
30 -40 72 -44 95 -4 23 -24 75 -46 115 -21 40 -46 97 -54 126 -16 54 -33 77
-70 91 -31 11 -925 6 -963 -6 -33 -11 -62 -51 -62 -87 0 -10 -14 -40 -31 -66
-16 -27 -41 -76 -54 -110 -31 -81 -82 -181 -100 -196 -10 -8 -30 -10 -59 -6
-24 4 -64 2 -90 -5 -50 -12 -91 -7 -99 14 -7 18 54 199 87 261 14 27 26 55 26
61 0 7 14 39 30 70 17 31 30 65 30 74 0 9 12 33 26 54 14 21 34 62 44 91 10
29 23 61 29 72 20 37 71 163 71 177 0 8 13 38 28 68 16 30 34 75 40 101 7 26
21 62 31 80 11 18 31 65 45 103 15 39 38 93 53 120 14 28 31 70 38 95 7 25 24
63 39 84 14 21 26 46 26 54 0 9 9 34 19 56 23 48 68 158 83 201 23 65 80 175
96 185 28 16 258 12 291 -5z m4111 -559 c30 -8 69 -14 87 -13 22 0 43 -9 67
-31 20 -18 49 -35 64 -38 37 -9 138 -86 188 -142 112 -130 156 -274 156 -517
0 -249 -22 -331 -122 -450 -100 -120 -167 -178 -230 -200 -23 -8 -55 -26 -71
-39 -18 -15 -48 -27 -77 -31 -26 -3 -74 -11 -107 -17 -145 -26 -385 0 -454 50
-22 16 -60 34 -84 41 -75 18 -203 163 -280 316 -99 195 -93 496 13 698 62 118
187 254 265 287 25 11 61 31 79 45 18 14 45 25 59 25 14 0 38 5 54 11 77 29
283 32 393 5z m3220 0 c130 -33 201 -73 296 -165 96 -94 142 -158 164 -231 10
-30 27 -75 38 -100 28 -61 41 -275 19 -304 -14 -19 -33 -19 -563 -18 -302 1
-562 -2 -578 -6 -16 -5 -39 -20 -50 -35 l-20 -27 24 -71 c22 -62 35 -80 105
-150 44 -44 98 -89 120 -100 22 -11 55 -28 73 -38 75 -43 312 -33 423 17 24
11 55 23 69 27 14 4 48 31 77 61 63 65 90 74 136 45 19 -12 46 -21 59 -21 41
0 65 -34 44 -62 -83 -117 -178 -204 -233 -214 -18 -3 -52 -19 -76 -35 -118
-78 -537 -76 -655 4 -20 14 -52 28 -69 32 -51 10 -230 194 -283 291 -39 71
-43 87 -61 223 -20 151 -19 194 7 351 9 52 22 95 34 110 11 14 31 48 45 75 52
105 181 232 300 293 140 73 378 93 555 48z m1776 -5 c56 -12 92 -26 114 -44
17 -15 36 -27 42 -27 38 0 164 -186 194 -285 22 -73 34 -1037 14 -1075 -10
-18 -20 -20 -103 -20 -59 0 -99 5 -110 13 -15 11 -18 62 -26 492 -7 326 -13
491 -22 515 -25 73 -105 164 -169 192 -125 56 -208 60 -330 18 -80 -27 -90
-34 -166 -113 -120 -126 -111 -77 -119 -630 -5 -299 -11 -480 -18 -484 -21
-13 -217 -10 -228 3 -18 22 -25 1394 -7 1418 13 16 30 19 121 21 125 2 133 -2
122 -71 -8 -56 5 -74 52 -74 27 0 42 8 65 33 17 17 45 41 63 52 18 11 45 28
59 39 64 45 303 60 452 27z m-8041 -33 c12 -14 37 -72 55 -129 18 -57 48 -138
66 -179 18 -41 35 -101 39 -133 5 -36 17 -72 33 -95 14 -20 31 -63 38 -95 8
-32 23 -75 34 -97 11 -21 31 -87 45 -146 28 -119 45 -154 75 -154 27 0 43 37
80 188 17 68 39 140 49 160 10 21 21 62 25 92 4 30 17 71 28 90 12 19 31 69
44 110 12 41 39 116 58 167 20 50 43 118 51 150 21 81 29 87 131 90 100 4 118
-5 129 -65 4 -20 15 -53 26 -74 10 -20 25 -64 33 -96 7 -33 25 -79 39 -103 14
-24 29 -66 33 -94 3 -27 13 -63 22 -80 14 -28 39 -95 82 -227 11 -32 26 -71
34 -87 8 -15 23 -61 31 -100 20 -88 48 -114 90 -87 32 21 41 45 50 131 5 48
15 82 31 107 13 21 30 64 38 95 7 32 22 76 33 98 12 22 35 87 53 145 17 58 40
128 50 155 11 28 25 74 31 104 13 64 52 152 77 174 29 26 218 10 215 -18 -2
-32 -36 -134 -85 -255 -16 -41 -40 -110 -53 -153 -12 -42 -28 -83 -34 -90 -6
-8 -17 -45 -25 -83 -8 -38 -26 -89 -40 -114 -13 -25 -28 -67 -32 -95 -3 -27
-19 -81 -34 -120 -15 -38 -40 -115 -55 -170 -15 -55 -35 -116 -45 -135 -9 -19
-22 -62 -29 -94 -22 -100 -46 -116 -175 -116 -129 0 -146 11 -166 105 -7 33
-23 89 -37 125 -14 36 -33 98 -43 138 -10 40 -30 93 -45 117 -14 24 -30 68
-35 96 -6 29 -21 77 -35 107 -13 29 -31 91 -39 137 -15 84 -29 123 -50 137
-33 23 -80 -11 -92 -66 -3 -17 -25 -83 -49 -146 -23 -63 -45 -133 -49 -155 -4
-22 -18 -58 -31 -80 -13 -22 -28 -67 -34 -99 -6 -33 -19 -74 -30 -91 -10 -18
-38 -88 -61 -156 -55 -164 -52 -161 -189 -164 -134 -3 -138 -1 -150 88 -5 37
-19 85 -31 105 -12 20 -28 68 -36 105 -8 38 -23 86 -33 106 -10 20 -35 85 -55
144 -20 60 -43 122 -51 138 -8 15 -22 59 -31 96 -8 37 -24 83 -35 102 -11 18
-27 63 -35 99 -8 36 -20 74 -25 84 -6 10 -28 80 -50 154 -22 74 -47 151 -56
169 -26 54 -12 61 108 60 96 0 102 -2 124 -27z"/>
<path d="M2968 5080 c-18 -11 -33 -52 -42 -118 -4 -24 -18 -60 -31 -80 -14
-21 -32 -62 -41 -92 -9 -30 -27 -73 -39 -95 -13 -22 -34 -72 -48 -110 -14 -39
-34 -86 -45 -105 -11 -19 -23 -51 -27 -70 -4 -19 -25 -65 -46 -101 -48 -80
-63 -164 -35 -185 31 -22 713 -8 746 15 42 30 39 81 -9 154 -23 33 -41 68 -41
78 0 9 -14 43 -31 75 -17 33 -42 88 -54 124 -33 91 -91 234 -125 305 -16 33
-32 84 -36 114 -9 78 -51 117 -96 91z"/>
<path d="M6933 4635 c-153 -43 -284 -167 -354 -333 -29 -71 -31 -82 -26 -162
14 -224 146 -431 327 -511 104 -47 293 -51 375 -8 28 14 62 29 77 33 65 15
212 196 244 301 30 95 30 219 0 315 -14 47 -34 97 -43 111 -59 87 -76 109
-120 152 -27 26 -62 51 -78 56 -17 5 -57 19 -89 31 -78 28 -239 36 -313 15z"/>
<path d="M10144 4646 c-68 -16 -120 -40 -176 -83 -98 -74 -203 -257 -178 -311
21 -46 45 -49 499 -47 l425 3 18 22 c48 59 -21 228 -131 321 -87 75 -161 102
-285 106 -69 2 -134 -3 -172 -11z"/>
</g>
</svg>
