<?xml version="1.0" standalone="no"?>
<svg version="1.0" xmlns="http://www.w3.org/2000/svg"
 width="592.0" height="592.0" viewBox="0 0 592.0 592.0"
 preserveAspectRatio="xMidYMid meet">
<rect x="0" y="0" width="592.0" height="592.0" rx="130" ry="130" fill="#FFFFFF"/>
<g transform="translate(0.000000,592.000000) scale(0.100000,-0.100000)"
fill="#1a1a1a" stroke="none">
<path d="M0 2960 l0 -2960 2960 0 2960 0 0 2960 0 2960 -2960 0 -2960 0 0
-2960z m3040 1458 c67 -46 92 -110 112 -278 12 -111 -2 -252 -33 -312 -58
-115 -269 -98 -269 21 0 11 -9 44 -21 73 -26 64 -21 189 12 328 30 130 36 139
93 166 63 29 65 29 106 2z m1301 -458 c59 -62 59 -87 0 -225 -31 -71 -60 -124
-73 -133 -13 -9 -60 -51 -105 -95 -130 -126 -224 -124 -278 7 -20 47 -14 79
26 129 17 20 35 52 41 70 11 34 115 177 128 177 4 0 30 20 58 45 89 80 144 87
203 25z m-2527 16 c18 -7 43 -30 55 -49 12 -20 35 -44 51 -54 33 -21 130 -131
130 -148 0 -5 14 -39 30 -73 48 -102 33 -175 -43 -214 -72 -36 -117 -16 -260
122 -71 67 -95 105 -142 225 -35 86 -35 117 -4 151 47 51 119 67 183 40z
m1336 -532 c123 -7 362 -67 406 -101 18 -13 49 -29 68 -34 20 -6 51 -22 69
-38 17 -15 50 -38 72 -50 127 -74 392 -364 436 -477 5 -14 20 -40 34 -58 13
-18 31 -51 40 -75 8 -23 24 -55 35 -70 27 -39 95 -249 110 -342 26 -162 -2
-546 -46 -638 -35 -69 -62 -81 -194 -81 -168 0 -199 27 -161 144 45 141 51
353 16 556 -19 109 -67 262 -96 302 -10 15 -29 51 -42 80 -52 117 -288 329
-422 379 -29 11 -60 28 -70 38 -9 11 -36 23 -58 26 -23 4 -60 15 -82 25 -157
69 -561 38 -695 -55 -19 -13 -51 -30 -70 -36 -19 -6 -51 -24 -70 -38 -19 -15
-60 -44 -90 -64 -70 -46 -134 -113 -193 -202 -25 -38 -56 -82 -68 -98 -11 -15
-36 -69 -54 -120 -18 -50 -42 -113 -54 -138 -33 -74 -56 -326 -41 -454 6 -55
13 -118 16 -140 2 -22 13 -54 24 -70 11 -17 20 -45 20 -62 0 -50 -26 -61 -165
-68 -171 -9 -198 12 -242 191 -25 102 -24 515 1 594 9 30 22 75 27 100 20 89
72 241 89 263 10 12 25 40 34 62 9 22 26 50 38 62 28 30 82 109 112 164 14 25
37 54 53 64 15 10 59 47 98 81 38 35 93 83 120 107 58 51 341 200 400 211 22
4 65 17 95 28 68 24 253 47 340 42 36 -2 108 -6 160 -10z m-2009 -442 c245
-53 418 -198 379 -318 -15 -45 -53 -64 -129 -64 -165 0 -466 112 -497 185 -31
75 -8 160 56 203 39 26 40 26 191 -6z m3890 -55 c56 -42 72 -115 36 -168 -26
-40 -139 -119 -170 -119 -12 0 -45 -11 -72 -24 -68 -31 -232 -45 -268 -21 -83
54 -55 190 52 247 141 76 373 123 422 85z m-1956 -528 c83 -15 120 -37 200
-116 168 -164 203 -388 88 -556 -100 -147 -213 -201 -412 -195 l-126 4 -80 48
c-118 72 -141 98 -167 180 -17 56 -27 228 -16 286 32 177 189 310 413 350 22
4 40 8 41 9 0 0 27 -4 59 -10z"/>
<path d="M2953 4364 c-14 -6 -58 -146 -67 -215 -8 -57 11 -254 27 -288 34 -70
126 -60 146 16 36 138 35 237 -1 373 -29 111 -52 135 -105 114z"/>
<path d="M4227 3925 c-65 -34 -201 -187 -217 -244 -5 -21 -24 -55 -40 -76 -36
-46 -38 -78 -5 -110 43 -43 61 -35 172 82 101 107 176 218 189 279 11 56 -47
96 -99 69z"/>
<path d="M1679 3899 c-24 -24 -22 -34 38 -154 66 -132 195 -255 268 -255 23 0
65 38 65 60 0 43 -121 222 -209 308 -73 70 -120 83 -162 41z"/>
<path d="M965 2945 c-55 -54 -27 -133 58 -161 28 -9 74 -28 100 -41 100 -50
291 -78 321 -47 23 23 20 67 -6 91 -64 56 -225 136 -332 164 -93 24 -112 24
-141 -6z"/>
<path d="M4882 2889 c-23 -4 -77 -23 -120 -42 -42 -19 -93 -40 -113 -46 -64
-20 -93 -73 -64 -117 16 -24 19 -25 83 -19 170 18 352 110 352 179 0 56 -32
66 -138 45z"/>
<path d="M2915 2346 c-137 -38 -215 -98 -267 -204 -64 -129 -37 -331 56 -425
162 -162 418 -159 569 5 82 90 110 185 93 320 -15 118 -146 271 -259 302 -90
25 -110 25 -192 2z"/>
</g><g transform="translate(0.000000,592.000000) scale(0.100000,-0.100000)"
fill="#F5A623" stroke="none">
<path d="M0 2960 l0 -2960 2960 0 2960 0 0 2960 0 2960 -2960 0 -2960 0 0
-2960z m3024 1388 c20 -31 53 -160 61 -235 5 -58 -5 -153 -26 -236 -20 -76
-112 -86 -146 -16 -16 34 -35 231 -27 288 9 69 53 209 67 215 29 11 57 5 71
-16z m1289 -441 c41 -47 -27 -173 -176 -330 -111 -117 -129 -125 -172 -82 -33
32 -31 64 5 110 16 21 35 55 40 76 11 41 53 95 135 177 87 85 127 97 168 49z
m-2472 -49 c88 -86 209 -265 209 -308 0 -22 -42 -60 -65 -60 -93 0 -273 207
-320 367 -9 33 26 63 73 63 34 0 47 -8 103 -62z m-735 -907 c107 -28 268 -108
332 -164 26 -24 29 -68 6 -91 -30 -31 -221 -3 -321 47 -26 13 -72 32 -100 41
-85 28 -113 107 -58 161 29 30 48 30 141 6z m3902 -63 c24 -24 14 -74 -19
-102 -63 -53 -213 -109 -321 -121 -64 -6 -67 -5 -83 19 -29 44 0 97 64 117 20
6 71 27 113 46 110 48 220 67 246 41z m-1901 -544 c113 -31 244 -184 259 -302
23 -183 -50 -326 -209 -407 -65 -33 -74 -35 -167 -35 -94 0 -101 2 -171 37
-147 76 -203 172 -204 348 0 184 101 306 300 361 82 23 102 23 192 -2z"/>
</g><g transform="translate(0.000000,592.000000) scale(0.100000,-0.100000)"
fill="#FFFFFF" stroke="none">
<path d="M2934 4416 c-57 -27 -63 -36 -93 -166 -33 -139 -38 -264 -12 -328 12
-29 21 -62 21 -73 0 -119 211 -136 269 -21 31 60 45 201 33 312 -20 168 -45
232 -112 278 -41 27 -43 27 -106 -2z"/>
<path d="M4211 3989 c-13 -5 -46 -29 -73 -54 -28 -25 -54 -45 -58 -45 -13 0
-117 -143 -128 -177 -6 -18 -24 -50 -41 -70 -40 -50 -46 -82 -26 -129 54 -131
148 -133 278 -7 45 44 92 86 105 95 35 24 125 242 117 285 -15 80 -101 131
-174 102z"/>
<path d="M1685 3976 c-81 -36 -93 -83 -50 -191 47 -120 71 -158 142 -225 143
-138 188 -158 260 -122 76 39 91 112 43 214 -16 34 -30 68 -30 73 0 17 -97
127 -130 148 -16 10 -39 34 -51 54 -36 57 -116 79 -184 49z"/>
<path d="M2815 3445 c-60 -8 -135 -23 -165 -33 -30 -11 -73 -24 -95 -28 -59
-11 -342 -160 -400 -211 -27 -24 -82 -72 -120 -107 -39 -34 -83 -71 -98 -81
-16 -10 -39 -39 -53 -64 -30 -55 -84 -134 -112 -164 -12 -12 -29 -40 -38 -62
-9 -22 -24 -50 -34 -62 -17 -22 -69 -174 -89 -263 -5 -25 -18 -70 -27 -100
-25 -79 -26 -492 -1 -594 44 -179 71 -200 242 -191 139 7 165 18 165 68 0 17
-9 45 -20 62 -11 16 -22 48 -24 70 -3 22 -10 85 -16 140 -15 128 8 380 41 454
12 25 36 88 54 138 18 51 43 105 54 120 12 16 43 60 68 98 59 89 123 156 193
202 30 20 71 49 90 64 19 14 51 32 70 38 19 6 51 23 70 36 134 93 538 124 695
55 22 -10 59 -21 82 -25 22 -3 49 -15 58 -26 10 -10 41 -27 70 -38 134 -50
370 -262 422 -379 13 -29 32 -65 42 -80 29 -40 77 -193 96 -302 35 -203 29
-415 -16 -556 -38 -117 -7 -144 161 -144 132 0 159 12 194 81 44 92 72 476 46
638 -15 93 -83 303 -110 342 -11 15 -27 47 -35 70 -9 24 -27 57 -40 75 -14 18
-29 44 -34 58 -44 113 -309 403 -436 477 -22 12 -55 35 -72 50 -18 16 -49 32
-69 38 -19 5 -50 21 -68 34 -21 16 -79 37 -171 60 -130 33 -173 38 -395 51
-36 2 -114 -2 -175 -9z"/>
<path d="M950 3008 c-64 -43 -87 -128 -56 -203 31 -73 332 -185 497 -185 76 0
114 19 129 64 39 120 -134 265 -379 318 -151 32 -152 32 -191 6z"/>
<path d="M4860 2950 c-61 -9 -187 -53 -251 -88 -107 -57 -135 -193 -52 -247
36 -24 200 -10 268 21 27 13 60 24 72 24 31 0 144 79 170 119 29 42 29 76 2
121 -38 61 -78 71 -209 50z"/>
<path d="M2975 2420 c-224 -40 -381 -173 -413 -350 -11 -58 -1 -230 16 -286
26 -82 49 -108 167 -180 l80 -48 126 -4 c122 -3 128 -3 209 29 239 92 338 364
217 594 -35 66 -150 186 -207 215 -28 14 -151 45 -154 39 -1 -1 -19 -5 -41 -9z"/>
</g>
</svg>
