<?xml version="1.0" standalone="no"?>
<svg version="1.0" xmlns="http://www.w3.org/2000/svg"
 width="1216.0" height="912.0" viewBox="0 0 1216.0 912.0"
 preserveAspectRatio="xMidYMid meet">
<g transform="translate(0.000000,912.000000) scale(0.100000,-0.100000)"
fill="#1a1a1a" stroke="none">
<path d="M0 4560 l0 -4560 6080 0 6080 0 0 4560 0 4560 -6080 0 -6080 0 0
-4560z m6214 3527 c49 -33 75 -136 102 -415 39 -401 -33 -611 -212 -612 -79 0
-126 49 -184 191 -33 79 -35 91 -34 194 2 417 41 603 134 653 34 18 161 10
194 -11z m-1867 -669 c71 -28 143 -97 214 -203 29 -44 72 -100 96 -126 43 -46
113 -167 113 -196 0 -7 9 -31 20 -53 23 -44 25 -85 7 -116 -25 -43 -83 -107
-109 -120 -113 -58 -293 78 -453 341 -22 37 -50 79 -62 94 -96 120 -116 276
-44 345 59 57 131 68 218 34z m3740 -4 c64 -40 104 -138 83 -206 -15 -53 -102
-198 -153 -258 -21 -24 -60 -81 -87 -125 -27 -45 -61 -87 -75 -95 -15 -8 -33
-26 -41 -41 -31 -61 -135 -121 -210 -123 -87 -1 -180 79 -191 164 -14 105 144
393 244 444 18 9 41 29 50 44 108 170 280 259 380 196z m-1639 -819 c68 -14
132 -25 143 -25 11 0 45 -13 77 -29 31 -15 80 -32 107 -35 28 -4 70 -20 95
-36 25 -15 59 -31 77 -35 18 -3 49 -18 69 -31 20 -14 61 -38 92 -54 101 -53
177 -104 267 -180 139 -118 363 -340 397 -395 18 -27 50 -71 72 -96 44 -50 96
-130 96 -147 0 -6 18 -32 40 -57 22 -25 40 -55 40 -66 0 -11 23 -89 50 -173
28 -84 50 -166 50 -183 0 -17 15 -75 33 -129 l32 -99 0 -390 0 -390 -28 -111
c-32 -126 -55 -170 -94 -185 -48 -18 -439 -7 -459 13 -24 23 -21 86 5 130 13
21 28 74 36 122 8 46 18 102 24 123 32 118 30 538 -3 638 -9 28 -21 81 -26
119 -7 48 -20 83 -40 114 -17 25 -30 56 -30 69 0 25 -23 77 -46 103 -7 9 -20
34 -28 55 -15 44 -69 132 -114 185 -16 19 -39 54 -50 76 -36 71 -190 216 -325
306 -22 15 -50 36 -61 47 -56 52 -237 138 -376 177 -116 33 -421 68 -525 60
-159 -13 -322 -38 -395 -61 -117 -37 -210 -74 -239 -95 -15 -10 -51 -30 -81
-44 -126 -60 -301 -200 -390 -311 -25 -31 -75 -92 -112 -136 -41 -48 -71 -94
-78 -118 -6 -22 -21 -53 -34 -68 -47 -56 -142 -288 -160 -389 -4 -21 -17 -68
-29 -104 -30 -89 -32 -523 -3 -630 10 -36 24 -90 31 -120 7 -30 24 -87 36
-127 40 -128 21 -140 -234 -142 -161 -1 -182 1 -211 18 -54 34 -76 75 -92 169
-7 48 -23 128 -34 177 -18 76 -22 123 -22 305 0 206 6 285 37 450 7 41 18 104
24 139 6 37 21 79 35 100 13 20 27 56 31 81 4 25 17 68 30 95 12 28 30 75 38
105 9 30 29 76 46 101 16 26 38 66 50 90 19 40 47 80 114 164 13 17 34 48 45
70 20 40 247 273 309 317 17 13 57 43 88 68 32 25 74 56 95 70 20 14 57 40 80
58 24 17 51 32 60 32 9 0 42 18 73 40 33 24 75 44 101 49 25 5 61 20 81 35 20
16 58 31 92 37 32 6 75 20 97 31 21 11 89 29 149 39 61 11 115 23 120 26 49
30 484 22 655 -12z m-3049 -655 c51 -17 122 -38 159 -46 37 -9 87 -24 112 -34
25 -10 62 -21 84 -25 46 -8 180 -130 196 -181 19 -56 2 -113 -49 -168 -81 -86
-166 -100 -281 -45 -36 17 -90 34 -120 39 -67 10 -246 85 -318 133 -155 105
-175 158 -98 264 58 79 57 79 207 92 9 0 58 -13 108 -29z m5707 -60 c48 -24
104 -103 104 -148 0 -115 -166 -237 -380 -277 -19 -4 -77 -20 -128 -35 -133
-41 -236 -55 -287 -38 -54 18 -108 118 -102 186 10 94 153 198 375 271 228 75
327 84 418 41z m-2774 -833 c42 -20 81 -37 86 -37 11 0 113 -67 127 -84 6 -6
25 -22 43 -35 22 -15 44 -46 61 -85 43 -95 50 -114 71 -221 22 -107 22 -111
-21 -304 -15 -67 -67 -162 -112 -206 -23 -23 -65 -66 -94 -97 -107 -114 -310
-152 -568 -106 -73 12 -87 19 -162 75 -108 80 -184 168 -236 272 l-42 84 0
181 c0 176 1 182 26 231 15 28 30 66 34 85 14 62 122 163 234 217 142 68 165
73 331 70 144 -3 145 -3 222 -40z m920 -2123 c35 -22 41 -66 33 -259 -4 -104
-6 -309 -5 -455 2 -146 3 -326 4 -400 1 -168 5 -170 125 -38 177 194 429 423
535 485 33 20 270 17 290 -3 39 -38 22 -69 -101 -194 -65 -65 -126 -127 -136
-137 -10 -10 -85 -85 -167 -166 -83 -82 -150 -151 -150 -155 1 -16 27 -52 53
-72 15 -12 37 -40 48 -61 25 -50 80 -123 127 -170 21 -20 57 -63 82 -95 25
-32 78 -91 118 -131 39 -40 72 -77 72 -83 0 -6 25 -37 55 -70 45 -49 55 -66
55 -95 0 -56 -31 -69 -154 -67 -121 3 -166 14 -209 51 -17 15 -46 37 -64 49
-30 21 -84 88 -128 158 -25 40 -137 182 -190 243 -23 25 -49 58 -58 74 -34 54
-143 17 -191 -66 -22 -39 -24 -56 -30 -226 -6 -200 -17 -243 -66 -269 -32 -17
-156 -10 -197 12 -55 28 -56 35 -52 533 2 252 3 702 1 1000 -3 548 -2 564 34
594 29 24 232 34 266 13z m-5365 -4 c88 0 129 -27 139 -91 4 -22 19 -59 34
-82 15 -24 33 -61 40 -83 7 -21 27 -66 45 -99 19 -33 41 -85 51 -115 9 -30 28
-75 42 -98 14 -24 29 -64 34 -90 5 -27 19 -57 34 -73 14 -15 32 -52 40 -85 9
-33 33 -91 54 -130 21 -40 41 -87 45 -105 4 -19 18 -51 31 -71 13 -20 28 -59
34 -85 5 -26 23 -77 39 -113 16 -36 48 -119 71 -185 23 -66 59 -156 80 -200
20 -44 40 -93 44 -110 4 -16 17 -46 29 -65 23 -37 76 -184 77 -211 0 -8 -12
-26 -26 -40 -24 -22 -33 -24 -129 -24 -111 0 -144 14 -161 69 -4 12 -15 33
-25 47 -10 15 -34 67 -53 115 -18 49 -43 105 -54 124 -11 19 -23 51 -26 70 -4
23 -24 54 -56 89 -45 48 -53 53 -83 47 -17 -3 -212 -8 -431 -11 -486 -7 -462
0 -506 -140 -7 -22 -28 -71 -47 -110 -18 -38 -33 -75 -33 -81 0 -6 -13 -29
-29 -51 -16 -22 -39 -59 -50 -81 -23 -45 -72 -87 -113 -97 -40 -10 -200 13
-220 32 -27 24 -23 79 7 115 14 16 28 42 31 56 3 15 20 61 39 102 19 41 39 93
46 115 6 22 26 67 44 100 18 33 36 71 40 85 4 14 23 56 41 94 19 39 34 76 34
83 0 8 13 39 29 71 16 31 36 83 45 114 9 31 34 94 56 140 22 45 40 88 40 95 0
7 14 39 30 70 17 31 30 62 30 70 0 7 15 44 34 81 19 37 44 101 57 142 12 41
35 92 51 114 15 21 28 50 28 63 0 14 13 50 30 81 16 31 36 77 44 102 69 215
102 255 201 245 28 -3 82 -5 122 -5z m4252 -630 c50 -7 91 -20 130 -41 31 -17
78 -43 104 -57 97 -51 275 -281 293 -378 4 -21 18 -68 33 -104 37 -95 39 -364
3 -422 -12 -20 -29 -59 -37 -86 -21 -71 -72 -143 -173 -246 -205 -209 -518
-280 -808 -185 -109 35 -285 155 -331 224 -14 22 -44 60 -65 85 -21 26 -44 67
-52 92 -7 26 -23 60 -35 76 -12 18 -27 65 -36 114 -8 45 -19 99 -25 118 -14
50 -12 121 5 171 9 23 22 71 30 106 8 35 25 80 38 100 13 21 29 52 36 70 7 17
22 40 33 50 11 10 28 34 39 54 37 73 215 194 354 239 82 27 327 38 464 20z
m3232 -67 c117 -58 130 -67 190 -136 102 -119 139 -169 146 -196 3 -14 16 -44
29 -66 32 -56 66 -206 68 -293 1 -71 0 -75 -32 -103 l-32 -29 -473 -2 c-259
-1 -494 -1 -520 1 -75 4 -100 -17 -91 -77 19 -134 139 -238 312 -272 126 -24
145 -24 250 -1 82 19 85 20 163 96 l80 78 57 -6 c68 -6 157 -41 177 -71 37
-52 21 -92 -70 -186 -47 -48 -98 -93 -113 -100 -15 -8 -40 -24 -57 -35 -181
-130 -578 -124 -797 10 -31 19 -61 35 -66 35 -6 0 -52 44 -103 98 -77 81 -99
112 -137 192 -74 158 -74 155 -73 360 1 179 2 188 31 273 77 225 242 389 470
468 84 29 88 29 275 27 l190 -3 126 -62z m1644 47 c115 -57 190 -108 222 -150
63 -85 73 -105 105 -200 l32 -95 4 -481 c4 -550 7 -529 -75 -561 -65 -25 -164
-24 -191 1 -50 44 -55 83 -62 511 -5 245 -12 423 -20 460 -6 33 -14 70 -16 83
-7 35 -102 120 -149 133 -22 6 -60 18 -84 27 -126 45 -366 -71 -430 -208 -14
-31 -16 -92 -16 -495 0 -494 0 -496 -51 -515 -53 -21 -208 -12 -245 13 l-34
23 -1 439 c0 242 -3 492 -7 555 -12 187 -11 385 2 408 17 31 76 43 198 40
l108 -3 20 -42 c23 -51 39 -53 91 -12 93 74 151 88 379 88 159 1 185 -2 220
-19z m-8057 1 c36 -5 61 -15 77 -32 23 -23 93 -188 115 -271 7 -22 23 -58 36
-78 14 -21 31 -62 39 -92 19 -72 117 -352 143 -408 12 -25 22 -55 22 -68 0
-40 18 -64 39 -52 23 12 51 79 51 120 0 17 15 70 34 118 19 48 44 123 56 167
12 44 35 105 51 135 16 30 29 64 29 76 0 11 11 43 25 70 14 27 33 74 41 104
25 83 59 145 101 179 36 30 42 31 128 31 64 0 97 -4 112 -15 28 -19 79 -113
97 -179 8 -28 31 -96 51 -151 20 -55 45 -127 55 -160 10 -33 28 -82 39 -110
11 -27 27 -72 36 -100 44 -135 75 -234 85 -272 6 -24 16 -43 23 -43 16 0 83
133 91 180 4 19 17 51 31 71 13 21 31 66 39 101 8 34 33 115 55 178 23 63 41
124 41 135 0 11 16 51 35 89 19 39 35 84 35 100 1 39 47 123 82 149 34 25 217
44 251 25 47 -24 50 -80 8 -147 -16 -25 -32 -68 -36 -96 -4 -27 -19 -79 -35
-115 -15 -36 -40 -103 -55 -150 -15 -47 -38 -105 -50 -130 -12 -25 -25 -60
-29 -79 -3 -19 -17 -57 -30 -85 -13 -28 -33 -82 -44 -121 -19 -64 -72 -229
-106 -330 -12 -36 -36 -96 -72 -182 -20 -48 -52 -63 -156 -75 -147 -16 -168
-8 -217 95 -22 45 -45 102 -50 127 -11 46 -28 96 -101 285 -45 119 -62 166
-83 235 -8 25 -22 65 -30 90 -9 25 -22 72 -29 105 -11 50 -17 61 -35 63 -27 4
-67 -75 -79 -155 -9 -64 -21 -93 -48 -123 -15 -15 -26 -44 -31 -75 -4 -27 -17
-70 -30 -95 -12 -25 -26 -61 -30 -80 -19 -85 -121 -373 -147 -412 -28 -42 -76
-58 -175 -58 -50 0 -98 6 -112 13 -33 16 -100 128 -122 202 -10 33 -36 104
-58 157 -21 53 -42 112 -46 130 -4 18 -17 52 -30 75 -13 24 -29 69 -35 100 -6
32 -22 75 -35 95 -14 20 -31 63 -39 95 -8 32 -28 94 -46 138 -17 44 -42 113
-55 153 -13 40 -27 78 -33 85 -5 6 -15 36 -21 65 -6 29 -23 70 -37 92 -62 93
25 138 214 111z"/>
<path d="M6048 8060 c-55 -34 -71 -132 -94 -551 -10 -181 37 -350 105 -378 68
-29 132 8 175 99 25 53 29 297 9 570 -11 160 -24 209 -62 244 -24 22 -107 32
-133 16z"/>
<path d="M4192 7360 c-40 -24 -56 -62 -48 -113 8 -47 82 -197 128 -258 18 -24
58 -77 87 -118 155 -215 271 -272 349 -173 42 53 45 71 22 136 -22 66 -49 112
-98 174 -19 24 -59 78 -89 120 -162 225 -258 289 -351 232z"/>
<path d="M7919 7351 c-51 -33 -149 -133 -172 -176 -8 -17 -27 -41 -42 -55 -52
-48 -196 -240 -221 -295 -30 -66 -28 -86 20 -141 69 -81 146 -80 221 2 142
154 171 191 289 365 99 145 114 194 80 265 -34 71 -99 84 -175 35z"/>
<path d="M3170 5893 c-59 -41 -81 -102 -55 -157 26 -55 198 -139 410 -201 44
-12 113 -35 153 -50 91 -33 117 -28 171 30 87 94 44 160 -174 265 -80 38 -148
63 -203 75 -46 9 -102 25 -125 36 -54 24 -144 25 -177 2z"/>
<path d="M8860 5830 c-30 -12 -77 -28 -105 -37 -43 -13 -101 -36 -298 -120
-45 -20 -77 -67 -77 -117 0 -51 34 -114 66 -122 47 -12 148 4 214 34 36 16
117 41 180 56 224 54 340 151 292 244 -41 80 -154 106 -272 62z"/>
<path d="M5940 5025 c-196 -74 -303 -167 -366 -318 -38 -90 -39 -94 -39 -217
0 -227 83 -382 270 -505 104 -68 201 -91 351 -81 138 8 223 49 340 163 130
126 171 245 162 463 -5 124 -52 227 -152 332 -65 68 -203 146 -299 168 -60 14
-226 11 -267 -5z"/>
<path d="M1804 2373 c-4 -16 -24 -66 -47 -113 -22 -47 -48 -109 -58 -138 -10
-29 -27 -65 -38 -81 -11 -15 -24 -47 -30 -70 -5 -23 -21 -59 -34 -80 -14 -21
-29 -56 -32 -77 -4 -22 -20 -60 -36 -85 -31 -49 -35 -69 -19 -99 9 -17 29 -18
332 -18 198 0 328 4 336 11 19 15 14 50 -12 86 -13 17 -29 51 -34 74 -6 23
-23 58 -37 77 -14 19 -32 55 -39 80 -19 59 -90 222 -126 285 -15 28 -34 69
-41 92 -22 76 -73 109 -85 56z"/>
<path d="M5870 2010 c-153 -26 -247 -91 -330 -226 l-55 -89 1 -160 0 -160 43
-80 c43 -80 133 -184 181 -210 31 -16 191 -55 227 -55 29 0 185 36 225 51 28
12 132 115 164 163 89 138 84 419 -10 580 -28 48 -141 146 -169 146 -10 0 -43
9 -75 19 -71 24 -143 32 -202 21z"/>
<path d="M8940 2010 c-8 -6 -44 -19 -80 -30 -36 -12 -76 -31 -90 -44 -14 -12
-39 -32 -56 -44 -29 -20 -59 -83 -81 -169 -9 -36 45 -42 437 -44 l365 -3 3 31
c4 45 -59 158 -119 212 -84 75 -318 131 -379 91z"/>
</g><g transform="translate(0.000000,912.000000) scale(0.100000,-0.100000)"
fill="#F5A623" stroke="none">
<path d="M0 4560 l0 -4560 6080 0 6080 0 0 4560 0 4560 -6080 0 -6080 0 0
-4560z m6181 3484 c38 -35 51 -84 62 -244 20 -273 16 -517 -9 -570 -43 -91
-107 -128 -175 -99 -68 28 -115 197 -105 378 23 419 39 517 94 551 26 16 109
6 133 -16z m-1853 -683 c43 -22 135 -122 215 -233 30 -42 70 -96 89 -120 49
-62 76 -108 98 -174 23 -65 20 -83 -22 -136 -78 -99 -194 -42 -349 173 -29 41
-69 94 -87 118 -46 61 -120 211 -128 258 -16 103 84 165 184 114z m3728 4 c49
-34 66 -116 39 -182 -27 -65 -195 -304 -280 -398 -122 -136 -130 -143 -174
-155 -56 -15 -89 -2 -137 54 -48 55 -50 75 -20 141 25 55 169 247 221 295 15
14 34 38 42 55 23 43 121 143 172 176 50 32 104 38 137 14z m-4709 -1474 c23
-11 79 -27 125 -36 55 -12 123 -37 203 -75 218 -105 261 -171 174 -265 -54
-58 -80 -63 -171 -30 -40 15 -109 38 -153 50 -212 62 -384 146 -410 201 -56
119 92 218 232 155z m5739 -67 c136 -101 26 -234 -246 -300 -63 -15 -144 -40
-180 -56 -66 -30 -167 -46 -214 -34 -32 8 -66 71 -66 122 0 50 32 97 77 117
197 84 255 107 298 120 28 9 75 25 105 37 73 27 186 24 226 -6z m-2879 -794
c96 -22 234 -100 299 -168 100 -105 147 -208 152 -332 9 -218 -32 -337 -162
-463 -117 -114 -202 -155 -340 -163 -150 -10 -247 13 -351 81 -187 123 -270
278 -270 505 0 123 1 127 39 217 63 151 170 244 366 318 41 16 207 19 267 5z"/>
</g>
</svg>
