<?xml version="1.0" standalone="no"?>
<svg version="1.0" xmlns="http://www.w3.org/2000/svg"
 width="2728.0" height="856.0" viewBox="0 0 2728.0 856.0"
 preserveAspectRatio="xMidYMid meet">
<g transform="translate(0.000000,856.000000) scale(0.100000,-0.100000)"
fill="#1a1a1a" stroke="none">
<path d="M0 4280 l0 -4280 13640 0 13640 0 0 4280 0 4280 -13640 0 -13640 0 0
-4280z m4325 3310 c82 -40 100 -101 126 -436 12 -153 11 -168 -9 -293 -37
-222 -87 -280 -231 -269 -111 8 -159 69 -197 253 -28 129 -28 161 -9 315 9 63
20 148 25 189 14 114 36 167 91 224 l48 50 56 -6 c31 -3 76 -15 100 -27z
m1856 -651 c91 -28 142 -99 143 -199 1 -81 -21 -132 -95 -220 -30 -36 -62 -76
-71 -90 -36 -57 -283 -317 -320 -336 -75 -39 -153 -9 -223 87 -56 77 -61 126
-17 198 16 25 37 70 47 99 13 36 39 75 82 120 35 37 76 83 92 102 65 77 185
193 229 221 50 32 75 35 133 18z m-3676 -66 c70 -43 87 -60 131 -129 28 -43
87 -115 130 -159 174 -176 211 -331 107 -446 -49 -54 -81 -69 -148 -69 -83 0
-159 52 -240 165 -23 33 -57 74 -75 90 -18 17 -46 57 -62 90 -17 33 -51 86
-75 117 -65 85 -87 140 -87 223 -1 88 14 114 86 149 80 40 132 33 233 -31z
m17149 -75 c14 -6 29 -20 32 -32 4 -11 7 -486 8 -1054 1 -983 2 -1034 19
-1044 15 -8 26 -2 60 35 131 137 374 378 488 482 144 131 418 406 456 458 43
58 58 61 287 65 290 6 335 -2 351 -57 6 -19 -1 -30 -40 -65 -25 -22 -85 -81
-133 -130 -48 -49 -105 -105 -127 -125 -22 -20 -187 -183 -367 -363 -381 -379
-363 -349 -275 -461 28 -37 70 -92 92 -121 87 -115 146 -185 180 -210 19 -15
42 -40 50 -56 9 -17 48 -68 88 -114 39 -46 95 -112 122 -146 28 -35 75 -90
105 -124 31 -33 70 -81 87 -106 33 -49 115 -142 200 -228 63 -63 75 -127 30
-156 -28 -19 -460 -24 -517 -7 -40 13 -131 105 -162 166 -20 38 -37 60 -163
209 -33 39 -69 85 -79 101 -11 17 -32 46 -48 65 -67 80 -165 206 -195 249 -18
26 -47 60 -65 77 -17 16 -50 48 -73 72 -52 52 -71 52 -124 5 -90 -82 -214
-209 -226 -233 -14 -27 -37 -519 -27 -593 12 -97 -28 -122 -192 -121 -332 4
-311 -7 -312 151 0 59 -1 840 -2 1736 -3 1653 -3 1656 32 1679 19 13 412 9
440 -4z m-8760 -67 c25 -21 60 -93 91 -191 15 -47 40 -112 55 -145 16 -33 32
-71 36 -85 3 -14 19 -50 34 -80 15 -30 31 -71 35 -90 4 -19 15 -48 25 -65 10
-16 32 -68 50 -115 17 -47 42 -110 55 -140 13 -30 27 -66 31 -80 3 -14 21 -47
40 -75 18 -27 38 -72 44 -100 6 -27 24 -73 40 -101 15 -28 34 -71 40 -95 6
-24 22 -60 35 -80 13 -20 31 -63 41 -95 9 -33 25 -71 35 -85 18 -25 30 -56
105 -259 19 -52 45 -111 58 -130 12 -19 28 -57 36 -85 7 -27 21 -62 31 -76 10
-14 32 -63 48 -109 17 -45 40 -98 50 -116 11 -19 27 -59 35 -90 8 -31 26 -68
40 -83 15 -16 30 -48 37 -81 6 -30 25 -80 41 -112 16 -31 38 -83 48 -114 11
-32 29 -72 40 -91 10 -18 28 -61 38 -95 11 -35 29 -79 40 -98 12 -19 27 -60
35 -90 8 -30 27 -81 43 -112 27 -56 28 -58 11 -93 -9 -19 -24 -35 -34 -36 -92
-4 -403 0 -421 5 -15 5 -33 28 -51 64 -16 31 -38 75 -49 97 -49 93 -110 233
-117 265 -4 19 -20 58 -35 85 -16 28 -32 67 -35 88 -4 21 -18 53 -31 72 -12
19 -32 65 -44 104 -11 38 -27 74 -35 81 -12 10 -192 13 -842 12 -937 -2 -843
8 -887 -95 -15 -34 -45 -96 -66 -137 -21 -41 -41 -92 -45 -112 -4 -21 -20 -57
-35 -81 -15 -24 -31 -54 -35 -67 -4 -12 -29 -66 -55 -119 -26 -53 -55 -118
-65 -146 -10 -29 -33 -64 -54 -84 l-36 -33 -208 5 c-166 5 -214 9 -233 22 -31
20 -31 52 2 101 14 21 32 57 39 80 7 24 22 55 33 71 11 15 25 48 32 73 7 25
25 72 40 105 15 33 37 91 49 128 11 37 31 82 45 100 13 18 29 48 34 67 13 44
73 180 94 212 21 31 64 144 73 188 4 19 18 55 30 80 12 25 30 69 40 99 10 30
26 68 35 85 10 17 23 49 30 71 6 22 27 69 45 105 18 36 41 90 50 120 10 30 29
69 42 86 13 17 55 111 94 209 38 98 76 187 84 198 8 12 15 29 15 38 0 10 16
47 35 83 19 37 35 72 35 79 0 7 9 31 21 52 26 50 79 177 79 190 0 6 14 30 30
55 17 25 35 63 41 85 6 22 22 57 36 79 13 21 31 61 40 90 8 28 27 76 42 106
16 30 36 78 45 106 9 28 28 66 41 84 14 18 31 56 40 84 26 88 66 149 105 163
53 19 471 13 494 -6z m-6279 -630 c98 -16 381 -101 420 -126 11 -7 45 -19 76
-28 31 -9 69 -27 84 -39 16 -13 48 -34 71 -48 23 -14 59 -37 80 -51 22 -15 80
-52 129 -84 135 -87 441 -398 510 -519 28 -48 62 -102 76 -119 39 -47 209
-428 209 -468 0 -6 14 -42 30 -80 24 -54 33 -92 40 -181 6 -62 16 -157 22
-210 20 -172 -14 -679 -53 -783 -26 -69 -61 -112 -98 -119 -14 -3 -117 -8
-227 -11 -188 -5 -203 -4 -225 14 -31 25 -31 86 0 129 12 17 24 45 26 64 3 18
12 65 20 103 74 354 73 506 -4 799 -12 44 -21 91 -21 105 0 14 -11 49 -24 77
-13 28 -27 66 -31 85 -4 19 -18 47 -30 64 -12 16 -28 47 -34 67 -7 20 -21 48
-32 62 -11 14 -47 66 -79 115 -36 54 -71 96 -89 105 -16 9 -33 26 -36 38 -9
29 -180 198 -200 198 -8 0 -27 14 -42 31 -16 17 -46 40 -68 51 -22 12 -53 31
-68 44 -16 13 -34 24 -41 24 -7 0 -41 17 -77 39 -35 21 -80 42 -99 46 -19 4
-50 18 -70 30 -19 13 -66 28 -103 34 -38 7 -88 20 -110 29 -71 29 -557 25
-654 -5 -39 -13 -84 -23 -101 -23 -16 0 -50 -11 -77 -25 -26 -14 -70 -30 -97
-36 -27 -6 -62 -22 -77 -35 -16 -13 -42 -30 -58 -37 -58 -25 -128 -73 -179
-124 -29 -29 -59 -53 -68 -53 -20 0 -145 -111 -170 -152 -11 -18 -46 -61 -78
-96 -32 -35 -70 -86 -84 -115 -14 -29 -37 -63 -49 -77 -64 -68 -173 -329 -196
-468 -6 -37 -21 -103 -34 -147 -41 -142 -39 -376 4 -500 11 -33 27 -108 34
-166 11 -79 21 -117 41 -151 51 -87 24 -134 -76 -130 -34 1 -135 -3 -224 -10
-159 -11 -162 -11 -197 11 -39 24 -57 63 -57 124 0 23 -9 97 -19 166 -33 213
-43 389 -31 556 13 200 46 415 76 493 13 34 29 84 34 110 6 26 22 63 35 83 13
20 30 62 38 92 8 31 23 68 34 84 10 15 32 53 48 83 42 80 93 159 134 207 83
98 99 120 120 161 12 23 25 42 30 42 4 0 59 48 122 106 63 58 144 123 180 144
36 21 72 47 80 56 8 10 32 25 54 35 22 10 55 29 74 43 19 15 40 26 47 26 7 0
34 18 59 40 25 22 56 40 68 40 12 0 49 12 82 26 33 14 96 36 140 49 44 14 123
39 175 55 58 19 134 34 195 40 114 10 615 4 690 -9z m13191 -362 c43 -12 107
-27 141 -34 37 -7 77 -24 98 -39 19 -15 50 -32 68 -38 118 -41 421 -326 487
-458 15 -30 39 -77 53 -105 61 -117 86 -185 97 -260 6 -44 18 -107 26 -140 20
-89 17 -217 -12 -438 -25 -194 -27 -200 -76 -304 -78 -167 -157 -275 -302
-416 -45 -44 -97 -86 -116 -94 -19 -8 -48 -26 -64 -40 -15 -13 -44 -30 -63
-38 -19 -8 -48 -26 -63 -39 -16 -13 -53 -29 -82 -36 -29 -6 -80 -20 -113 -30
-193 -60 -486 -78 -659 -40 -132 29 -286 80 -321 105 -16 13 -46 28 -66 34
-20 6 -47 23 -60 37 -13 15 -46 41 -74 60 -85 58 -139 105 -170 149 -54 76
-112 150 -134 169 -11 11 -21 24 -21 31 0 6 -18 48 -40 93 -24 48 -57 146 -82
239 l-42 158 -1 195 c0 171 3 207 23 290 42 169 72 264 96 300 13 20 36 58 50
85 15 28 37 66 49 87 31 50 207 238 233 248 12 5 66 40 120 78 54 38 117 75
139 82 21 7 57 26 79 41 23 17 52 29 70 29 29 0 70 10 186 45 80 24 448 20
546 -6z m5129 -4 c33 -10 88 -23 122 -30 39 -8 74 -22 93 -38 17 -15 48 -31
68 -36 20 -6 60 -28 87 -48 100 -76 204 -166 219 -189 9 -12 36 -48 62 -79 25
-32 66 -95 90 -141 24 -46 57 -101 73 -124 16 -23 32 -60 36 -87 4 -26 17 -75
29 -108 46 -121 58 -434 20 -507 -25 -48 -25 -48 -979 -50 -843 -3 -903 -4
-928 -21 -33 -22 -34 -40 -2 -109 14 -29 25 -60 25 -69 0 -8 16 -38 35 -65 19
-27 35 -54 35 -61 0 -23 132 -164 173 -185 23 -11 58 -34 77 -49 20 -16 56
-33 80 -38 25 -4 70 -19 100 -31 80 -33 383 -35 475 -3 33 12 80 27 105 33 24
7 59 24 76 39 17 14 50 40 75 57 31 22 55 51 84 104 59 109 120 133 211 84 37
-20 77 -30 165 -40 129 -15 166 -26 176 -50 10 -25 -28 -125 -62 -164 -17 -19
-42 -51 -56 -70 -38 -51 -225 -240 -238 -240 -6 0 -28 -16 -49 -35 -21 -19
-58 -43 -83 -53 -24 -11 -62 -31 -83 -46 -21 -14 -51 -26 -65 -26 -14 0 -46
-10 -71 -21 -24 -11 -65 -22 -90 -25 -25 -3 -91 -15 -146 -26 -175 -34 -489
-13 -629 41 -27 11 -70 25 -95 32 -25 6 -58 21 -75 33 -16 11 -51 31 -76 42
-26 12 -50 27 -53 33 -4 6 -24 20 -44 30 -20 11 -57 38 -80 60 -24 23 -48 41
-53 41 -4 0 -26 24 -48 53 -22 28 -59 77 -82 107 -72 93 -184 313 -220 433
-31 105 -62 470 -44 518 2 8 13 73 24 145 11 75 27 147 39 170 11 21 23 50 27
64 4 14 35 77 68 140 58 106 81 137 223 291 43 47 123 113 159 132 17 8 41 27
54 41 14 15 46 33 72 41 27 7 65 25 86 39 21 14 49 26 63 26 14 0 59 9 100 21
125 35 157 38 375 35 164 -3 223 -7 270 -21z m2875 1 c25 -9 73 -23 106 -30
140 -30 380 -242 426 -379 6 -17 24 -54 39 -82 15 -27 41 -102 59 -165 l31
-115 10 -829 c7 -573 7 -836 0 -852 -21 -47 -55 -54 -248 -51 -119 2 -186 7
-204 16 -55 27 -54 19 -51 496 1 242 -2 592 -7 777 l-10 337 -48 142 -48 143
-65 50 c-123 95 -394 144 -528 95 -31 -12 -82 -27 -113 -33 -73 -17 -219 -112
-250 -164 -12 -20 -33 -48 -46 -62 -39 -44 -92 -140 -119 -216 l-25 -72 1
-722 c2 -786 3 -761 -54 -776 -13 -3 -104 -4 -202 -2 -197 3 -216 9 -234 63
-13 40 -12 2298 1 2341 6 18 20 36 35 43 31 14 372 15 409 1 39 -15 57 -67 49
-144 -10 -100 13 -96 136 20 25 24 65 51 90 62 25 11 62 30 82 44 22 15 58 28
90 31 29 4 85 18 123 32 68 25 75 25 295 22 183 -3 233 -7 270 -21z m-13187
-56 c16 -13 29 -38 37 -72 7 -29 28 -88 46 -132 19 -43 43 -108 53 -145 10
-37 28 -85 39 -107 11 -21 25 -63 31 -92 6 -30 22 -73 36 -96 13 -23 29 -66
36 -96 14 -68 115 -372 139 -420 10 -20 22 -54 26 -75 4 -22 19 -65 34 -95 16
-31 33 -76 40 -100 6 -25 29 -94 51 -155 21 -60 39 -119 39 -131 0 -111 65
-44 96 99 9 39 27 91 40 114 13 23 27 64 30 90 4 26 26 95 49 153 24 58 46
125 50 150 4 25 20 68 35 96 16 28 32 69 35 90 4 21 18 58 32 81 13 24 32 76
42 115 11 40 35 109 54 153 19 44 38 99 42 122 4 24 18 60 32 80 14 21 32 64
39 96 8 32 20 70 28 85 7 15 19 54 26 86 16 79 27 102 57 115 36 16 454 15
476 -2 10 -7 26 -46 37 -89 10 -42 32 -105 48 -140 16 -35 35 -87 41 -117 6
-29 20 -65 30 -80 11 -14 27 -53 36 -86 10 -33 27 -78 38 -100 18 -36 66 -169
119 -330 10 -33 32 -87 48 -120 16 -33 35 -80 43 -105 8 -25 33 -88 54 -140
22 -52 42 -112 46 -134 3 -21 17 -59 31 -85 13 -26 27 -69 31 -97 10 -66 40
-124 65 -124 19 0 23 8 35 70 4 19 14 47 21 62 8 15 30 80 50 145 19 65 46
141 59 169 12 29 26 71 30 94 4 24 23 75 41 114 19 39 34 80 34 91 0 11 12 45
26 75 28 60 74 192 74 214 0 7 13 37 29 67 16 30 32 74 36 99 4 25 20 68 36
96 16 28 29 61 29 72 0 11 19 74 43 139 24 65 49 139 56 165 23 82 24 83 265
86 197 3 214 2 236 -16 34 -27 30 -80 -9 -143 -17 -28 -38 -76 -47 -107 -9
-31 -23 -70 -32 -87 -9 -16 -21 -52 -28 -80 -14 -56 -55 -169 -84 -230 -10
-22 -21 -56 -25 -75 -4 -19 -17 -51 -30 -71 -13 -20 -32 -65 -44 -100 -11 -35
-38 -116 -60 -179 -23 -63 -41 -122 -41 -131 0 -9 -11 -36 -24 -61 -13 -25
-29 -72 -36 -104 -7 -33 -20 -73 -31 -90 -10 -17 -25 -60 -34 -96 -8 -36 -32
-110 -54 -164 -21 -55 -42 -115 -46 -134 -4 -19 -18 -54 -31 -77 -13 -23 -31
-70 -40 -105 -9 -35 -26 -83 -39 -108 -12 -25 -25 -61 -29 -80 -15 -84 -59
-181 -93 -207 l-34 -26 -197 2 c-276 3 -296 11 -331 132 -18 62 -46 134 -97
250 -13 31 -27 72 -30 90 -4 19 -11 43 -17 53 -10 21 -116 321 -149 426 -12
36 -28 76 -37 89 -17 27 -141 388 -141 412 0 9 -13 40 -29 70 -16 30 -32 74
-36 99 -21 126 -65 134 -94 17 -6 -27 -18 -59 -26 -70 -8 -12 -28 -65 -46
-117 -17 -52 -42 -113 -55 -136 -13 -22 -28 -65 -34 -94 -6 -30 -22 -71 -36
-91 -13 -20 -28 -54 -31 -75 -4 -22 -19 -69 -34 -106 -15 -37 -39 -105 -53
-152 -15 -47 -40 -113 -56 -148 -17 -35 -30 -72 -30 -84 0 -11 -11 -42 -25
-70 -13 -27 -35 -85 -48 -129 -46 -153 -97 -310 -108 -331 -19 -38 -45 -41
-281 -35 -224 6 -227 6 -253 31 -37 34 -54 70 -66 138 -6 31 -22 75 -35 97
-13 22 -28 65 -34 95 -7 30 -24 87 -40 125 -15 39 -40 111 -55 160 -15 50 -35
106 -45 125 -9 19 -22 57 -29 83 -6 27 -23 65 -36 85 -13 20 -31 69 -39 108
-8 39 -29 106 -46 148 -17 43 -39 107 -49 144 -11 37 -29 85 -40 107 -12 21
-21 46 -21 55 0 9 -11 38 -25 66 -23 47 -39 89 -134 354 -23 63 -48 127 -56
141 -8 15 -22 57 -31 95 -8 37 -33 102 -55 144 -44 86 -48 121 -19 150 31 31
444 31 483 0z m-11093 -240 c30 -10 71 -21 90 -25 19 -4 60 -23 90 -41 30 -19
81 -41 113 -49 67 -17 169 -85 187 -123 18 -42 23 -152 8 -201 -30 -98 -134
-113 -331 -47 -59 20 -112 36 -118 36 -6 0 -62 25 -124 55 -62 30 -118 55
-126 55 -50 0 -168 100 -188 159 -23 71 32 166 114 197 51 18 204 10 285 -16z
m5739 -25 c88 -45 145 -180 107 -254 -25 -47 -174 -147 -288 -192 -57 -23
-115 -47 -129 -55 -23 -11 -64 -18 -265 -41 -121 -14 -227 120 -184 232 28 73
226 206 331 221 24 3 69 21 99 39 92 55 268 82 329 50z m-2927 -824 c147 -26
208 -62 351 -200 98 -95 138 -173 166 -325 13 -68 -12 -271 -42 -346 -38 -93
-110 -183 -169 -211 -33 -15 -60 -38 -79 -65 -61 -89 -150 -118 -369 -118
-173 -1 -265 23 -333 87 -17 15 -42 34 -57 42 -15 8 -44 40 -65 72 -22 32 -54
74 -72 94 -29 30 -36 48 -48 125 -8 49 -22 121 -31 159 -19 86 -15 112 41 283
71 211 102 250 279 343 158 83 239 94 428 60z m20140 -2192 c39 -21 46 -62 47
-279 0 -113 3 -239 6 -280 15 -230 16 -639 0 -669 -19 -37 -43 -51 -88 -51
-82 0 -97 45 -92 278 2 92 5 340 6 552 1 212 6 396 11 410 17 47 64 64 110 39z
m-15204 -74 c25 -30 23 31 26 -714 2 -500 4 -484 -50 -497 -38 -10 -95 3 -118
26 -21 20 -21 32 -26 573 -3 303 -1 567 3 585 16 64 118 80 165 27z m2410 8
c25 -16 61 -85 62 -118 1 -83 -146 -110 -216 -40 -29 29 -33 107 -9 143 29 41
110 49 163 15z m2330 2 c17 -14 44 -50 61 -80 17 -30 47 -76 66 -101 19 -25
35 -50 35 -56 0 -6 19 -38 43 -72 24 -33 54 -87 67 -119 39 -94 67 -101 93
-23 9 25 29 65 45 88 16 24 39 63 52 88 33 66 171 270 189 280 18 9 61 14 103
12 69 -4 79 -79 20 -145 -21 -23 -63 -85 -92 -137 -29 -52 -67 -117 -85 -145
-83 -128 -150 -255 -162 -305 -8 -34 -13 -123 -13 -235 0 -99 -5 -196 -10
-216 -22 -77 -119 -77 -157 0 -14 30 -18 70 -21 236 -4 215 -11 245 -71 299
-11 10 -28 41 -37 70 -27 82 -180 353 -249 441 -25 32 -45 69 -45 81 0 61 112
86 168 39z m4387 -11 c160 -76 255 -226 255 -400 0 -139 -122 -312 -243 -345
-23 -6 -125 -14 -226 -18 -163 -6 -185 -9 -197 -26 -11 -14 -14 -61 -14 -193
l0 -174 -29 -29 c-34 -33 -83 -39 -131 -14 -38 20 -44 42 -34 144 8 99 7 816
-2 937 -6 76 -5 82 19 110 25 29 26 29 159 34 251 9 386 2 443 -26z m4663 22
c73 -38 78 -167 8 -200 -63 -30 -163 -13 -180 29 -41 108 73 222 172 171z
m-10904 -118 c11 -16 16 -46 16 -104 0 -101 6 -107 100 -105 104 3 130 -15
130 -89 0 -88 -29 -102 -157 -75 -24 5 -36 2 -52 -14 -20 -20 -21 -31 -21
-264 l0 -244 25 -23 c26 -24 50 -27 131 -15 47 7 53 5 68 -16 52 -75 -20 -159
-137 -159 -95 0 -176 47 -240 139 l-32 46 0 251 c0 284 0 284 -69 284 -70 0
-112 53 -99 124 7 33 23 42 91 51 71 9 86 26 78 86 -12 90 32 149 111 149 32
0 46 -5 57 -22z m10334 11 c43 -15 59 -58 44 -115 -25 -92 -8 -114 87 -114
102 0 142 -40 121 -121 -13 -48 -36 -61 -103 -58 -116 6 -118 1 -119 -268 l0
-216 26 -25 c23 -24 34 -26 99 -27 104 0 134 -31 101 -101 -45 -95 -215 -99
-322 -9 -61 51 -71 104 -73 379 -1 271 2 261 -69 272 -62 9 -88 28 -95 68 -13
65 26 109 104 122 52 8 58 17 65 91 11 120 47 153 134 122z m-2517 -17 c23
-20 25 -36 18 -135 -5 -64 12 -77 104 -77 99 0 127 -18 127 -81 0 -64 -62
-100 -138 -80 -86 24 -91 8 -85 -275 5 -269 3 -264 95 -264 79 0 118 -34 118
-104 0 -52 -15 -71 -68 -86 -95 -26 -189 -4 -258 62 -70 66 -74 85 -77 383 -1
138 -6 256 -10 263 -5 7 -29 12 -55 12 -69 0 -92 25 -92 99 0 56 19 71 90 71
71 0 86 17 75 86 -15 101 85 182 156 126z m-8825 -204 c66 -24 135 -96 177
-186 l32 -67 3 -285 c3 -307 1 -321 -49 -349 -36 -20 -94 -7 -117 26 -15 24
-18 63 -22 298 l-5 272 -30 43 c-41 60 -95 93 -158 97 -62 5 -137 -40 -191
-115 l-31 -44 -2 -256 c-1 -142 -4 -269 -7 -284 -10 -50 -84 -72 -151 -44 -54
23 -55 29 -44 292 6 131 14 312 18 402 7 186 10 192 89 192 36 0 49 -5 72 -30
36 -39 45 -38 108 9 37 28 67 42 100 46 26 3 54 8 62 10 26 6 93 -6 146 -27z
m4221 -7 c138 -37 303 -281 303 -449 0 -163 -107 -324 -270 -408 -70 -35 -82
-38 -178 -42 l-103 -4 -102 50 c-147 71 -220 157 -258 304 -51 193 22 367 206
492 120 82 243 100 402 57z m5523 -2 c169 -75 290 -245 290 -410 0 -93 -20
-98 -410 -102 l-275 -2 -3 -31 c-4 -39 61 -124 114 -149 47 -22 176 -31 232
-16 25 7 62 29 87 52 90 83 217 46 191 -55 -13 -54 -219 -179 -314 -192 -175
-23 -412 106 -490 267 -41 84 -48 312 -12 379 42 79 170 214 233 247 88 45
267 51 357 12z m2885 17 c62 -16 104 -38 129 -65 27 -30 51 -26 74 13 31 52
125 62 165 18 27 -30 26 -805 -1 -841 -44 -60 -127 -51 -162 19 -24 48 -25 48
-76 12 -126 -91 -267 -104 -398 -37 -156 80 -234 179 -262 335 -24 130 -11
203 54 314 80 137 173 207 304 231 95 17 113 17 173 1z m-13783 -7 c29 -6 71
-24 92 -40 51 -37 72 -36 113 3 48 46 103 46 144 0 l29 -32 1 -178 c3 -708 2
-720 -73 -832 -46 -70 -72 -87 -198 -131 -88 -31 -104 -34 -215 -34 l-120 0
-91 48 c-102 53 -116 66 -139 120 -30 71 -5 107 73 107 49 0 61 -6 148 -75 36
-28 42 -30 118 -27 126 4 217 27 254 65 37 38 62 104 62 163 0 58 -15 63 -58
21 -158 -154 -443 -97 -596 120 -116 164 -116 352 1 515 117 163 270 226 455
187z m3035 -2 c160 -34 319 -224 330 -395 7 -117 9 -115 -184 -123 -87 -4
-226 -4 -309 -1 -180 6 -204 2 -204 -35 0 -27 87 -119 140 -147 105 -56 271
-40 318 32 18 28 68 52 107 52 32 0 85 -50 85 -80 0 -58 -179 -190 -285 -212
-75 -15 -208 2 -295 37 -224 91 -336 406 -225 630 102 204 289 290 522 242z
m4158 1 c33 -15 50 -72 34 -117 -12 -34 -43 -55 -99 -65 -41 -7 -132 -92 -149
-139 -7 -17 -11 -127 -11 -278 l0 -250 -24 -24 c-52 -52 -136 -42 -162 20 -16
39 -10 767 7 812 21 56 114 55 166 -2 35 -39 56 -37 93 6 36 43 97 59 145 37z
m2076 -2 c119 -26 244 -134 315 -275 28 -54 29 -62 29 -197 l0 -142 -48 -70
c-53 -77 -117 -132 -217 -183 -61 -32 -72 -34 -185 -37 l-120 -4 -79 41 c-106
57 -140 84 -193 158 -118 166 -106 413 27 557 134 145 281 192 471 152z m2599
-5 c94 -28 177 -114 216 -224 20 -55 24 -589 5 -625 -27 -50 -108 -56 -152
-13 l-29 30 0 286 c1 316 1 319 -66 364 -88 60 -148 59 -236 -7 -102 -75 -102
-74 -102 -378 l-1 -262 -24 -26 c-35 -37 -123 -38 -146 -2 -26 40 -18 815 9
845 33 36 101 29 140 -14 40 -43 53 -43 101 -5 37 29 47 33 105 44 36 6 139
-1 180 -13z m-10175 -15 l25 -25 -6 -393 c-6 -427 -6 -428 -62 -449 -35 -14
-98 4 -112 32 -8 13 -10 144 -8 402 3 349 5 385 21 410 33 51 103 62 142 23z
m4250 10 c42 -18 38 11 40 -291 2 -327 16 -374 126 -425 46 -22 54 -23 106
-12 151 32 191 133 194 499 2 200 6 215 66 233 56 17 89 1 103 -49 13 -51 13
-731 -1 -783 -17 -64 -76 -78 -124 -28 -39 41 -76 39 -142 -6 -98 -67 -299
-48 -390 38 -34 32 -100 147 -113 198 -14 52 -4 574 12 603 19 36 70 45 123
23z m7125 -16 c24 -24 22 26 20 -425 -1 -415 -2 -417 -59 -430 -49 -11 -98 17
-109 62 -6 21 -11 201 -12 400 l-1 363 25 25 c33 33 106 35 136 5z"/>
<path d="M4166 7529 c-48 -38 -64 -86 -82 -250 -18 -166 -15 -431 5 -500 30
-100 108 -153 187 -127 105 35 139 209 110 563 -21 245 -32 282 -95 314 -51
27 -91 27 -125 0z"/>
<path d="M6085 6874 c-43 -22 -132 -110 -170 -169 -18 -27 -59 -79 -92 -115
-94 -103 -203 -268 -203 -307 0 -56 98 -153 155 -153 31 0 132 92 221 200 30
36 84 101 120 145 145 175 176 253 135 337 -34 70 -101 96 -166 62z"/>
<path d="M2293 6860 c-39 -23 -53 -48 -53 -94 0 -48 45 -158 88 -215 20 -25
51 -72 69 -105 61 -108 222 -290 286 -323 95 -49 238 120 186 220 -34 65 -123
189 -157 218 -21 19 -57 61 -79 94 -45 66 -124 146 -192 194 -52 37 -100 40
-148 11z"/>
<path d="M10603 6052 c-6 -4 -18 -27 -26 -52 -8 -25 -26 -67 -40 -95 -14 -27
-30 -70 -37 -95 -6 -25 -25 -66 -41 -91 -16 -25 -29 -52 -29 -59 0 -13 -21
-63 -110 -260 -27 -58 -54 -123 -60 -144 -7 -22 -26 -60 -41 -85 -16 -25 -29
-52 -29 -62 0 -9 -13 -40 -29 -70 -15 -30 -36 -81 -46 -114 -9 -33 -32 -89
-50 -125 -18 -36 -38 -82 -45 -102 -6 -21 -16 -40 -21 -43 -17 -11 -10 -55 9
-56 123 -3 1226 2 1233 6 16 11 10 33 -36 129 -25 52 -45 97 -45 100 0 3 -13
27 -30 53 -16 26 -30 54 -30 62 0 8 -18 51 -39 96 -22 44 -45 103 -52 130 -6
28 -24 73 -39 100 -15 28 -31 68 -35 90 -3 22 -19 60 -35 85 -16 25 -34 65
-40 90 -7 24 -29 83 -50 130 -21 47 -43 103 -50 125 -7 22 -23 56 -36 75 -12
19 -28 53 -35 75 -22 73 -62 122 -86 107z"/>
<path d="M17395 5311 c-33 -4 -74 -15 -91 -24 -18 -9 -54 -21 -80 -27 -111
-25 -367 -232 -395 -319 -6 -20 -26 -58 -45 -86 -21 -33 -37 -72 -44 -112 -6
-35 -18 -82 -26 -105 -20 -56 -29 -208 -16 -278 19 -107 54 -226 80 -270 14
-25 39 -70 54 -100 49 -96 229 -262 314 -290 22 -7 52 -22 67 -33 71 -49 420
-48 536 2 36 16 83 34 103 40 20 7 42 19 50 28 7 9 36 31 65 49 80 52 203 216
250 334 58 147 76 246 70 388 -12 261 -69 387 -277 608 -43 45 -191 132 -246
144 -27 6 -72 20 -101 30 -60 22 -181 32 -268 21z"/>
<path d="M22525 5310 c-33 -4 -82 -19 -109 -34 -27 -14 -59 -26 -70 -26 -68 0
-281 -182 -334 -286 -11 -22 -28 -46 -36 -53 -9 -8 -16 -19 -16 -26 0 -6 -11
-33 -25 -59 -29 -55 -32 -82 -7 -94 10 -5 154 -6 342 -1 179 4 460 9 625 9
165 1 309 2 320 2 11 0 34 -3 52 -7 27 -6 34 -3 48 18 16 24 15 28 -5 74 -12
26 -33 74 -45 105 -56 139 -226 290 -370 329 -38 10 -92 25 -120 33 -67 18
-176 25 -250 16z"/>
<path d="M1253 5401 c-36 -23 -63 -68 -63 -105 0 -57 103 -131 252 -182 39
-13 87 -33 107 -45 54 -32 269 -99 317 -99 87 0 131 51 121 137 -8 73 -65 117
-232 178 -49 18 -130 49 -179 69 -151 63 -270 80 -323 47z"/>
<path d="M7091 5355 c-35 -8 -81 -23 -102 -34 -21 -11 -66 -27 -99 -36 -83
-21 -246 -106 -292 -151 -95 -91 -30 -213 107 -200 159 16 216 26 262 49 26
13 77 35 113 47 129 45 232 118 246 175 7 27 -30 116 -57 141 -25 23 -100 27
-178 9z"/>
<path d="M4118 4540 c-200 -36 -324 -128 -398 -296 -92 -211 -87 -421 16 -591
54 -90 87 -129 129 -150 17 -8 44 -28 60 -43 138 -126 464 -114 627 24 186
156 257 289 258 481 0 245 -196 497 -435 559 -77 19 -197 27 -257 16z"/>
<path d="M18001 2134 c-19 -25 -21 -40 -21 -204 0 -133 3 -180 13 -188 7 -6
74 -12 157 -14 144 -3 145 -3 212 29 81 38 101 66 106 149 7 108 -34 196 -109
234 -33 17 -59 20 -188 20 l-150 0 -20 -26z"/>
<path d="M15155 1843 c-11 -2 -30 -6 -42 -8 -37 -8 -130 -92 -151 -137 -54
-113 -34 -241 50 -334 124 -135 358 -101 452 66 82 145 9 362 -137 405 -47 14
-127 18 -172 8z"/>
<path d="M20667 1855 c-103 -28 -196 -130 -168 -183 10 -19 22 -20 238 -18
126 0 234 5 241 9 41 27 -29 126 -122 172 -75 38 -110 42 -189 20z"/>
<path d="M23630 1846 c-64 -18 -80 -28 -132 -84 -100 -106 -102 -262 -6 -383
104 -132 318 -127 427 10 48 62 61 102 61 199 0 88 -14 125 -71 178 -84 78
-182 106 -279 80z"/>
<path d="M9850 1861 c-226 -75 -273 -380 -79 -510 106 -71 210 -66 325 16 97
70 117 110 112 230 -5 118 -29 157 -137 223 -77 46 -159 62 -221 41z"/>
<path d="M12813 1851 c-147 -69 -212 -241 -77 -202 18 5 79 5 145 0 163 -12
268 -3 281 26 18 40 -49 132 -125 172 -51 26 -172 28 -224 4z"/>
<path d="M19090 1850 c-14 -4 -38 -11 -53 -14 -34 -8 -132 -100 -146 -138 -21
-57 -25 -172 -6 -228 75 -227 405 -249 518 -35 28 53 31 213 5 261 -66 121
-209 191 -318 154z"/>
</g><g transform="translate(0.000000,856.000000) scale(0.100000,-0.100000)"
fill="#F5A623" stroke="none">
<path d="M0 4280 l0 -4280 13640 0 13640 0 0 4280 0 4280 -13640 0 -13640 0 0
-4280z m4291 3249 c63 -32 74 -69 95 -314 29 -354 -5 -528 -110 -563 -79 -26
-157 27 -187 127 -35 118 -13 605 31 691 40 78 96 98 171 59z m1905 -655 c22
-11 40 -31 55 -62 41 -84 10 -162 -135 -337 -36 -44 -90 -109 -120 -145 -89
-108 -190 -200 -221 -200 -57 0 -155 97 -155 153 0 39 109 204 203 307 33 36
74 88 92 115 38 59 127 147 170 169 38 20 68 20 111 0z m-3755 -25 c68 -48
147 -128 192 -194 22 -33 58 -75 79 -94 34 -29 123 -153 157 -218 29 -56 4
-133 -60 -186 -55 -44 -88 -53 -126 -34 -64 33 -225 215 -286 323 -18 33 -49
80 -69 105 -43 57 -88 167 -88 215 0 102 110 147 201 83z m-1000 -1448 c26 -5
87 -26 135 -47 49 -20 130 -51 179 -69 167 -61 224 -105 232 -178 10 -86 -34
-137 -121 -137 -48 0 -263 67 -317 99 -20 12 -68 32 -107 45 -201 69 -282 149
-237 237 35 67 98 80 236 50z m5828 -55 c27 -25 64 -114 57 -141 -14 -57 -117
-130 -246 -175 -36 -12 -87 -34 -113 -47 -46 -23 -103 -33 -262 -49 -137 -13
-202 109 -107 200 46 45 209 130 292 151 33 9 78 25 99 36 89 46 242 60 280
25z m-2894 -822 c102 -27 160 -62 251 -153 160 -160 216 -339 169 -540 -31
-131 -97 -224 -243 -347 -163 -138 -489 -150 -627 -24 -16 15 -43 35 -60 43
-99 50 -186 220 -210 412 -17 135 63 382 153 471 145 143 352 193 567 138z"/>
</g>
</svg>
