<?xml version="1.0" standalone="no"?>
<svg version="1.0" xmlns="http://www.w3.org/2000/svg"
 width="1488.0" height="448.0" viewBox="0 0 1488.0 448.0"
 preserveAspectRatio="xMidYMid meet">
<g transform="translate(0.000000,448.000000) scale(0.100000,-0.100000)"
fill="#1a1a1a" stroke="none">
<path d="M0 2240 l0 -2240 7440 0 7440 0 0 2240 0 2240 -7440 0 -7440 0 0
-2240z m8963 1379 c58 -27 56 -4 57 -785 0 -396 -2 -735 -6 -756 -5 -29 -3
-38 12 -46 28 -14 47 -3 93 55 23 29 69 79 103 110 34 32 101 97 149 146 48
48 91 87 96 87 9 0 39 30 264 261 119 121 114 119 265 124 71 3 154 8 184 11
92 10 142 -57 83 -111 -101 -93 -630 -631 -667 -679 -50 -65 -52 -81 -11 -126
12 -14 30 -38 38 -55 8 -16 28 -44 43 -61 53 -57 159 -186 184 -224 14 -20 75
-95 135 -165 61 -70 129 -153 152 -183 23 -30 58 -66 78 -79 19 -13 35 -28 35
-33 0 -6 16 -27 35 -49 45 -49 48 -92 8 -118 -24 -16 -51 -18 -208 -17 -209 1
-223 5 -261 71 -15 26 -46 68 -69 93 -23 25 -55 63 -71 85 -16 22 -46 60 -66
84 -21 24 -38 49 -38 56 0 6 -12 25 -28 42 -15 17 -54 66 -87 109 -33 42 -71
87 -83 98 -13 12 -39 42 -57 68 -57 79 -96 70 -196 -45 -92 -105 -98 -125
-104 -374 -8 -291 -5 -287 -212 -281 -115 3 -124 4 -147 28 l-25 25 -4 1284
c-3 814 -2 1294 5 1311 9 26 32 41 83 54 37 9 210 -1 238 -15z m-6607 -73 c42
-42 53 -61 63 -106 6 -30 30 -97 51 -148 22 -51 45 -114 51 -140 5 -25 21 -60
34 -77 13 -17 29 -51 35 -76 7 -24 25 -62 41 -83 16 -22 29 -45 29 -52 0 -25
42 -142 70 -195 17 -31 30 -70 30 -86 0 -16 13 -47 29 -69 15 -21 31 -52 35
-69 4 -16 26 -70 48 -120 22 -49 49 -114 59 -144 10 -30 23 -59 29 -66 6 -7
19 -39 30 -71 11 -32 31 -75 44 -94 13 -19 27 -54 31 -78 4 -24 26 -85 50
-135 23 -51 45 -107 49 -126 3 -19 17 -49 31 -67 13 -17 29 -51 34 -74 5 -23
21 -58 35 -79 15 -21 35 -70 46 -110 11 -40 38 -108 60 -151 49 -98 53 -148
14 -179 -24 -19 -40 -21 -171 -21 l-145 0 -29 29 c-16 16 -29 37 -29 46 0 10
-18 52 -39 94 -39 76 -58 119 -111 260 -16 40 -35 80 -43 90 -8 9 -22 38 -32
64 -35 94 16 88 -674 85 l-606 -1 -26 -26 c-14 -14 -38 -60 -53 -101 -38 -104
-70 -186 -94 -245 -12 -27 -24 -62 -27 -77 -3 -14 -16 -40 -30 -56 -13 -16
-32 -51 -42 -78 -27 -73 -54 -83 -221 -83 -207 0 -240 28 -177 147 14 26 25
54 25 62 0 9 13 36 29 61 15 25 34 63 41 85 7 21 23 57 36 80 13 22 32 65 43
95 10 31 32 82 49 115 17 32 36 79 42 104 6 25 22 61 34 80 13 19 27 46 31 60
4 14 25 68 48 120 22 52 48 119 58 149 11 30 25 62 33 70 7 9 19 34 25 56 7
22 23 63 36 90 14 28 50 115 80 195 31 80 74 183 97 230 83 173 108 227 151
330 24 58 47 117 51 132 3 16 20 49 36 75 17 26 30 54 30 63 0 8 11 36 25 62
14 26 25 56 25 68 0 28 33 90 60 115 19 18 40 21 174 25 203 7 202 7 262 -54z
m11249 -712 c128 -7 131 -8 226 -54 162 -78 247 -171 280 -306 7 -27 24 -69
38 -94 33 -58 38 -205 31 -923 -5 -479 -6 -499 -24 -513 -33 -24 -297 -20
-327 5 l-24 19 0 614 0 613 -40 79 c-42 83 -135 176 -176 176 -11 0 -45 9 -77
20 -202 72 -425 -3 -549 -185 -74 -108 -81 -169 -89 -785 -4 -412 -8 -509 -20
-527 -22 -34 -78 -46 -200 -41 -110 4 -146 15 -160 48 -10 23 -13 1750 -3
1777 12 31 45 38 192 36 154 -1 172 -9 179 -78 3 -26 10 -51 16 -57 14 -14 76
17 97 48 9 15 56 44 113 71 89 42 107 47 222 58 69 7 134 11 145 10 11 -2 79
-7 150 -11z m-6053 -4 c55 -5 117 -18 140 -28 24 -11 67 -27 95 -36 29 -10 74
-35 100 -57 26 -21 54 -39 61 -39 21 0 143 -121 158 -156 7 -17 28 -49 47 -72
42 -50 102 -156 111 -197 4 -16 22 -61 39 -100 l32 -70 -1 -205 0 -205 -31
-70 c-17 -38 -34 -84 -38 -102 -3 -18 -17 -48 -31 -68 -13 -20 -33 -53 -43
-74 -11 -20 -27 -43 -36 -51 -9 -8 -26 -32 -37 -53 -22 -43 -132 -157 -151
-157 -7 0 -39 -18 -72 -41 -81 -55 -198 -108 -265 -120 -30 -6 -84 -20 -120
-31 -144 -48 -458 -9 -590 72 -25 15 -56 30 -70 34 -37 8 -123 79 -225 183
-98 100 -151 189 -217 368 l-33 90 0 220 c0 216 1 221 27 285 15 36 31 83 37
105 6 22 24 61 39 86 15 25 36 61 47 79 11 18 55 71 98 118 42 46 77 88 77 93
0 5 19 18 42 30 24 12 58 34 78 50 126 99 428 149 732 119z m3951 -6 c20 -2
61 -15 90 -28 28 -13 75 -32 102 -43 100 -39 301 -214 339 -296 10 -21 29 -55
42 -74 13 -20 29 -54 34 -77 6 -22 25 -77 42 -121 29 -74 32 -91 36 -228 5
-163 -4 -204 -44 -212 -13 -3 -34 -7 -46 -9 -13 -3 -319 -6 -681 -7 -741 -2
-713 0 -690 -70 62 -186 168 -318 283 -353 25 -7 65 -24 90 -37 67 -36 328
-32 405 5 27 14 64 28 81 31 48 9 136 87 161 144 40 90 77 96 297 48 119 -26
136 -38 136 -94 0 -24 -8 -41 -27 -59 -14 -13 -40 -44 -57 -69 -70 -100 -118
-156 -149 -171 -17 -9 -55 -34 -83 -55 -28 -21 -70 -45 -94 -54 -23 -8 -57
-24 -74 -34 -17 -11 -60 -25 -96 -31 -36 -6 -94 -20 -129 -31 -90 -27 -278
-27 -358 1 -32 11 -87 24 -123 29 -70 9 -240 83 -295 128 -16 13 -52 41 -80
62 -111 85 -232 272 -275 429 -76 268 -47 561 78 794 60 113 200 286 254 314
15 8 53 32 84 54 31 21 81 47 112 56 31 8 75 25 97 37 60 31 365 43 538 21z
m-7996 -14 c139 2 193 -26 193 -101 0 -11 23 -89 51 -172 28 -84 59 -179 69
-212 33 -105 68 -201 89 -242 11 -22 27 -67 35 -99 8 -32 31 -104 51 -159 35
-98 73 -214 99 -305 15 -55 29 -57 56 -7 11 20 29 54 40 74 11 21 20 48 20 61
0 13 13 54 29 90 16 37 32 83 36 102 8 46 53 176 75 220 10 19 21 51 25 70 4
19 20 58 35 85 15 28 31 68 35 89 3 22 20 73 37 115 17 42 41 117 54 166 59
219 60 220 247 221 213 1 240 -15 283 -176 12 -48 33 -114 44 -146 12 -33 30
-90 41 -128 10 -38 28 -84 39 -103 11 -18 27 -61 36 -95 8 -34 22 -75 30 -90
8 -16 35 -91 60 -168 24 -76 49 -142 54 -145 5 -3 14 -31 20 -63 7 -31 22 -75
35 -98 13 -22 29 -62 36 -87 26 -104 64 -55 98 130 6 28 26 91 46 140 20 48
42 114 49 145 7 31 27 78 45 104 17 26 31 58 31 71 0 13 11 46 25 72 13 27 38
93 55 148 17 54 40 118 52 143 11 25 24 74 29 109 13 88 73 209 113 226 40 17
272 9 303 -11 48 -30 48 -131 0 -183 -14 -15 -27 -44 -31 -71 -4 -25 -18 -65
-32 -88 -14 -24 -37 -85 -50 -135 -14 -51 -36 -116 -50 -146 -13 -30 -31 -83
-39 -118 -8 -35 -24 -76 -35 -91 -11 -15 -24 -50 -30 -79 -5 -28 -27 -89 -48
-135 -22 -46 -44 -105 -51 -133 -7 -27 -23 -67 -37 -87 -13 -21 -30 -64 -38
-95 -7 -32 -25 -80 -40 -107 -14 -27 -26 -60 -26 -74 0 -13 -20 -70 -44 -126
-24 -55 -50 -116 -57 -134 -17 -47 -38 -52 -224 -52 -192 0 -197 2 -221 95 -9
33 -27 78 -40 101 -13 22 -24 49 -24 60 0 10 -19 71 -41 134 -22 63 -48 145
-59 182 -10 37 -27 82 -38 100 -11 18 -25 58 -32 88 -7 30 -22 73 -33 95 -24
49 -112 288 -135 370 -30 104 -81 83 -101 -43 -6 -35 -19 -78 -30 -95 -10 -18
-26 -60 -35 -93 -9 -34 -30 -95 -47 -135 -17 -41 -39 -103 -49 -139 -10 -36
-29 -85 -44 -110 -14 -25 -26 -54 -26 -65 0 -11 -12 -51 -26 -90 -14 -38 -41
-124 -60 -189 -20 -66 -44 -132 -54 -146 -10 -14 -22 -38 -25 -53 -16 -62 -40
-69 -241 -65 -212 4 -217 6 -248 106 -10 31 -27 73 -37 93 -10 20 -22 63 -28
95 -5 33 -21 79 -34 104 -14 25 -28 65 -32 90 -4 25 -20 71 -36 102 -16 31
-29 63 -29 71 0 20 -55 189 -73 223 -8 17 -18 48 -22 69 -4 22 -22 65 -40 95
-18 30 -35 75 -39 100 -4 25 -15 60 -26 78 -19 32 -80 180 -80 195 0 5 -13 39
-30 77 -16 38 -30 83 -30 102 0 18 -7 44 -15 58 -61 104 -72 173 -34 211 19
19 28 21 73 14 28 -4 97 -6 153 -5z"/>
<path d="M2105 3040 c-3 -5 -14 -33 -25 -62 -32 -91 -69 -181 -100 -243 -55
-113 -89 -191 -96 -220 -4 -17 -26 -70 -49 -120 -23 -49 -46 -106 -50 -125 -4
-19 -20 -55 -35 -80 -41 -66 -78 -186 -61 -203 18 -18 860 -20 867 -2 5 12
-55 205 -79 253 -8 15 -19 49 -26 76 -7 27 -23 63 -36 80 -13 18 -30 57 -36
86 -6 30 -26 87 -44 126 -18 39 -38 88 -45 110 -6 21 -24 66 -40 99 -16 33
-47 99 -69 148 -38 81 -60 103 -76 77z"/>
<path d="M7221 2475 c-40 -14 -80 -25 -88 -25 -57 0 -248 -163 -292 -250 -90
-175 -102 -319 -45 -519 43 -153 62 -186 153 -277 59 -58 87 -77 167 -113 l96
-43 124 1 c107 1 132 4 182 25 31 13 69 26 84 30 15 3 42 19 60 34 18 16 54
43 79 60 32 21 54 47 69 79 12 26 35 62 51 80 18 21 30 49 35 80 4 26 15 74
25 107 42 133 5 386 -70 471 -17 20 -31 42 -31 50 0 23 -70 94 -114 117 -23
11 -54 31 -69 44 -15 13 -44 26 -65 30 -20 3 -66 15 -101 25 -84 25 -160 23
-250 -6z"/>
<path d="M11183 2500 c-23 -5 -52 -14 -63 -20 -12 -6 -41 -17 -65 -24 -145
-44 -325 -233 -325 -343 0 -46 25 -67 69 -58 20 4 243 10 495 14 526 7 494 1
462 93 -30 87 -84 176 -124 205 -20 15 -51 39 -67 55 -68 62 -265 103 -382 78z"/>
</g>
</svg>
