<?xml version="1.0" standalone="no"?>
<svg version="1.0" xmlns="http://www.w3.org/2000/svg"
 width="592.0" height="592.0" viewBox="0 0 592.0 592.0"
 preserveAspectRatio="xMidYMid meet">
<rect x="0" y="0" width="592.0" height="592.0" rx="130" ry="130" fill="#2B2C30"/>
<g transform="translate(0.000000,592.000000) scale(0.100000,-0.100000)"
fill="#1a1a1a" stroke="none">
<path d="M0 2960 l0 -2960 370 0 c368 0 371 0 360 20 -8 16 -21 20 -58 20 -56
1 -75 13 -96 63 -11 28 -22 39 -45 43 -19 4 -56 32 -100 75 -39 38 -75 69 -81
69 -19 0 -50 40 -50 64 0 31 -25 56 -56 56 -17 0 -24 6 -24 18 0 10 -3 22 -7
26 -5 4 -12 26 -18 49 -8 32 -15 42 -30 42 -22 0 -33 40 -34 126 -1 42 -4 47
-36 65 l-35 19 0 2117 c0 2058 1 2117 19 2123 39 12 56 44 58 114 4 113 6 121
17 121 18 0 76 64 76 83 0 9 14 32 30 51 17 19 35 49 42 68 6 19 43 64 84 105
41 39 74 76 74 82 0 6 20 16 44 22 25 6 52 20 62 30 9 10 28 19 41 19 28 0 60
30 69 65 6 23 10 25 69 25 59 0 65 2 84 29 12 16 21 34 21 40 0 12 50 16 136
12 29 -2 61 2 73 8 24 13 3853 17 3873 5 7 -4 59 -9 117 -10 58 -2 107 -6 108
-11 2 -4 12 -23 23 -41 20 -33 22 -34 70 -27 58 8 90 0 90 -23 0 -29 30 -62
55 -62 28 0 145 -49 145 -61 0 -5 14 -16 30 -24 17 -9 36 -27 42 -40 6 -14 25
-33 42 -43 17 -10 41 -39 54 -64 25 -51 46 -73 61 -64 5 4 13 -18 17 -50 5
-47 11 -59 34 -72 38 -22 64 -73 58 -114 -7 -41 -2 -55 23 -68 19 -10 19 -1
19 405 l0 415 -2960 0 -2960 0 0 -2960z"/>
<path d="M2943 4385 c-39 -28 -46 -82 -39 -315 8 -250 11 -260 80 -260 89 0
91 5 94 262 4 248 -2 284 -47 311 -36 21 -60 22 -88 2z m32 -486 c8 -48 -5
-70 -30 -49 -17 14 -20 53 -4 81 14 27 26 16 34 -32z"/>
<path d="M1730 3925 c-36 -39 -32 -81 16 -142 21 -28 59 -79 84 -114 25 -35
61 -79 80 -99 19 -20 48 -53 63 -73 42 -56 117 -43 117 20 0 22 -54 128 -81
158 -10 11 -24 34 -31 51 -28 64 -174 224 -206 224 -10 0 -29 -11 -42 -25z
m64 -31 c7 -19 -10 -44 -29 -44 -16 0 -23 19 -17 43 6 22 38 22 46 1z m256
-384 c0 -13 -7 -20 -20 -20 -23 0 -35 22 -26 45 8 22 46 1 46 -25z"/>
<path d="M4120 3843 c-39 -43 -79 -91 -87 -108 -8 -16 -28 -43 -44 -60 -87
-93 -75 -205 22 -205 33 0 135 108 222 235 15 22 38 55 52 74 33 45 32 76 -4
112 -50 50 -78 42 -161 -48z m151 16 c21 -39 -19 -54 -45 -17 -11 15 -12 25
-5 34 13 16 36 8 50 -17z"/>
<path d="M2875 3429 c-27 -5 -82 -13 -121 -18 -48 -6 -83 -16 -110 -34 -21
-14 -61 -31 -87 -37 -55 -12 -226 -95 -302 -146 -152 -102 -341 -287 -382
-374 -14 -30 -38 -71 -53 -90 -29 -38 -100 -179 -100 -199 0 -6 -9 -30 -21
-52 -11 -23 -25 -64 -30 -92 -5 -29 -16 -77 -24 -107 -41 -149 -4 -621 56
-718 19 -30 29 -32 141 -37 122 -6 128 0 104 103 -9 37 -23 99 -32 137 -34
151 -29 338 16 495 10 36 26 94 35 130 10 36 35 95 56 131 22 36 39 69 39 73
0 14 80 125 101 139 11 8 50 48 86 88 91 100 259 206 389 244 33 10 93 29 134
44 106 37 347 39 423 4 26 -13 75 -27 107 -32 32 -5 76 -19 97 -30 21 -11 72
-37 114 -57 121 -58 352 -291 430 -435 10 -16 29 -47 44 -68 14 -22 32 -65 40
-97 8 -33 23 -79 33 -104 11 -25 23 -71 27 -104 4 -32 13 -77 21 -100 27 -75
-1 -398 -40 -475 -18 -35 -21 -87 -5 -97 17 -10 207 -4 233 7 55 25 76 148 76
439 0 237 -22 399 -64 490 -14 30 -26 61 -26 67 0 7 -16 42 -35 79 -19 36 -35
71 -35 77 0 7 -16 32 -35 56 -19 24 -35 49 -35 55 0 18 -84 126 -119 153 -17
14 -40 42 -51 63 -11 21 -33 49 -50 61 -17 13 -55 44 -85 69 -97 81 -142 113
-186 130 -24 9 -71 31 -103 48 -32 18 -71 32 -85 32 -14 0 -57 16 -95 35 -55
27 -82 35 -125 35 -31 0 -92 7 -136 15 -89 16 -155 17 -230 4z"/>
<path d="M1014 2963 c-19 -13 -34 -50 -34 -82 0 -38 35 -66 94 -74 24 -4 70
-18 102 -32 33 -15 84 -31 114 -37 30 -5 75 -23 100 -40 68 -45 130 -27 130
38 0 42 -31 67 -164 129 -148 68 -316 116 -342 98z m61 -49 c17 -26 16 -27 -9
-53 -31 -31 -59 -21 -64 23 -7 55 43 75 73 30z m89 -20 c9 -3 16 -12 16 -20 0
-18 -44 -18 -59 -1 -18 23 7 35 43 21z m203 -75 c18 -15 17 -46 -3 -53 -54
-21 -129 4 -123 39 7 33 91 42 126 14z m121 -61 c32 -32 -8 -80 -48 -58 -34
18 -19 70 20 70 9 0 21 -5 28 -12z"/>
<path d="M4820 2896 c-30 -12 -77 -28 -105 -35 -78 -19 -185 -94 -184 -129 1
-17 3 -20 6 -9 4 17 15 21 43 17 42 -5 29 -50 -14 -50 -17 0 -18 -2 -6 -10 23
-15 33 -12 83 21 32 21 75 36 137 49 130 27 200 77 186 134 -10 42 -64 46
-146 12z m118 -23 c4 -16 -22 -27 -43 -19 -22 8 -6 38 18 34 11 -2 22 -9 25
-15z m-154 -73 c4 -4 -2 -13 -14 -20 -24 -13 -90 -5 -90 11 0 25 80 32 104 9z"/>
<path d="M2853 2299 c-100 -31 -172 -117 -199 -238 -39 -175 32 -329 186 -400
68 -32 74 -33 178 -29 153 4 206 36 271 158 74 142 68 278 -17 402 -75 109
-260 156 -419 107z"/>
<path d="M5892 747 c-17 -18 -22 -36 -22 -75 0 -63 -13 -94 -51 -116 -24 -14
-29 -24 -30 -59 -2 -59 -13 -105 -22 -90 -16 25 -66 -6 -77 -48 -8 -28 -19
-43 -38 -51 -15 -7 -57 -42 -94 -80 -37 -37 -79 -70 -93 -74 -25 -6 -55 -48
-55 -77 0 -20 -22 -27 -79 -27 -44 0 -81 -20 -81 -43 0 -4 151 -7 335 -7 l335
0 0 385 c0 212 -1 385 -3 385 -2 0 -13 -10 -25 -23z"/>
</g><g transform="translate(0.000000,592.000000) scale(0.100000,-0.100000)"
fill="#F5A623" stroke="none">
<path d="M0 2960 l0 -2960 2960 0 2960 0 0 2960 0 2960 -2960 0 -2960 0 0
-2960z m3031 1423 c45 -27 51 -63 47 -311 -3 -221 -3 -224 -27 -243 -34 -28
-106 -26 -125 4 -21 31 -34 432 -17 494 19 68 65 89 122 56z m-1188 -486 c67
-68 119 -133 135 -171 7 -17 21 -40 31 -51 27 -30 81 -136 81 -158 0 -63 -75
-76 -117 -20 -15 20 -44 53 -63 73 -19 20 -55 64 -80 99 -25 35 -63 86 -84
114 -48 61 -52 103 -16 142 34 36 54 31 113 -28z m2438 -6 c36 -36 37 -67 4
-112 -14 -19 -37 -52 -52 -74 -87 -127 -189 -235 -222 -235 -97 0 -109 112
-22 205 16 17 36 44 44 60 8 17 48 65 87 108 83 90 111 98 161 48z m-3110
-954 c99 -30 269 -107 317 -143 25 -19 32 -32 32 -58 0 -65 -62 -83 -130 -38
-25 17 -70 35 -100 40 -30 6 -81 22 -114 37 -32 14 -78 28 -102 32 -82 11
-116 63 -83 126 24 45 42 45 180 4z m3767 -23 c29 -8 39 -47 19 -78 -26 -39
-82 -67 -177 -86 -62 -13 -105 -28 -137 -49 -50 -33 -60 -36 -83 -21 -12 8
-11 10 6 10 43 0 56 45 14 50 -28 4 -39 0 -43 -17 -3 -11 -5 -8 -6 9 -1 35
106 110 184 129 28 7 75 23 105 35 58 24 80 28 118 18z m-1852 -610 c125 -25
191 -85 236 -212 51 -146 -15 -349 -137 -422 -57 -33 -65 -35 -167 -38 -104
-4 -110 -3 -178 29 -154 71 -225 225 -186 400 45 203 200 290 432 243z"/>
<path d="M2941 3931 c-16 -28 -13 -67 4 -81 25 -21 38 1 30 49 -8 48 -20 59
-34 32z"/>
<path d="M1748 3893 c-6 -24 1 -43 17 -43 19 0 36 25 29 44 -8 21 -40 21 -46
-1z"/>
<path d="M2004 3535 c-9 -23 3 -45 26 -45 27 0 27 36 0 50 -16 9 -22 8 -26 -5z"/>
<path d="M4221 3876 c-7 -9 -6 -19 5 -34 26 -37 66 -22 45 17 -14 25 -37 33
-50 17z"/>
<path d="M1011 2926 c-17 -20 -10 -67 11 -80 14 -9 23 -6 44 15 25 26 26 27 9
53 -19 29 -46 34 -64 12z"/>
<path d="M1117 2893 c-4 -3 -2 -12 4 -20 15 -17 59 -17 59 1 0 21 -47 35 -63
19z"/>
<path d="M1270 2831 c-58 -17 -27 -71 41 -71 50 0 69 8 69 30 0 35 -58 57
-110 41z"/>
<path d="M1432 2758 c-32 -32 8 -80 48 -58 34 18 19 70 -20 70 -9 0 -21 -5
-28 -12z"/>
<path d="M4886 2875 c-3 -9 0 -18 9 -21 21 -8 47 3 43 19 -7 18 -45 20 -52 2z"/>
<path d="M4703 2810 c-33 -13 -28 -28 11 -35 36 -7 84 11 70 25 -15 14 -58 20
-81 10z"/>
</g><g transform="translate(0.000000,592.000000) scale(0.100000,-0.100000)"
fill="#FFFFFF" stroke="none">
<path d="M0 2960 l0 -2960 316 0 c311 0 316 0 311 20 -8 30 87 30 103 0 11
-20 21 -20 2261 -20 l2251 0 20 25 c16 21 28 25 69 25 48 0 49 -1 43 -25 l-6
-25 276 0 276 0 0 310 0 310 -25 0 c-24 0 -25 3 -25 53 0 44 4 58 25 77 l25
23 0 2155 0 2155 -26 24 c-16 14 -23 30 -20 39 3 9 6 29 6 45 0 22 5 29 20 29
20 0 20 7 20 350 l0 350 -436 0 -436 0 6 -24 c5 -22 2 -24 -44 -30 -30 -4 -58
-2 -70 4 -28 15 -3852 15 -3879 0 -49 -26 -124 -9 -115 26 l6 24 -476 0 -476
0 0 -2960z m850 2889 c0 -6 -9 -24 -21 -40 -19 -27 -25 -29 -84 -29 -59 0 -63
-2 -69 -25 -9 -35 -41 -65 -69 -65 -13 0 -32 -9 -41 -19 -10 -10 -37 -24 -62
-30 -24 -6 -44 -16 -44 -22 0 -6 -33 -43 -74 -82 -41 -41 -78 -86 -84 -105 -7
-19 -25 -49 -42 -68 -16 -19 -30 -42 -30 -51 0 -20 -58 -83 -77 -83 -9 0 -13
16 -13 55 0 57 22 95 55 95 8 0 21 13 29 29 9 16 31 38 51 49 19 12 35 28 35
37 0 9 15 25 33 35 19 11 39 31 45 45 6 13 25 31 41 39 16 9 33 25 36 37 4 11
20 28 36 38 16 10 39 33 52 52 20 31 28 35 79 39 54 5 87 25 88 53 1 22 130
38 130 16z m4397 5 c20 -5 60 -51 51 -59 -2 -2 -24 -6 -50 -10 -46 -7 -48 -6
-67 26 -12 19 -21 37 -21 42 0 8 56 9 87 1z m200 -113 c13 -19 37 -43 53 -53
50 -30 33 -38 -25 -12 -31 13 -66 24 -80 24 -26 0 -55 33 -55 63 0 35 80 19
107 -22z m320 -317 c9 -24 -5 -29 -27 -9 -28 25 -27 50 1 35 11 -6 23 -18 26
-26z m84 -85 c11 -22 5 -69 -10 -69 -22 0 -49 39 -55 78 l-6 43 30 -16 c16 -8
34 -25 41 -36z m-5717 -246 c6 -45 4 -50 -24 -75 -42 -39 -50 -35 -50 22 0 41
5 56 25 75 34 35 41 32 49 -22z m2971 -1668 c44 -8 105 -15 136 -15 43 0 70
-8 125 -35 38 -19 81 -35 95 -35 14 0 53 -14 85 -32 32 -17 79 -39 103 -48 44
-17 89 -49 186 -130 30 -25 68 -56 85 -69 17 -12 39 -40 50 -61 11 -21 34 -49
51 -63 35 -27 119 -135 119 -153 0 -6 16 -31 35 -55 19 -24 35 -49 35 -56 0
-6 16 -41 35 -77 19 -37 35 -72 35 -79 0 -6 12 -37 26 -67 42 -91 64 -253 64
-490 0 -291 -21 -414 -76 -439 -26 -11 -216 -17 -233 -7 -16 10 -13 62 5 97
39 77 67 400 40 475 -8 23 -17 68 -21 100 -4 33 -16 79 -27 104 -10 25 -25 71
-33 104 -8 32 -26 75 -40 97 -15 21 -34 52 -44 68 -47 87 -88 137 -215 262
-118 116 -150 142 -215 173 -42 20 -93 46 -114 57 -21 11 -65 25 -97 30 -32 5
-81 19 -107 32 -76 35 -317 33 -423 -4 -41 -15 -101 -34 -134 -44 -130 -38
-298 -144 -389 -244 -36 -40 -75 -80 -86 -88 -21 -14 -101 -125 -101 -139 0
-4 -17 -37 -39 -73 -21 -36 -46 -95 -56 -131 -9 -36 -25 -94 -35 -130 -45
-157 -50 -344 -16 -495 9 -38 23 -100 32 -137 24 -103 18 -109 -104 -103 -112
5 -122 7 -141 37 -60 97 -97 569 -56 718 8 30 19 78 24 107 5 28 19 69 30 92
12 22 21 46 21 52 0 20 71 161 100 199 15 19 39 60 53 90 41 87 230 272 382
374 76 51 247 134 302 146 26 6 66 23 87 37 27 18 62 28 110 34 39 5 94 13
121 18 75 13 141 12 230 -4z m-3004 -2692 c26 -15 29 -23 29 -65 0 -54 -10
-59 -45 -23 -18 18 -25 35 -25 65 0 46 1 46 41 23z m5755 -189 c7 -29 -21 -77
-50 -82 -27 -6 -22 71 7 91 31 22 36 21 43 -9z m-5662 -37 c11 -43 5 -53 -23
-38 -22 12 -37 53 -26 71 14 22 40 5 49 -33z m5586 -138 c0 -31 -30 -69 -55
-69 -8 0 -22 -14 -30 -30 -9 -17 -27 -36 -40 -42 -14 -6 -34 -26 -45 -45 -11
-18 -31 -38 -45 -43 -14 -5 -25 -14 -25 -20 0 -6 -11 -22 -25 -35 -29 -30
-105 -36 -105 -10 0 30 30 73 55 79 14 4 56 37 93 74 37 38 79 73 94 80 19 8
30 23 38 51 18 67 90 75 90 10z m-5496 25 c9 -8 16 -26 16 -40 0 -24 31 -64
50 -64 6 0 42 -31 81 -69 44 -43 81 -71 100 -75 22 -4 34 -15 44 -41 20 -46
21 -45 -25 -45 -40 0 -90 33 -90 60 0 6 -11 15 -25 20 -14 5 -34 25 -45 43
-11 19 -31 39 -45 45 -13 6 -31 25 -40 42 -8 16 -22 30 -30 30 -27 0 -55 38
-55 75 0 40 34 50 64 19z"/>
</g>
</svg>
